SplineFontDB: 3.0
FontName: Belleza-Regular
FullName: Belleza
FamilyName: Belleza
Weight: Book
Copyright: Copyright (c) 2012, Eduardo Tunni (http://www.tipo.net.ar), with Reserved Font Name "Belleza"
Version: 1.001
ItalicAngle: 0
UnderlinePosition: -50
UnderlineWidth: 50
Ascent: 800
Descent: 200
sfntRevision: 0x00010042
LayerCount: 2
Layer: 0 1 "Back"  1
Layer: 1 1 "Fore"  0
XUID: [1021 91 146138337 11397081]
FSType: 0
OS2Version: 2
OS2_WeightWidthSlopeOnly: 0
OS2_UseTypoMetrics: 1
CreationTime: 1332840228
ModificationTime: 1332866512
PfmFamily: 17
TTFWeight: 400
TTFWidth: 5
LineGap: 0
VLineGap: 0
Panose: 2 0 5 3 5 0 0 2 0 3
OS2TypoAscent: 128
OS2TypoAOffset: 1
OS2TypoDescent: -24
OS2TypoDOffset: 1
OS2TypoLinegap: 0
OS2WinAscent: 0
OS2WinAOffset: 1
OS2WinDescent: 0
OS2WinDOffset: 1
HheadAscent: 0
HheadAOffset: 1
HheadDescent: 0
HheadDOffset: 1
OS2SubXSize: 204
OS2SubYSize: 204
OS2SubXOff: 0
OS2SubYOff: 286
OS2SupXSize: 204
OS2SupYSize: 204
OS2SupXOff: 0
OS2SupYOff: 286
OS2StrikeYSize: 50
OS2StrikeYPos: 250
OS2Vendor: 'pyrs'
OS2CodePages: 20000001.00000000
OS2UnicodeRanges: 800000af.5000204b.00000000.00000000
Lookup: 4 0 1 "'liga' Standard Ligatures in Latin lookup 0"  {"'liga' Standard Ligatures in Latin lookup 0 subtable"  } ['liga' ('latn' <'dflt' > ) ]
Lookup: 258 0 0 "'kern' Horizontal Kerning in Latin lookup 0"  {"'kern' Horizontal Kerning in Latin lookup 0 per glyph data 0"  "'kern' Horizontal Kerning in Latin lookup 0 per glyph data 1"  "'kern' Horizontal Kerning in Latin lookup 0 kerning class 2"  } ['kern' ('latn' <'dflt' > ) ]
DEI: 91125
KernClass2: 7+ 9 "'kern' Horizontal Kerning in Latin lookup 0 kerning class 2" 
 50 A Agrave Aacute Acircumflex Atilde Adieresis Aring
 18 Y Yacute Ydieresis
 22 v w y yacute ydieresis
 8 L Lslash
 22 quoteleft quotedblleft
 53 O Q Ograve Oacute Ocircumflex Otilde Odieresis Oslash
 20 quotedbl quotesingle
 22 v w y yacute ydieresis
 18 Y Yacute Ydieresis

StartChar: exclam
Encoding: 33 33 4
Width: 333
GlyphClass: 2
Flags: W
LayerCount: 2
Fore
SplineSet
165 158 m 1,0,-1
 135 653 l 1,1,-1
 230 653 l 1,2,-1
 200 158 l 1,3,-1
 165 158 l 1,0,-1
220 4 m 128,-1,5
 203 -9 203 -9 182.5 -9 c 128,-1,6
 162 -9 162 -9 145 3.5 c 128,-1,7
 128 16 128 16 128 40.5 c 128,-1,8
 128 65 128 65 144 80.5 c 128,-1,9
 160 96 160 96 182.5 96 c 128,-1,10
 205 96 205 96 221 80 c 128,-1,11
 237 64 237 64 237 40.5 c 128,-1,4
 237 17 237 17 220 4 c 128,-1,5
EndSplineSet
EndChar

StartChar: quotedbl
Encoding: 34 34 5
Width: 350
GlyphClass: 2
Flags: W
LayerCount: 2
Fore
SplineSet
50 677 m 1,0,-1
 131 677 l 1,1,-1
 131 607 l 1,2,-1
 102 431 l 1,3,-1
 78 431 l 1,4,-1
 50 607 l 1,5,-1
 50 677 l 1,0,-1
219 677 m 1,6,-1
 300 677 l 1,7,-1
 300 607 l 1,8,-1
 271 431 l 1,9,-1
 247 431 l 1,10,-1
 219 607 l 1,11,-1
 219 677 l 1,6,-1
EndSplineSet
EndChar

StartChar: numbersign
Encoding: 35 35 6
Width: 500
GlyphClass: 2
Flags: W
LayerCount: 2
Fore
SplineSet
471 271 m 1,0,-1
 471 216 l 1,1,-1
 362 216 l 1,2,-1
 331 0 l 1,3,-1
 273 0 l 1,4,-1
 304 216 l 1,5,-1
 170 216 l 1,6,-1
 137 0 l 1,7,-1
 79 0 l 1,8,-1
 112 216 l 1,9,-1
 5 216 l 1,10,-1
 5 271 l 1,11,-1
 121 271 l 1,12,-1
 142 405 l 1,13,-1
 32 405 l 1,14,-1
 32 460 l 1,15,-1
 150 460 l 1,16,-1
 181 662 l 1,17,-1
 239 662 l 1,18,-1
 208 460 l 1,19,-1
 341 460 l 1,20,-1
 371 662 l 1,21,-1
 429 662 l 1,22,-1
 399 460 l 1,23,-1
 496 460 l 1,24,-1
 496 405 l 1,25,-1
 391 405 l 1,26,-1
 371 271 l 1,27,-1
 471 271 l 1,0,-1
333 405 m 1,28,-1
 200 405 l 1,29,-1
 179 271 l 1,30,-1
 313 271 l 1,31,-1
 333 405 l 1,28,-1
EndSplineSet
EndChar

StartChar: dollar
Encoding: 36 36 7
Width: 500
GlyphClass: 2
Flags: W
LayerCount: 2
Fore
SplineSet
264 733 m 1,0,-1
 264 669 l 1,1,2
 351 669 351 669 432 636 c 1,3,-1
 422 570 l 1,4,5
 334 622 334 622 264 631 c 1,6,-1
 264 397 l 1,7,8
 271 392 271 392 295.5 376.5 c 128,-1,9
 320 361 320 361 329 355 c 128,-1,10
 338 349 338 349 358.5 334 c 128,-1,11
 379 319 379 319 388 309 c 128,-1,12
 397 299 397 299 411 282.5 c 128,-1,13
 425 266 425 266 432 252 c 0,14,15
 448 215 448 215 448 178 c 0,16,17
 448 103 448 103 400.5 53 c 128,-1,18
 353 3 353 3 264 -4 c 1,19,-1
 264 -87 l 1,20,-1
 230 -87 l 1,21,-1
 230 -6 l 1,22,23
 144 -5 144 -5 58 33 c 1,24,-1
 58 80 l 1,25,26
 89 62 89 62 139 45.5 c 128,-1,27
 189 29 189 29 230 29 c 1,28,-1
 230 301 l 1,29,30
 127 362 127 362 97 403 c 0,31,32
 62 451 62 451 62 511.5 c 128,-1,33
 62 572 62 572 103 618 c 128,-1,34
 144 664 144 664 230 669 c 1,35,-1
 230 733 l 1,36,-1
 264 733 l 1,0,-1
153 531 m 0,37,38
 153 474 153 474 230 420 c 1,39,-1
 230 627 l 1,40,41
 192 618 192 618 172.5 590 c 128,-1,42
 153 562 153 562 153 531 c 0,37,38
331 76.5 m 128,-1,44
 355 109 355 109 355 152.5 c 128,-1,45
 355 196 355 196 331.5 223.5 c 128,-1,46
 308 251 308 251 264 280 c 1,47,-1
 264 33 l 1,48,43
 307 44 307 44 331 76.5 c 128,-1,44
EndSplineSet
EndChar

StartChar: percent
Encoding: 37 37 8
Width: 799
GlyphClass: 2
Flags: W
LayerCount: 2
Fore
SplineSet
90 633 m 128,-1,1
 140 684 140 684 200 684 c 128,-1,2
 260 684 260 684 299 634 c 128,-1,3
 338 584 338 584 338 488 c 128,-1,4
 338 392 338 392 288.5 341.5 c 128,-1,5
 239 291 239 291 178 291 c 128,-1,6
 117 291 117 291 78.5 340 c 128,-1,7
 40 389 40 389 40 485.5 c 128,-1,0
 40 582 40 582 90 633 c 128,-1,1
242 592.5 m 128,-1,9
 219 638 219 638 184.5 638 c 128,-1,10
 150 638 150 638 130 597 c 128,-1,11
 110 556 110 556 110 489.5 c 128,-1,12
 110 423 110 423 132.5 378.5 c 128,-1,13
 155 334 155 334 187 334 c 0,14,15
 265 334 265 334 265 485 c 0,16,8
 265 547 265 547 242 592.5 c 128,-1,9
511 332 m 128,-1,18
 561 383 561 383 621 383 c 128,-1,19
 681 383 681 383 720 333 c 128,-1,20
 759 283 759 283 759 187 c 128,-1,21
 759 91 759 91 709.5 40.5 c 128,-1,22
 660 -10 660 -10 599 -10 c 128,-1,23
 538 -10 538 -10 499.5 39 c 128,-1,24
 461 88 461 88 461 184.5 c 128,-1,17
 461 281 461 281 511 332 c 128,-1,18
663 291.5 m 128,-1,26
 640 337 640 337 605.5 337 c 128,-1,27
 571 337 571 337 551 296 c 128,-1,28
 531 255 531 255 531 188.5 c 128,-1,29
 531 122 531 122 553.5 77.5 c 128,-1,30
 576 33 576 33 608 33 c 0,31,32
 686 33 686 33 686 184 c 0,33,25
 686 246 686 246 663 291.5 c 128,-1,26
599 677 m 1,34,-1
 249 -14 l 1,35,-1
 200 -14 l 1,36,-1
 553 677 l 1,37,-1
 599 677 l 1,34,-1
EndSplineSet
EndChar

StartChar: ampersand
Encoding: 38 38 9
Width: 778
GlyphClass: 2
Flags: W
LayerCount: 2
Fore
SplineSet
250 -13 m 0,0,1
 180 -13 180 -13 116 24 c 0,2,3
 83 43 83 43 62.5 80.5 c 128,-1,4
 42 118 42 118 42 168 c 0,5,6
 42 234 42 234 92.5 283.5 c 128,-1,7
 143 333 143 333 246 350 c 1,8,9
 208 435 208 435 208 506 c 0,10,11
 208 549 208 549 234 604 c 0,12,13
 249 635 249 635 285 656 c 128,-1,14
 321 677 321 677 359 677 c 128,-1,15
 397 677 397 677 440 669 c 128,-1,16
 483 661 483 661 505 651 c 1,17,-1
 495 588 l 1,18,19
 431 636 431 636 337 636 c 1,20,21
 289 605 289 605 289 525 c 128,-1,22
 289 445 289 445 338 342 c 128,-1,23
 387 239 387 239 470 156 c 1,24,25
 505 213 505 213 542 330 c 1,26,27
 516 330 516 330 505 331 c 1,28,-1
 505 362 l 1,29,30
 606 365 606 365 675 384 c 1,31,-1
 658 334 l 1,32,33
 640 331 640 331 589 329 c 1,34,35
 549 207 549 207 497 130 c 1,36,37
 611 31 611 31 731 31 c 1,38,-1
 688 0 l 1,39,40
 570 0 570 0 458 81 c 1,41,42
 371 -13 371 -13 250 -13 c 0,0,1
279 34 m 0,43,44
 366 34 366 34 431 102 c 1,45,46
 324 190 324 190 260 318 c 1,47,48
 192 299 192 299 160.5 257.5 c 128,-1,49
 129 216 129 216 129 168 c 0,50,51
 129 99 129 99 171.5 66.5 c 128,-1,52
 214 34 214 34 279 34 c 0,43,44
EndSplineSet
EndChar

StartChar: quotesingle
Encoding: 39 39 10
Width: 181
GlyphClass: 2
Flags: W
LayerCount: 2
Fore
SplineSet
50 677 m 1,0,-1
 131 677 l 1,1,-1
 131 607 l 1,2,-1
 102 431 l 1,3,-1
 78 431 l 1,4,-1
 50 607 l 1,5,-1
 50 677 l 1,0,-1
EndSplineSet
EndChar

StartChar: parenleft
Encoding: 40 40 11
Width: 333
GlyphClass: 2
Flags: W
LayerCount: 2
Fore
SplineSet
126 251 m 128,-1,1
 126 133 126 133 147.5 52 c 128,-1,2
 169 -29 169 -29 199.5 -71.5 c 128,-1,3
 230 -114 230 -114 284 -159 c 1,4,-1
 282 -176 l 1,5,6
 48 -44 48 -44 48 251 c 128,-1,7
 48 546 48 546 282 677 c 1,8,-1
 284 661 l 1,9,10
 230 615 230 615 199.5 573 c 128,-1,11
 169 531 169 531 147.5 450 c 128,-1,0
 126 369 126 369 126 251 c 128,-1,1
EndSplineSet
EndChar

StartChar: parenright
Encoding: 41 41 12
Width: 333
GlyphClass: 2
Flags: W
LayerCount: 2
Fore
SplineSet
207 249 m 128,-1,1
 207 367 207 367 185.5 448 c 128,-1,2
 164 529 164 529 133.5 571.5 c 128,-1,3
 103 614 103 614 49 659 c 1,4,-1
 51 676 l 1,5,6
 285 544 285 544 285 248.5 c 128,-1,7
 285 -47 285 -47 51 -177 c 1,8,-1
 49 -161 l 1,9,10
 103 -115 103 -115 133.5 -73 c 128,-1,11
 164 -31 164 -31 185.5 50 c 128,-1,0
 207 131 207 131 207 249 c 128,-1,1
EndSplineSet
EndChar

StartChar: asterisk
Encoding: 42 42 13
Width: 507
GlyphClass: 2
Flags: W
LayerCount: 2
Fore
SplineSet
300 292 m 1,0,-1
 220 292 l 1,1,-1
 220 352 l 1,2,-1
 242 445 l 1,3,-1
 172 380 l 1,4,-1
 120 350 l 1,5,-1
 80 419 l 1,6,-1
 132 449 l 1,7,-1
 223 477 l 1,8,-1
 132 505 l 1,9,-1
 80 535 l 1,10,-1
 120 604 l 1,11,-1
 172 574 l 1,12,-1
 241 509 l 1,13,-1
 220 602 l 1,14,-1
 220 662 l 1,15,-1
 300 662 l 1,16,-1
 300 602 l 1,17,-1
 278 509 l 1,18,-1
 348 574 l 1,19,-1
 400 604 l 1,20,-1
 440 535 l 1,21,-1
 388 505 l 1,22,-1
 297 477 l 1,23,-1
 388 449 l 1,24,-1
 440 419 l 1,25,-1
 400 350 l 1,26,-1
 348 380 l 1,27,-1
 278 445 l 1,28,-1
 300 352 l 1,29,-1
 300 292 l 1,0,-1
EndSplineSet
EndChar

StartChar: plus
Encoding: 43 43 14
Width: 564
GlyphClass: 2
Flags: W
LayerCount: 2
Fore
SplineSet
253 282 m 1,0,-1
 253 477 l 1,1,-1
 311 477 l 1,2,-1
 311 282 l 1,3,-1
 505 282 l 1,4,-1
 505 224 l 1,5,-1
 311 224 l 1,6,-1
 311 29 l 1,7,-1
 253 29 l 1,8,-1
 253 224 l 1,9,-1
 59 224 l 1,10,-1
 59 282 l 1,11,-1
 253 282 l 1,0,-1
EndSplineSet
EndChar

StartChar: comma
Encoding: 44 44 15
Width: 235
GlyphClass: 2
Flags: W
LayerCount: 2
Fore
SplineSet
175 28 m 0,0,1
 175 -80 175 -80 63 -142 c 1,2,-1
 51 -123 l 1,3,4
 118 -70 118 -70 118 -4 c 1,5,6
 95 -4 95 -4 75.5 11 c 128,-1,7
 56 26 56 26 56 51 c 1,8,9
 70 72 70 72 101 88.5 c 128,-1,10
 132 105 132 105 161 108 c 1,11,12
 175 67 175 67 175 28 c 0,0,1
EndSplineSet
EndChar

StartChar: hyphen
Encoding: 45 45 16
Width: 333
GlyphClass: 2
Flags: W
LayerCount: 2
Fore
SplineSet
39 257 m 1,0,-1
 285 257 l 1,1,-1
 285 194 l 1,2,-1
 39 194 l 1,3,-1
 39 257 l 1,0,-1
EndSplineSet
EndChar

StartChar: period
Encoding: 46 46 17
Width: 250
GlyphClass: 2
Flags: W
LayerCount: 2
Fore
SplineSet
70 44 m 128,-1,1
 70 67 70 67 86 83.5 c 128,-1,2
 102 100 102 100 125 100 c 128,-1,3
 148 100 148 100 164.5 83.5 c 128,-1,4
 181 67 181 67 181 44 c 128,-1,5
 181 21 181 21 164.5 5 c 128,-1,6
 148 -11 148 -11 125 -11 c 128,-1,7
 102 -11 102 -11 86 5 c 128,-1,0
 70 21 70 21 70 44 c 128,-1,1
EndSplineSet
EndChar

StartChar: slash
Encoding: 47 47 18
Width: 278
GlyphClass: 2
Flags: W
LayerCount: 2
Fore
SplineSet
287 677 m 1,0,-1
 59 -14 l 1,1,-1
 -9 -14 l 1,2,-1
 220 677 l 1,3,-1
 287 677 l 1,0,-1
EndSplineSet
EndChar

StartChar: zero
Encoding: 48 48 19
Width: 500
GlyphClass: 2
Flags: W
LayerCount: 2
Fore
SplineSet
414.5 504.5 m 128,-1,1
 472 432 472 432 472 301 c 0,2,3
 472 217 472 217 449 153.5 c 128,-1,4
 426 90 426 90 389 56 c 0,5,6
 317 -12 317 -12 229 -12 c 128,-1,7
 141 -12 141 -12 83.5 63 c 128,-1,8
 26 138 26 138 26 269 c 0,9,10
 26 353 26 353 49 415.5 c 128,-1,11
 72 478 72 478 109 512 c 0,12,13
 181 577 181 577 269 577 c 128,-1,0
 357 577 357 577 414.5 504.5 c 128,-1,1
340 455.5 m 128,-1,15
 301 526 301 526 241.5 526 c 128,-1,16
 182 526 182 526 148 462 c 128,-1,17
 114 398 114 398 114 289 c 128,-1,18
 114 180 114 180 152.5 107.5 c 128,-1,19
 191 35 191 35 246 35 c 0,20,21
 379 35 379 35 379 283 c 0,22,14
 379 385 379 385 340 455.5 c 128,-1,15
EndSplineSet
EndChar

StartChar: one
Encoding: 49 49 20
Width: 500
GlyphClass: 2
Flags: W
LayerCount: 2
Fore
SplineSet
298 580 m 1,0,-1
 298 53 l 1,1,-1
 440 63 l 1,2,-1
 440 0 l 1,3,-1
 71 0 l 1,4,-1
 71 63 l 1,5,-1
 213 53 l 1,6,-1
 213 490 l 1,7,-1
 79 421 l 1,8,-1
 45 479 l 1,9,-1
 294 580 l 1,10,-1
 298 580 l 1,0,-1
EndSplineSet
EndChar

StartChar: two
Encoding: 50 50 21
Width: 500
GlyphClass: 2
Flags: W
LayerCount: 2
Fore
SplineSet
431 408 m 0,0,1
 431 357 431 357 378 284 c 0,2,3
 287 159 287 159 140 58 c 1,4,-1
 140 52 l 1,5,-1
 444 67 l 1,6,-1
 444 0 l 1,7,-1
 56 0 l 1,8,-1
 56 48 l 1,9,10
 159 111 159 111 251.5 217.5 c 128,-1,11
 344 324 344 324 344 407.5 c 128,-1,12
 344 491 344 491 262 524 c 1,13,14
 191 524 191 524 99 496 c 1,15,-1
 79 559 l 1,16,17
 147 580 147 580 222 580 c 0,18,19
 334 580 334 580 382.5 530.5 c 128,-1,20
 431 481 431 481 431 408 c 0,0,1
EndSplineSet
EndChar

StartChar: three
Encoding: 51 51 22
Width: 500
GlyphClass: 2
Flags: W
LayerCount: 2
Fore
SplineSet
357 -55.5 m 128,-1,1
 284 -108 284 -108 197 -108 c 128,-1,2
 110 -108 110 -108 20 -79 c 1,3,-1
 40 -15 l 1,4,5
 123 -55 123 -55 180 -66 c 1,6,7
 244 -66 244 -66 288.5 -26 c 128,-1,8
 333 14 333 14 333 81 c 128,-1,9
 333 148 333 148 281 191.5 c 128,-1,10
 229 235 229 235 119 235 c 1,11,-1
 118 262 l 1,12,13
 305 274 305 274 305 406 c 0,14,15
 305 491 305 491 216 524 c 1,16,17
 154 524 154 524 62 496 c 1,18,-1
 42 559 l 1,19,20
 112 580 112 580 176 580 c 0,21,22
 273 580 273 580 334.5 535 c 128,-1,23
 396 490 396 490 396 411 c 0,24,25
 396 360 396 360 358.5 318.5 c 128,-1,26
 321 277 321 277 257 255 c 1,27,28
 341 238 341 238 385.5 193 c 128,-1,29
 430 148 430 148 430 92 c 0,30,0
 430 -3 430 -3 357 -55.5 c 128,-1,1
EndSplineSet
EndChar

StartChar: four
Encoding: 52 52 23
Width: 500
GlyphClass: 2
Flags: W
LayerCount: 2
Fore
SplineSet
484 132 m 1,0,-1
 484 69 l 1,1,-1
 370 69 l 1,2,-1
 370 -100 l 1,3,-1
 286 -100 l 1,4,-1
 286 69 l 1,5,-1
 -1 69 l 1,6,-1
 -1 112 l 1,7,-1
 286 562 l 1,8,-1
 370 562 l 1,9,-1
 370 132 l 1,10,-1
 484 132 l 1,0,-1
286 132 m 1,11,-1
 286 499 l 1,12,-1
 57 132 l 1,13,-1
 286 132 l 1,11,-1
EndSplineSet
EndChar

StartChar: five
Encoding: 53 53 24
Width: 500
GlyphClass: 2
Flags: W
LayerCount: 2
Fore
SplineSet
20 -84 m 1,0,-1
 40 -20 l 1,1,2
 105 -51 105 -51 180 -66 c 1,3,4
 244 -66 244 -66 287 -31 c 128,-1,5
 330 4 330 4 330 71 c 128,-1,6
 330 138 330 138 273.5 187 c 128,-1,7
 217 236 217 236 95 236 c 2,8,-1
 65 236 l 1,9,-1
 81 562 l 1,10,-1
 412 562 l 1,11,-1
 402 495 l 1,12,-1
 159 510 l 1,13,-1
 147 261 l 1,14,15
 285 255 285 255 355.5 202 c 128,-1,16
 426 149 426 149 426 73 c 0,17,18
 426 24 426 24 402.5 -13 c 128,-1,19
 379 -50 379 -50 342 -70 c 0,20,21
 269 -108 269 -108 182 -108 c 128,-1,22
 95 -108 95 -108 20 -84 c 1,0,-1
EndSplineSet
EndChar

StartChar: six
Encoding: 54 54 25
Width: 500
GlyphClass: 2
Flags: W
LayerCount: 2
Fore
SplineSet
135 314 m 1,0,1
 187 382 187 382 272.5 382 c 128,-1,2
 358 382 358 382 408.5 329.5 c 128,-1,3
 459 277 459 277 459 191 c 0,4,5
 459 136 459 136 440 95 c 128,-1,6
 421 54 421 54 389 32 c 0,7,8
 327 -12 327 -12 248 -12 c 0,9,10
 148 -12 148 -12 94 74.5 c 128,-1,11
 40 161 40 161 40 294 c 0,12,13
 40 467 40 467 126.5 571 c 128,-1,14
 213 675 213 675 317 675 c 0,15,16
 369 675 369 675 439 655 c 1,17,-1
 419 591 l 1,18,19
 327 620 327 620 275 620 c 1,20,21
 213 596 213 596 173 510.5 c 128,-1,22
 133 425 133 425 129 314 c 1,23,-1
 135 314 l 1,0,1
161.5 104.5 m 128,-1,25
 194 32 194 32 245 32 c 128,-1,26
 296 32 296 32 330 77 c 128,-1,27
 364 122 364 122 364 187 c 0,28,29
 364 315 364 315 257 336 c 1,30,31
 222 332 222 332 190.5 317.5 c 128,-1,32
 159 303 159 303 144 289.5 c 128,-1,33
 129 276 129 276 129 271 c 0,34,24
 129 177 129 177 161.5 104.5 c 128,-1,25
EndSplineSet
EndChar

StartChar: seven
Encoding: 55 55 26
Width: 500
GlyphClass: 2
Flags: W
LayerCount: 2
Fore
SplineSet
449 562 m 1,0,-1
 449 516 l 1,1,-1
 189 -108 l 1,2,-1
 109 -75 l 1,3,-1
 380 513 l 1,4,-1
 51 495 l 1,5,-1
 41 562 l 1,6,-1
 449 562 l 1,0,-1
EndSplineSet
EndChar

StartChar: eight
Encoding: 56 56 27
Width: 500
GlyphClass: 2
Flags: W
LayerCount: 2
Fore
SplineSet
164.5 247.5 m 128,-1,1
 142 206 142 206 142 156 c 128,-1,2
 142 106 142 106 176 69 c 128,-1,3
 210 32 210 32 255 32 c 128,-1,4
 300 32 300 32 329.5 60 c 128,-1,5
 359 88 359 88 359 134 c 128,-1,6
 359 180 359 180 331.5 212.5 c 128,-1,7
 304 245 304 245 215 314 c 1,8,0
 187 289 187 289 164.5 247.5 c 128,-1,1
56 148 m 0,9,10
 56 180 56 180 62.5 203 c 128,-1,11
 69 226 69 226 89 249.5 c 128,-1,12
 109 273 109 273 126.5 287.5 c 128,-1,13
 144 302 144 302 186 334 c 1,14,15
 134 380 134 380 114 400 c 128,-1,16
 94 420 94 420 78 452 c 128,-1,17
 62 484 62 484 62 523 c 0,18,19
 62 594 62 594 119.5 634.5 c 128,-1,20
 177 675 177 675 254 675 c 128,-1,21
 331 675 331 675 377.5 635.5 c 128,-1,22
 424 596 424 596 424 536 c 0,23,24
 424 470 424 470 376 430 c 0,25,26
 343 402 343 402 290 373 c 1,27,28
 383 306 383 306 414 257 c 128,-1,29
 445 208 445 208 445 152 c 0,30,31
 445 110 445 110 427 79.5 c 128,-1,32
 409 49 409 49 388 31 c 128,-1,33
 367 13 367 13 330 0.5 c 128,-1,34
 293 -12 293 -12 246 -12 c 0,35,36
 158 -12 158 -12 107 36.5 c 128,-1,37
 56 85 56 85 56 148 c 0,9,10
145 548 m 0,38,39
 145 467 145 467 258 388 c 1,40,41
 291 412 291 412 317.5 452 c 128,-1,42
 344 492 344 492 344 535 c 128,-1,43
 344 578 344 578 314 605 c 128,-1,44
 284 632 284 632 242.5 632 c 128,-1,45
 201 632 201 632 173 607.5 c 128,-1,46
 145 583 145 583 145 548 c 0,38,39
EndSplineSet
EndChar

StartChar: nine
Encoding: 57 57 28
Width: 500
GlyphClass: 2
Flags: W
LayerCount: 2
Fore
SplineSet
357 254 m 1,0,1
 305 186 305 186 219.5 186 c 128,-1,2
 134 186 134 186 83.5 238.5 c 128,-1,3
 33 291 33 291 33 377 c 0,4,5
 33 432 33 432 52 473 c 128,-1,6
 71 514 71 514 103 536 c 0,7,8
 165 580 165 580 244 580 c 0,9,10
 344 580 344 580 398 493.5 c 128,-1,11
 452 407 452 407 452 274 c 0,12,13
 452 101 452 101 365.5 -3 c 128,-1,14
 279 -107 279 -107 175 -107 c 0,15,16
 115 -107 115 -107 43 -84 c 1,17,-1
 63 -20 l 1,18,19
 164 -52 164 -52 217 -52 c 1,20,21
 279 -28 279 -28 319 57.5 c 128,-1,22
 359 143 359 143 363 254 c 1,23,-1
 357 254 l 1,0,1
330.5 463.5 m 128,-1,25
 298 536 298 536 247 536 c 128,-1,26
 196 536 196 536 162 491 c 128,-1,27
 128 446 128 446 128 381 c 0,28,29
 128 253 128 253 235 232 c 1,30,31
 270 236 270 236 301.5 250.5 c 128,-1,32
 333 265 333 265 348 278.5 c 128,-1,33
 363 292 363 292 363 297 c 0,34,24
 363 391 363 391 330.5 463.5 c 128,-1,25
EndSplineSet
EndChar

StartChar: colon
Encoding: 58 58 29
Width: 211
GlyphClass: 2
Flags: W
LayerCount: 2
Fore
SplineSet
50 44 m 128,-1,1
 50 67 50 67 66 83.5 c 128,-1,2
 82 100 82 100 105 100 c 128,-1,3
 128 100 128 100 144.5 83.5 c 128,-1,4
 161 67 161 67 161 44 c 128,-1,5
 161 21 161 21 144.5 5 c 128,-1,6
 128 -11 128 -11 105 -11 c 128,-1,7
 82 -11 82 -11 66 5 c 128,-1,0
 50 21 50 21 50 44 c 128,-1,1
50 403 m 128,-1,9
 50 426 50 426 66 442.5 c 128,-1,10
 82 459 82 459 105 459 c 128,-1,11
 128 459 128 459 144.5 442.5 c 128,-1,12
 161 426 161 426 161 403 c 128,-1,13
 161 380 161 380 144.5 364 c 128,-1,14
 128 348 128 348 105 348 c 128,-1,15
 82 348 82 348 66 364 c 128,-1,8
 50 380 50 380 50 403 c 128,-1,9
EndSplineSet
EndChar

StartChar: semicolon
Encoding: 59 59 30
Width: 211
GlyphClass: 2
Flags: W
LayerCount: 2
Fore
SplineSet
169 28 m 0,0,1
 169 -80 169 -80 57 -142 c 1,2,-1
 45 -123 l 1,3,4
 112 -70 112 -70 112 -4 c 1,5,6
 89 -4 89 -4 69.5 11 c 128,-1,7
 50 26 50 26 50 51 c 1,8,9
 64 72 64 72 95 88.5 c 128,-1,10
 126 105 126 105 155 108 c 1,11,12
 169 67 169 67 169 28 c 0,0,1
50 403 m 128,-1,14
 50 426 50 426 66 442.5 c 128,-1,15
 82 459 82 459 105 459 c 128,-1,16
 128 459 128 459 144.5 442.5 c 128,-1,17
 161 426 161 426 161 403 c 128,-1,18
 161 380 161 380 144.5 364 c 128,-1,19
 128 348 128 348 105 348 c 128,-1,20
 82 348 82 348 66 364 c 128,-1,13
 50 380 50 380 50 403 c 128,-1,14
EndSplineSet
EndChar

StartChar: less
Encoding: 60 60 31
Width: 564
GlyphClass: 2
Flags: W
LayerCount: 2
Fore
SplineSet
507 82 m 1,0,-1
 507 22 l 1,1,-1
 57 226 l 1,2,-1
 57 280 l 1,3,-1
 507 484 l 1,4,-1
 507 424 l 1,5,-1
 130 253 l 1,6,-1
 507 82 l 1,0,-1
EndSplineSet
EndChar

StartChar: equal
Encoding: 61 61 32
Width: 564
GlyphClass: 2
Flags: W
LayerCount: 2
Fore
SplineSet
505 371 m 1,0,-1
 505 312 l 1,1,-1
 59 312 l 1,2,-1
 59 371 l 1,3,-1
 505 371 l 1,0,-1
505 194 m 1,4,-1
 505 135 l 1,5,-1
 59 135 l 1,6,-1
 59 194 l 1,7,-1
 505 194 l 1,4,-1
EndSplineSet
EndChar

StartChar: greater
Encoding: 62 62 33
Width: 564
GlyphClass: 2
Flags: W
LayerCount: 2
Fore
SplineSet
57 82 m 1,0,-1
 434 253 l 1,1,-1
 57 424 l 1,2,-1
 57 484 l 1,3,-1
 507 280 l 1,4,-1
 507 226 l 1,5,-1
 57 22 l 1,6,-1
 57 82 l 1,0,-1
EndSplineSet
EndChar

StartChar: question
Encoding: 63 63 34
Width: 444
GlyphClass: 2
Flags: W
LayerCount: 2
Fore
SplineSet
172 82.5 m 128,-1,1
 188 98 188 98 210.5 98 c 128,-1,2
 233 98 233 98 249 82 c 128,-1,3
 265 66 265 66 265 42.5 c 128,-1,4
 265 19 265 19 248 5.5 c 128,-1,5
 231 -8 231 -8 211 -8 c 128,-1,6
 191 -8 191 -8 173.5 5 c 128,-1,7
 156 18 156 18 156 42.5 c 128,-1,0
 156 67 156 67 172 82.5 c 128,-1,1
207 655 m 0,8,9
 319 655 319 655 367.5 605.5 c 128,-1,10
 416 556 416 556 416 487.5 c 128,-1,11
 416 419 416 419 357.5 331.5 c 128,-1,12
 299 244 299 244 216 160 c 1,13,-1
 187 183 l 1,14,15
 252 253 252 253 292.5 331.5 c 128,-1,16
 333 410 333 410 333 474 c 0,17,18
 333 565 333 565 247 599 c 1,19,20
 179 599 179 599 104 577 c 1,21,-1
 104 640 l 1,22,23
 162 655 162 655 207 655 c 0,8,9
EndSplineSet
EndChar

StartChar: at
Encoding: 64 64 35
Width: 971
GlyphClass: 2
Flags: W
LayerCount: 2
Fore
SplineSet
711 49 m 128,-1,1
 684 40 684 40 654 40 c 128,-1,2
 624 40 624 40 598 66.5 c 128,-1,3
 572 93 572 93 569 132 c 1,4,-1
 565 132 l 1,5,6
 545 91 545 91 512.5 68 c 128,-1,7
 480 45 480 45 446 45 c 0,8,9
 385 45 385 45 352 96.5 c 128,-1,10
 319 148 319 148 319 229.5 c 128,-1,11
 319 311 319 311 367.5 386.5 c 128,-1,12
 416 462 416 462 502 462 c 0,13,14
 553 462 553 462 609 421 c 1,15,-1
 644 454 l 1,16,-1
 676 454 l 1,17,-1
 630 170 l 2,18,19
 628 154 628 154 628 146 c 0,20,21
 628 81 628 81 685 81 c 0,22,23
 733 81 733 81 783 143 c 128,-1,24
 833 205 833 205 833 324 c 128,-1,25
 833 443 833 443 732.5 535 c 128,-1,26
 632 627 632 627 497.5 627 c 128,-1,27
 363 627 363 627 266 520.5 c 128,-1,28
 169 414 169 414 169 262 c 128,-1,29
 169 110 169 110 266 3.5 c 128,-1,30
 363 -103 363 -103 504 -103 c 0,31,32
 602 -103 602 -103 687 -47 c 1,33,-1
 714 -84 l 1,34,35
 622 -137 622 -137 495 -137 c 0,36,37
 323 -137 323 -137 201 -20.5 c 128,-1,38
 79 96 79 96 79 261 c 128,-1,39
 79 426 79 426 201 542.5 c 128,-1,40
 323 659 323 659 487.5 659 c 128,-1,41
 652 659 652 659 762 556 c 128,-1,42
 872 453 872 453 872 317 c 0,43,44
 872 259 872 259 857 210.5 c 128,-1,45
 842 162 842 162 819 131.5 c 128,-1,46
 796 101 796 101 767 79.5 c 128,-1,0
 738 58 738 58 711 49 c 128,-1,1
505 412 m 0,47,48
 462 412 462 412 429.5 361.5 c 128,-1,49
 397 311 397 311 397 232 c 0,50,51
 397 115 397 115 461 97 c 1,52,53
 488 99 488 99 523.5 127 c 128,-1,54
 559 155 559 155 562 171 c 2,55,-1
 597 383 l 1,56,57
 561 412 561 412 505 412 c 0,47,48
EndSplineSet
EndChar

StartChar: A
Encoding: 65 65 36
Width: 629
GlyphClass: 2
Flags: W
LayerCount: 2
Fore
SplineSet
10 0 m 1,0,-1
 307 678 l 1,1,-1
 322 678 l 1,2,-1
 619 0 l 1,3,-1
 510 0 l 1,4,-1
 435 180 l 1,5,-1
 138 180 l 1,6,-1
 64 0 l 1,7,-1
 10 0 l 1,0,-1
153 218 m 1,8,-1
 419 218 l 1,9,-1
 287 542 l 1,10,-1
 153 218 l 1,8,-1
EndSplineSet
EndChar

StartChar: B
Encoding: 66 66 37
Width: 644
GlyphClass: 2
Flags: W
LayerCount: 2
Fore
SplineSet
90 0 m 1,0,-1
 90 662 l 1,1,-1
 279 662 l 2,2,3
 394 662 394 662 462 623 c 128,-1,4
 530 584 530 584 530 506 c 0,5,6
 530 451 530 451 491.5 410.5 c 128,-1,7
 453 370 453 370 384 349 c 1,8,9
 475 332 475 332 521.5 287.5 c 128,-1,10
 568 243 568 243 568 190 c 128,-1,11
 568 137 568 137 541 99.5 c 128,-1,12
 514 62 514 62 472 42 c 0,13,14
 387 0 387 0 298 0 c 2,15,-1
 90 0 l 1,0,-1
187 359 m 1,16,-1
 259 359 l 2,17,18
 350 359 350 359 389.5 399.5 c 128,-1,19
 429 440 429 440 429 501 c 0,20,21
 429 542 429 542 401.5 575.5 c 128,-1,22
 374 609 374 609 317 626 c 1,23,24
 249 626 249 626 187 606 c 1,25,-1
 187 359 l 1,16,-1
187 330 m 1,26,-1
 187 45 l 1,27,28
 219 35 219 35 286 35 c 128,-1,29
 353 35 353 35 405 72 c 128,-1,30
 457 109 457 109 457 175 c 128,-1,31
 457 241 457 241 400 285.5 c 128,-1,32
 343 330 343 330 263 330 c 2,33,-1
 187 330 l 1,26,-1
EndSplineSet
EndChar

StartChar: C
Encoding: 67 67 38
Width: 632
GlyphClass: 2
Flags: W
LayerCount: 2
Fore
SplineSet
395 -12 m 0,0,1
 240 -12 240 -12 134 72 c 128,-1,2
 28 156 28 156 28 313 c 0,3,4
 28 405 28 405 63 477 c 128,-1,5
 98 549 98 549 155 590 c 0,6,7
 270 674 270 674 413 674 c 0,8,9
 496 674 496 674 586 644 c 1,10,-1
 576 576 l 1,11,12
 529 596 529 596 503 606 c 0,13,14
 428 633 428 633 352 633 c 1,15,16
 247 609 247 609 190.5 529 c 128,-1,17
 134 449 134 449 134 329 c 0,18,19
 134 182 134 182 211 102.5 c 128,-1,20
 288 23 288 23 414 23 c 128,-1,21
 540 23 540 23 602 77 c 1,22,-1
 602 22 l 1,23,24
 516 -12 516 -12 395 -12 c 0,0,1
EndSplineSet
EndChar

StartChar: D
Encoding: 68 68 39
Width: 708
GlyphClass: 2
Flags: W
LayerCount: 2
Fore
SplineSet
90 0 m 1,0,-1
 90 662 l 1,1,-1
 279 662 l 2,2,3
 397 662 397 662 492 612 c 0,4,5
 543 586 543 586 581 547 c 128,-1,6
 619 508 619 508 642 447.5 c 128,-1,7
 665 387 665 387 665 313 c 0,8,9
 665 207 665 207 612 134 c 0,10,11
 515 0 515 0 298 0 c 2,12,-1
 90 0 l 1,0,-1
278 34 m 0,13,14
 405 34 405 34 482 109 c 128,-1,15
 559 184 559 184 559 329 c 0,16,17
 559 441 559 441 498 520.5 c 128,-1,18
 437 600 437 600 340 626 c 1,19,20
 253 626 253 626 188 605 c 1,21,-1
 188 43 l 1,22,23
 220 34 220 34 278 34 c 0,13,14
EndSplineSet
EndChar

StartChar: E
Encoding: 69 69 40
Width: 562
GlyphClass: 2
Flags: W
LayerCount: 2
Fore
SplineSet
90 0 m 1,0,-1
 90 662 l 1,1,-1
 491 662 l 1,2,-1
 481 595 l 1,3,-1
 295 626 l 1,4,5
 246 626 246 626 187 609 c 1,6,-1
 187 366 l 1,7,-1
 409 366 l 1,8,-1
 409 328 l 1,9,-1
 187 328 l 1,10,-1
 187 36 l 1,11,-1
 497 67 l 1,12,-1
 487 0 l 1,13,-1
 90 0 l 1,0,-1
EndSplineSet
EndChar

StartChar: F
Encoding: 70 70 41
Width: 481
GlyphClass: 2
Flags: W
LayerCount: 2
Fore
SplineSet
187 366 m 1,0,-1
 399 366 l 1,1,-1
 399 328 l 1,2,-1
 187 328 l 1,3,-1
 187 0 l 1,4,-1
 90 0 l 1,5,-1
 90 662 l 1,6,-1
 481 662 l 1,7,-1
 481 595 l 1,8,-1
 296 626 l 1,9,10
 246 626 246 626 187 609 c 1,11,-1
 187 366 l 1,0,-1
EndSplineSet
PairPos2: "'kern' Horizontal Kerning in Latin lookup 0 per glyph data 1" ellipsis dx=0 dy=0 dh=-92 dv=0 dx=0 dy=0 dh=0 dv=0
PairPos2: "'kern' Horizontal Kerning in Latin lookup 0 per glyph data 1" quotedblbase dx=0 dy=0 dh=-92 dv=0 dx=0 dy=0 dh=0 dv=0
PairPos2: "'kern' Horizontal Kerning in Latin lookup 0 per glyph data 1" quotesinglbase dx=0 dy=0 dh=-92 dv=0 dx=0 dy=0 dh=0 dv=0
PairPos2: "'kern' Horizontal Kerning in Latin lookup 0 per glyph data 1" scaron dx=0 dy=0 dh=-20 dv=0 dx=0 dy=0 dh=0 dv=0
PairPos2: "'kern' Horizontal Kerning in Latin lookup 0 per glyph data 1" oe dx=0 dy=0 dh=-30 dv=0 dx=0 dy=0 dh=0 dv=0
PairPos2: "'kern' Horizontal Kerning in Latin lookup 0 per glyph data 1" dotlessi dx=0 dy=0 dh=-20 dv=0 dx=0 dy=0 dh=0 dv=0
PairPos2: "'kern' Horizontal Kerning in Latin lookup 0 per glyph data 1" udieresis dx=0 dy=0 dh=-20 dv=0 dx=0 dy=0 dh=0 dv=0
PairPos2: "'kern' Horizontal Kerning in Latin lookup 0 per glyph data 1" ucircumflex dx=0 dy=0 dh=-20 dv=0 dx=0 dy=0 dh=0 dv=0
PairPos2: "'kern' Horizontal Kerning in Latin lookup 0 per glyph data 1" uacute dx=0 dy=0 dh=-20 dv=0 dx=0 dy=0 dh=0 dv=0
PairPos2: "'kern' Horizontal Kerning in Latin lookup 0 per glyph data 1" ugrave dx=0 dy=0 dh=-20 dv=0 dx=0 dy=0 dh=0 dv=0
PairPos2: "'kern' Horizontal Kerning in Latin lookup 0 per glyph data 1" oslash dx=0 dy=0 dh=-30 dv=0 dx=0 dy=0 dh=0 dv=0
PairPos2: "'kern' Horizontal Kerning in Latin lookup 0 per glyph data 1" odieresis dx=0 dy=0 dh=-30 dv=0 dx=0 dy=0 dh=0 dv=0
PairPos2: "'kern' Horizontal Kerning in Latin lookup 0 per glyph data 1" otilde dx=0 dy=0 dh=-30 dv=0 dx=0 dy=0 dh=0 dv=0
PairPos2: "'kern' Horizontal Kerning in Latin lookup 0 per glyph data 1" ocircumflex dx=0 dy=0 dh=-30 dv=0 dx=0 dy=0 dh=0 dv=0
PairPos2: "'kern' Horizontal Kerning in Latin lookup 0 per glyph data 1" oacute dx=0 dy=0 dh=-30 dv=0 dx=0 dy=0 dh=0 dv=0
PairPos2: "'kern' Horizontal Kerning in Latin lookup 0 per glyph data 1" ograve dx=0 dy=0 dh=-30 dv=0 dx=0 dy=0 dh=0 dv=0
PairPos2: "'kern' Horizontal Kerning in Latin lookup 0 per glyph data 1" ntilde dx=0 dy=0 dh=-20 dv=0 dx=0 dy=0 dh=0 dv=0
PairPos2: "'kern' Horizontal Kerning in Latin lookup 0 per glyph data 1" idieresis dx=0 dy=0 dh=65 dv=0 dx=0 dy=0 dh=0 dv=0
PairPos2: "'kern' Horizontal Kerning in Latin lookup 0 per glyph data 1" igrave dx=0 dy=0 dh=50 dv=0 dx=0 dy=0 dh=0 dv=0
PairPos2: "'kern' Horizontal Kerning in Latin lookup 0 per glyph data 1" edieresis dx=0 dy=0 dh=-30 dv=0 dx=0 dy=0 dh=0 dv=0
PairPos2: "'kern' Horizontal Kerning in Latin lookup 0 per glyph data 1" ecircumflex dx=0 dy=0 dh=-30 dv=0 dx=0 dy=0 dh=0 dv=0
PairPos2: "'kern' Horizontal Kerning in Latin lookup 0 per glyph data 1" eacute dx=0 dy=0 dh=-30 dv=0 dx=0 dy=0 dh=0 dv=0
PairPos2: "'kern' Horizontal Kerning in Latin lookup 0 per glyph data 1" egrave dx=0 dy=0 dh=-30 dv=0 dx=0 dy=0 dh=0 dv=0
PairPos2: "'kern' Horizontal Kerning in Latin lookup 0 per glyph data 1" ccedilla dx=0 dy=0 dh=-30 dv=0 dx=0 dy=0 dh=0 dv=0
PairPos2: "'kern' Horizontal Kerning in Latin lookup 0 per glyph data 1" ae dx=0 dy=0 dh=-40 dv=0 dx=0 dy=0 dh=0 dv=0
PairPos2: "'kern' Horizontal Kerning in Latin lookup 0 per glyph data 1" aring dx=0 dy=0 dh=-40 dv=0 dx=0 dy=0 dh=0 dv=0
PairPos2: "'kern' Horizontal Kerning in Latin lookup 0 per glyph data 1" adieresis dx=0 dy=0 dh=-40 dv=0 dx=0 dy=0 dh=0 dv=0
PairPos2: "'kern' Horizontal Kerning in Latin lookup 0 per glyph data 1" atilde dx=0 dy=0 dh=-40 dv=0 dx=0 dy=0 dh=0 dv=0
PairPos2: "'kern' Horizontal Kerning in Latin lookup 0 per glyph data 1" acircumflex dx=0 dy=0 dh=-40 dv=0 dx=0 dy=0 dh=0 dv=0
PairPos2: "'kern' Horizontal Kerning in Latin lookup 0 per glyph data 1" aacute dx=0 dy=0 dh=-40 dv=0 dx=0 dy=0 dh=0 dv=0
PairPos2: "'kern' Horizontal Kerning in Latin lookup 0 per glyph data 1" agrave dx=0 dy=0 dh=-40 dv=0 dx=0 dy=0 dh=0 dv=0
PairPos2: "'kern' Horizontal Kerning in Latin lookup 0 per glyph data 1" AE dx=0 dy=0 dh=-140 dv=0 dx=0 dy=0 dh=0 dv=0
PairPos2: "'kern' Horizontal Kerning in Latin lookup 0 per glyph data 1" Aring dx=0 dy=0 dh=-100 dv=0 dx=0 dy=0 dh=0 dv=0
PairPos2: "'kern' Horizontal Kerning in Latin lookup 0 per glyph data 1" Adieresis dx=0 dy=0 dh=-100 dv=0 dx=0 dy=0 dh=0 dv=0
PairPos2: "'kern' Horizontal Kerning in Latin lookup 0 per glyph data 1" Atilde dx=0 dy=0 dh=-100 dv=0 dx=0 dy=0 dh=0 dv=0
PairPos2: "'kern' Horizontal Kerning in Latin lookup 0 per glyph data 1" Acircumflex dx=0 dy=0 dh=-100 dv=0 dx=0 dy=0 dh=0 dv=0
PairPos2: "'kern' Horizontal Kerning in Latin lookup 0 per glyph data 1" Aacute dx=0 dy=0 dh=-100 dv=0 dx=0 dy=0 dh=0 dv=0
PairPos2: "'kern' Horizontal Kerning in Latin lookup 0 per glyph data 1" Agrave dx=0 dy=0 dh=-100 dv=0 dx=0 dy=0 dh=0 dv=0
PairPos2: "'kern' Horizontal Kerning in Latin lookup 0 per glyph data 1" mu dx=0 dy=0 dh=-20 dv=0 dx=0 dy=0 dh=0 dv=0
PairPos2: "'kern' Horizontal Kerning in Latin lookup 0 per glyph data 1" z dx=0 dy=0 dh=-20 dv=0 dx=0 dy=0 dh=0 dv=0
PairPos2: "'kern' Horizontal Kerning in Latin lookup 0 per glyph data 1" u dx=0 dy=0 dh=-20 dv=0 dx=0 dy=0 dh=0 dv=0
PairPos2: "'kern' Horizontal Kerning in Latin lookup 0 per glyph data 1" t dx=0 dy=0 dh=-20 dv=0 dx=0 dy=0 dh=0 dv=0
PairPos2: "'kern' Horizontal Kerning in Latin lookup 0 per glyph data 1" s dx=0 dy=0 dh=-20 dv=0 dx=0 dy=0 dh=0 dv=0
PairPos2: "'kern' Horizontal Kerning in Latin lookup 0 per glyph data 1" r dx=0 dy=0 dh=-20 dv=0 dx=0 dy=0 dh=0 dv=0
PairPos2: "'kern' Horizontal Kerning in Latin lookup 0 per glyph data 1" q dx=0 dy=0 dh=-30 dv=0 dx=0 dy=0 dh=0 dv=0
PairPos2: "'kern' Horizontal Kerning in Latin lookup 0 per glyph data 1" p dx=0 dy=0 dh=-20 dv=0 dx=0 dy=0 dh=0 dv=0
PairPos2: "'kern' Horizontal Kerning in Latin lookup 0 per glyph data 1" o dx=0 dy=0 dh=-30 dv=0 dx=0 dy=0 dh=0 dv=0
PairPos2: "'kern' Horizontal Kerning in Latin lookup 0 per glyph data 1" n dx=0 dy=0 dh=-20 dv=0 dx=0 dy=0 dh=0 dv=0
PairPos2: "'kern' Horizontal Kerning in Latin lookup 0 per glyph data 1" m dx=0 dy=0 dh=-20 dv=0 dx=0 dy=0 dh=0 dv=0
PairPos2: "'kern' Horizontal Kerning in Latin lookup 0 per glyph data 1" e dx=0 dy=0 dh=-30 dv=0 dx=0 dy=0 dh=0 dv=0
PairPos2: "'kern' Horizontal Kerning in Latin lookup 0 per glyph data 1" d dx=0 dy=0 dh=-30 dv=0 dx=0 dy=0 dh=0 dv=0
PairPos2: "'kern' Horizontal Kerning in Latin lookup 0 per glyph data 1" c dx=0 dy=0 dh=-30 dv=0 dx=0 dy=0 dh=0 dv=0
PairPos2: "'kern' Horizontal Kerning in Latin lookup 0 per glyph data 1" a dx=0 dy=0 dh=-40 dv=0 dx=0 dy=0 dh=0 dv=0
PairPos2: "'kern' Horizontal Kerning in Latin lookup 0 per glyph data 1" A dx=0 dy=0 dh=-100 dv=0 dx=0 dy=0 dh=0 dv=0
PairPos2: "'kern' Horizontal Kerning in Latin lookup 0 per glyph data 1" period dx=0 dy=0 dh=-92 dv=0 dx=0 dy=0 dh=0 dv=0
PairPos2: "'kern' Horizontal Kerning in Latin lookup 0 per glyph data 1" comma dx=0 dy=0 dh=-92 dv=0 dx=0 dy=0 dh=0 dv=0
EndChar

StartChar: G
Encoding: 71 71 42
Width: 680
GlyphClass: 2
Flags: W
LayerCount: 2
Fore
SplineSet
509 285 m 1,0,-1
 606 285 l 1,1,-1
 606 22 l 1,2,3
 520 -12 520 -12 399 -12 c 0,4,5
 252 -12 252 -12 146 66 c 0,6,7
 94 105 94 105 63 168.5 c 128,-1,8
 32 232 32 232 32 309 c 128,-1,9
 32 386 32 386 56 447.5 c 128,-1,10
 80 509 80 509 118.5 550 c 128,-1,11
 157 591 157 591 208 620 c 0,12,13
 303 674 303 674 417 674 c 0,14,15
 461 674 461 674 512 664 c 128,-1,16
 563 654 563 654 590 643 c 1,17,-1
 580 576 l 1,18,19
 445 633 445 633 356 633 c 1,20,21
 255 607 255 607 196.5 526 c 128,-1,22
 138 445 138 445 138 328 c 0,23,24
 138 182 138 182 215 102.5 c 128,-1,25
 292 23 292 23 418 23 c 0,26,27
 468 23 468 23 509 33 c 1,28,-1
 509 285 l 1,0,-1
EndSplineSet
EndChar

StartChar: H
Encoding: 72 72 43
Width: 677
GlyphClass: 2
Flags: W
LayerCount: 2
Fore
SplineSet
187 328 m 1,0,-1
 187 0 l 1,1,-1
 90 0 l 1,2,-1
 90 662 l 1,3,-1
 187 662 l 1,4,-1
 187 366 l 1,5,-1
 490 366 l 1,6,-1
 490 662 l 1,7,-1
 587 662 l 1,8,-1
 587 0 l 1,9,-1
 490 0 l 1,10,-1
 490 328 l 1,11,-1
 187 328 l 1,0,-1
EndSplineSet
EndChar

StartChar: I
Encoding: 73 73 44
Width: 272
GlyphClass: 2
Flags: W
LayerCount: 2
Fore
SplineSet
182 662 m 1,0,-1
 182 0 l 1,1,-1
 90 0 l 1,2,-1
 90 662 l 1,3,-1
 182 662 l 1,0,-1
EndSplineSet
EndChar

StartChar: J
Encoding: 74 74 45
Width: 389
GlyphClass: 2
Flags: W
LayerCount: 2
Fore
SplineSet
179 41 m 2,0,-1
 179 662 l 1,1,-1
 278 662 l 1,2,-1
 278 41 l 2,3,4
 278 -69 278 -69 210.5 -146.5 c 128,-1,5
 143 -224 143 -224 47 -224 c 0,6,7
 -4 -224 -4 -224 -53 -210 c 1,8,-1
 -43 -132 l 1,9,10
 -16 -150 -16 -150 26 -163.5 c 128,-1,11
 68 -177 68 -177 98 -177 c 1,12,13
 132 -156 132 -156 155.5 -93.5 c 128,-1,14
 179 -31 179 -31 179 41 c 2,0,-1
EndSplineSet
EndChar

StartChar: K
Encoding: 75 75 46
Width: 609
GlyphClass: 2
Flags: W
LayerCount: 2
Fore
SplineSet
192 0 m 1,0,-1
 90 0 l 1,1,-1
 90 662 l 1,2,-1
 192 662 l 1,3,-1
 192 336 l 1,4,-1
 501 662 l 1,5,-1
 567 662 l 1,6,-1
 254 354 l 1,7,-1
 609 0 l 1,8,-1
 481 -13 l 1,9,-1
 192 326 l 1,10,-1
 192 0 l 1,0,-1
EndSplineSet
EndChar

StartChar: L
Encoding: 76 76 47
Width: 487
GlyphClass: 2
Flags: W
LayerCount: 2
Fore
SplineSet
90 0 m 1,0,-1
 90 662 l 1,1,-1
 188 662 l 1,2,-1
 188 54 l 1,3,4
 249 36 249 36 286 36 c 1,5,-1
 467 67 l 1,6,-1
 455 0 l 1,7,-1
 90 0 l 1,0,-1
EndSplineSet
EndChar

StartChar: M
Encoding: 77 77 48
Width: 889
GlyphClass: 2
Flags: W
LayerCount: 2
Fore
SplineSet
443 157 m 1,0,-1
 664 662 l 1,1,-1
 766 662 l 1,2,-1
 803 0 l 1,3,-1
 701 0 l 1,4,-1
 674 569 l 1,5,-1
 670 569 l 1,6,-1
 418 0 l 1,7,-1
 404 0 l 1,8,-1
 157 546 l 1,9,-1
 153 546 l 1,10,-1
 126 0 l 1,11,-1
 82 0 l 1,12,-1
 119 662 l 1,13,-1
 212 662 l 1,14,-1
 443 157 l 1,0,-1
EndSplineSet
EndChar

StartChar: N
Encoding: 78 78 49
Width: 683
GlyphClass: 2
Flags: W
LayerCount: 2
Fore
SplineSet
593 -11 m 1,0,-1
 576 -11 l 1,1,-1
 138 537 l 1,2,-1
 134 537 l 1,3,-1
 134 0 l 1,4,-1
 90 0 l 1,5,-1
 90 662 l 1,6,-1
 164 662 l 1,7,-1
 545 181 l 1,8,-1
 549 181 l 1,9,-1
 549 662 l 1,10,-1
 593 662 l 1,11,-1
 593 -11 l 1,0,-1
EndSplineSet
EndChar

StartChar: O
Encoding: 79 79 50
Width: 725
GlyphClass: 2
Flags: W
LayerCount: 2
Fore
SplineSet
391 674 m 0,0,1
 521 674 521 674 606 588.5 c 128,-1,2
 691 503 691 503 691 351 c 0,3,4
 691 253 691 253 657 179.5 c 128,-1,5
 623 106 623 106 568 66 c 0,6,7
 461 -12 461 -12 332 -12 c 128,-1,8
 203 -12 203 -12 118.5 74.5 c 128,-1,9
 34 161 34 161 34 313 c 0,10,11
 34 392 34 392 56.5 455.5 c 128,-1,12
 79 519 79 519 115.5 559 c 128,-1,13
 152 599 152 599 200 626 c 0,14,15
 288 674 288 674 391 674 c 0,0,1
260 45.5 m 128,-1,17
 304 21 304 21 361.5 21 c 128,-1,18
 419 21 419 21 464 50 c 128,-1,19
 509 79 509 79 534 126 c 0,20,21
 585 220 585 220 585 328 c 0,22,23
 585 461 585 461 532 542 c 0,24,25
 473 633 473 633 337 633 c 1,26,27
 240 599 240 599 190 516 c 128,-1,28
 140 433 140 433 140 328 c 0,29,30
 140 200 140 200 190 114 c 0,31,16
 216 70 216 70 260 45.5 c 128,-1,17
EndSplineSet
EndChar

StartChar: P
Encoding: 80 80 51
Width: 546
GlyphClass: 2
Flags: W
LayerCount: 2
Fore
SplineSet
535 490 m 0,0,1
 535 394 535 394 464.5 344.5 c 128,-1,2
 394 295 394 295 273 295 c 2,3,-1
 187 295 l 1,4,-1
 187 0 l 1,5,-1
 90 0 l 1,6,-1
 90 662 l 1,7,-1
 305 662 l 2,8,9
 406 662 406 662 470.5 616 c 128,-1,10
 535 570 535 570 535 490 c 0,0,1
187 324 m 1,11,-1
 276 324 l 2,12,13
 323 324 323 324 356.5 342 c 128,-1,14
 390 360 390 360 405 388 c 0,15,16
 432 438 432 438 432 485 c 0,17,18
 432 508 432 508 420 540 c 0,19,20
 396 606 396 606 321 626 c 1,21,22
 249 626 249 626 187 609 c 1,23,-1
 187 324 l 1,11,-1
EndSplineSet
PairPos2: "'kern' Horizontal Kerning in Latin lookup 0 per glyph data 1" ellipsis dx=0 dy=0 dh=-129 dv=0 dx=0 dy=0 dh=0 dv=0
PairPos2: "'kern' Horizontal Kerning in Latin lookup 0 per glyph data 1" quotedblbase dx=0 dy=0 dh=-129 dv=0 dx=0 dy=0 dh=0 dv=0
PairPos2: "'kern' Horizontal Kerning in Latin lookup 0 per glyph data 1" quotesinglbase dx=0 dy=0 dh=-129 dv=0 dx=0 dy=0 dh=0 dv=0
PairPos2: "'kern' Horizontal Kerning in Latin lookup 0 per glyph data 1" idieresis dx=0 dy=0 dh=43 dv=0 dx=0 dy=0 dh=0 dv=0
PairPos2: "'kern' Horizontal Kerning in Latin lookup 0 per glyph data 1" AE dx=0 dy=0 dh=-85 dv=0 dx=0 dy=0 dh=0 dv=0
PairPos2: "'kern' Horizontal Kerning in Latin lookup 0 per glyph data 1" Aring dx=0 dy=0 dh=-45 dv=0 dx=0 dy=0 dh=0 dv=0
PairPos2: "'kern' Horizontal Kerning in Latin lookup 0 per glyph data 1" Adieresis dx=0 dy=0 dh=-45 dv=0 dx=0 dy=0 dh=0 dv=0
PairPos2: "'kern' Horizontal Kerning in Latin lookup 0 per glyph data 1" Atilde dx=0 dy=0 dh=-45 dv=0 dx=0 dy=0 dh=0 dv=0
PairPos2: "'kern' Horizontal Kerning in Latin lookup 0 per glyph data 1" Acircumflex dx=0 dy=0 dh=-45 dv=0 dx=0 dy=0 dh=0 dv=0
PairPos2: "'kern' Horizontal Kerning in Latin lookup 0 per glyph data 1" Aacute dx=0 dy=0 dh=-45 dv=0 dx=0 dy=0 dh=0 dv=0
PairPos2: "'kern' Horizontal Kerning in Latin lookup 0 per glyph data 1" Agrave dx=0 dy=0 dh=-45 dv=0 dx=0 dy=0 dh=0 dv=0
PairPos2: "'kern' Horizontal Kerning in Latin lookup 0 per glyph data 1" A dx=0 dy=0 dh=-45 dv=0 dx=0 dy=0 dh=0 dv=0
PairPos2: "'kern' Horizontal Kerning in Latin lookup 0 per glyph data 1" period dx=0 dy=0 dh=-129 dv=0 dx=0 dy=0 dh=0 dv=0
PairPos2: "'kern' Horizontal Kerning in Latin lookup 0 per glyph data 1" comma dx=0 dy=0 dh=-129 dv=0 dx=0 dy=0 dh=0 dv=0
EndChar

StartChar: Q
Encoding: 81 81 52
Width: 725
GlyphClass: 2
Flags: W
LayerCount: 2
Fore
SplineSet
391 674 m 0,0,1
 521 674 521 674 606 588.5 c 128,-1,2
 691 503 691 503 691 351 c 0,3,4
 691 268 691 268 666.5 202.5 c 128,-1,5
 642 137 642 137 600 96 c 0,6,7
 520 16 520 16 409 -4 c 1,8,-1
 573 -121 l 1,9,-1
 490 -180 l 1,10,-1
 342 -12 l 1,11,-1
 333 -12 l 2,12,13
 203 -12 203 -12 118.5 74.5 c 128,-1,14
 34 161 34 161 34 313 c 0,15,16
 34 392 34 392 56.5 455.5 c 128,-1,17
 79 519 79 519 115.5 559 c 128,-1,18
 152 599 152 599 200 626 c 0,19,20
 288 674 288 674 391 674 c 0,0,1
260 45.5 m 128,-1,22
 304 21 304 21 361.5 21 c 128,-1,23
 419 21 419 21 464 50 c 128,-1,24
 509 79 509 79 534 126 c 0,25,26
 585 220 585 220 585 328 c 0,27,28
 585 461 585 461 532 542 c 0,29,30
 473 633 473 633 337 633 c 1,31,32
 240 599 240 599 190 516 c 128,-1,33
 140 433 140 433 140 328 c 0,34,35
 140 200 140 200 190 114 c 0,36,21
 216 70 216 70 260 45.5 c 128,-1,22
EndSplineSet
EndChar

StartChar: R
Encoding: 82 82 53
Width: 638
GlyphClass: 2
Flags: W
LayerCount: 2
Fore
SplineSet
188 316 m 1,0,-1
 188 0 l 1,1,-1
 90 0 l 1,2,-1
 90 662 l 1,3,-1
 306 662 l 2,4,5
 407 662 407 662 471.5 617 c 128,-1,6
 536 572 536 572 536 498.5 c 128,-1,7
 536 425 536 425 484.5 382.5 c 128,-1,8
 433 340 433 340 345 324 c 1,9,-1
 613 0 l 1,10,-1
 497 -14 l 1,11,-1
 265 316 l 1,12,-1
 188 316 l 1,0,-1
188 346 m 1,13,-1
 252 346 l 2,14,15
 432 346 432 346 432 488 c 0,16,17
 432 512 432 512 420 542 c 0,18,19
 397 605 397 605 322 625 c 1,20,21
 254 625 254 625 188 608 c 1,22,-1
 188 346 l 1,13,-1
EndSplineSet
EndChar

StartChar: S
Encoding: 83 83 54
Width: 556
GlyphClass: 2
Flags: W
LayerCount: 2
Fore
SplineSet
162 547 m 0,0,1
 162 503 162 503 196.5 465.5 c 128,-1,2
 231 428 231 428 280.5 399.5 c 128,-1,3
 330 371 330 371 379 341.5 c 128,-1,4
 428 312 428 312 462.5 269 c 128,-1,5
 497 226 497 226 497 174 c 0,6,7
 497 92 497 92 436.5 40 c 128,-1,8
 376 -12 376 -12 273 -12 c 128,-1,9
 170 -12 170 -12 69 27 c 1,10,-1
 69 74 l 1,11,12
 171 23 171 23 242.5 23 c 128,-1,13
 314 23 314 23 354 58 c 128,-1,14
 394 93 394 93 394 155 c 0,15,16
 394 197 394 197 361 231.5 c 128,-1,17
 328 266 328 266 281 291.5 c 128,-1,18
 234 317 234 317 187 344 c 128,-1,19
 140 371 140 371 107 412.5 c 128,-1,20
 74 454 74 454 74 513 c 128,-1,21
 74 572 74 572 126.5 623 c 128,-1,22
 179 674 179 674 283 674 c 0,23,24
 351 674 351 674 455 643 c 1,25,-1
 445 575 l 1,26,27
 310 633 310 633 214 633 c 1,28,29
 162 608 162 608 162 547 c 0,0,1
EndSplineSet
EndChar

StartChar: T
Encoding: 84 84 55
Width: 535
GlyphClass: 2
Flags: W
LayerCount: 2
Fore
SplineSet
316 0 m 1,0,-1
 219 0 l 1,1,-1
 219 614 l 1,2,3
 185 622 185 622 151 622 c 1,4,-1
 16 591 l 1,5,-1
 10 662 l 1,6,-1
 525 662 l 1,7,-1
 520 591 l 1,8,-1
 384 622 l 1,9,10
 350 622 350 622 316 614 c 1,11,-1
 316 0 l 1,0,-1
EndSplineSet
PairPos2: "'kern' Horizontal Kerning in Latin lookup 0 per glyph data 1" ellipsis dx=0 dy=0 dh=-55 dv=0 dx=0 dy=0 dh=0 dv=0
PairPos2: "'kern' Horizontal Kerning in Latin lookup 0 per glyph data 1" quotedblbase dx=0 dy=0 dh=-55 dv=0 dx=0 dy=0 dh=0 dv=0
PairPos2: "'kern' Horizontal Kerning in Latin lookup 0 per glyph data 1" quotesinglbase dx=0 dy=0 dh=-55 dv=0 dx=0 dy=0 dh=0 dv=0
PairPos2: "'kern' Horizontal Kerning in Latin lookup 0 per glyph data 1" scaron dx=0 dy=0 dh=-120 dv=0 dx=0 dy=0 dh=0 dv=0
PairPos2: "'kern' Horizontal Kerning in Latin lookup 0 per glyph data 1" oe dx=0 dy=0 dh=-75 dv=0 dx=0 dy=0 dh=0 dv=0
PairPos2: "'kern' Horizontal Kerning in Latin lookup 0 per glyph data 1" dotlessi dx=0 dy=0 dh=-100 dv=0 dx=0 dy=0 dh=0 dv=0
PairPos2: "'kern' Horizontal Kerning in Latin lookup 0 per glyph data 1" ydieresis dx=0 dy=0 dh=-75 dv=0 dx=0 dy=0 dh=0 dv=0
PairPos2: "'kern' Horizontal Kerning in Latin lookup 0 per glyph data 1" yacute dx=0 dy=0 dh=-75 dv=0 dx=0 dy=0 dh=0 dv=0
PairPos2: "'kern' Horizontal Kerning in Latin lookup 0 per glyph data 1" udieresis dx=0 dy=0 dh=-85 dv=0 dx=0 dy=0 dh=0 dv=0
PairPos2: "'kern' Horizontal Kerning in Latin lookup 0 per glyph data 1" ucircumflex dx=0 dy=0 dh=-85 dv=0 dx=0 dy=0 dh=0 dv=0
PairPos2: "'kern' Horizontal Kerning in Latin lookup 0 per glyph data 1" uacute dx=0 dy=0 dh=-85 dv=0 dx=0 dy=0 dh=0 dv=0
PairPos2: "'kern' Horizontal Kerning in Latin lookup 0 per glyph data 1" ugrave dx=0 dy=0 dh=-85 dv=0 dx=0 dy=0 dh=0 dv=0
PairPos2: "'kern' Horizontal Kerning in Latin lookup 0 per glyph data 1" oslash dx=0 dy=0 dh=-75 dv=0 dx=0 dy=0 dh=0 dv=0
PairPos2: "'kern' Horizontal Kerning in Latin lookup 0 per glyph data 1" odieresis dx=0 dy=0 dh=-75 dv=0 dx=0 dy=0 dh=0 dv=0
PairPos2: "'kern' Horizontal Kerning in Latin lookup 0 per glyph data 1" otilde dx=0 dy=0 dh=-75 dv=0 dx=0 dy=0 dh=0 dv=0
PairPos2: "'kern' Horizontal Kerning in Latin lookup 0 per glyph data 1" ocircumflex dx=0 dy=0 dh=-75 dv=0 dx=0 dy=0 dh=0 dv=0
PairPos2: "'kern' Horizontal Kerning in Latin lookup 0 per glyph data 1" oacute dx=0 dy=0 dh=-75 dv=0 dx=0 dy=0 dh=0 dv=0
PairPos2: "'kern' Horizontal Kerning in Latin lookup 0 per glyph data 1" ograve dx=0 dy=0 dh=-75 dv=0 dx=0 dy=0 dh=0 dv=0
PairPos2: "'kern' Horizontal Kerning in Latin lookup 0 per glyph data 1" ntilde dx=0 dy=0 dh=-100 dv=0 dx=0 dy=0 dh=0 dv=0
PairPos2: "'kern' Horizontal Kerning in Latin lookup 0 per glyph data 1" idieresis dx=0 dy=0 dh=20 dv=0 dx=0 dy=0 dh=0 dv=0
PairPos2: "'kern' Horizontal Kerning in Latin lookup 0 per glyph data 1" icircumflex dx=0 dy=0 dh=-30 dv=0 dx=0 dy=0 dh=0 dv=0
PairPos2: "'kern' Horizontal Kerning in Latin lookup 0 per glyph data 1" iacute dx=0 dy=0 dh=-30 dv=0 dx=0 dy=0 dh=0 dv=0
PairPos2: "'kern' Horizontal Kerning in Latin lookup 0 per glyph data 1" igrave dx=0 dy=0 dh=20 dv=0 dx=0 dy=0 dh=0 dv=0
PairPos2: "'kern' Horizontal Kerning in Latin lookup 0 per glyph data 1" edieresis dx=0 dy=0 dh=-75 dv=0 dx=0 dy=0 dh=0 dv=0
PairPos2: "'kern' Horizontal Kerning in Latin lookup 0 per glyph data 1" ecircumflex dx=0 dy=0 dh=-75 dv=0 dx=0 dy=0 dh=0 dv=0
PairPos2: "'kern' Horizontal Kerning in Latin lookup 0 per glyph data 1" eacute dx=0 dy=0 dh=-75 dv=0 dx=0 dy=0 dh=0 dv=0
PairPos2: "'kern' Horizontal Kerning in Latin lookup 0 per glyph data 1" egrave dx=0 dy=0 dh=-75 dv=0 dx=0 dy=0 dh=0 dv=0
PairPos2: "'kern' Horizontal Kerning in Latin lookup 0 per glyph data 1" ccedilla dx=0 dy=0 dh=-75 dv=0 dx=0 dy=0 dh=0 dv=0
PairPos2: "'kern' Horizontal Kerning in Latin lookup 0 per glyph data 1" ae dx=0 dy=0 dh=-45 dv=0 dx=0 dy=0 dh=0 dv=0
PairPos2: "'kern' Horizontal Kerning in Latin lookup 0 per glyph data 1" aring dx=0 dy=0 dh=-45 dv=0 dx=0 dy=0 dh=0 dv=0
PairPos2: "'kern' Horizontal Kerning in Latin lookup 0 per glyph data 1" adieresis dx=0 dy=0 dh=-45 dv=0 dx=0 dy=0 dh=0 dv=0
PairPos2: "'kern' Horizontal Kerning in Latin lookup 0 per glyph data 1" atilde dx=0 dy=0 dh=-45 dv=0 dx=0 dy=0 dh=0 dv=0
PairPos2: "'kern' Horizontal Kerning in Latin lookup 0 per glyph data 1" acircumflex dx=0 dy=0 dh=-45 dv=0 dx=0 dy=0 dh=0 dv=0
PairPos2: "'kern' Horizontal Kerning in Latin lookup 0 per glyph data 1" aacute dx=0 dy=0 dh=-45 dv=0 dx=0 dy=0 dh=0 dv=0
PairPos2: "'kern' Horizontal Kerning in Latin lookup 0 per glyph data 1" agrave dx=0 dy=0 dh=-45 dv=0 dx=0 dy=0 dh=0 dv=0
PairPos2: "'kern' Horizontal Kerning in Latin lookup 0 per glyph data 1" AE dx=0 dy=0 dh=-100 dv=0 dx=0 dy=0 dh=0 dv=0
PairPos2: "'kern' Horizontal Kerning in Latin lookup 0 per glyph data 1" Aring dx=0 dy=0 dh=-60 dv=0 dx=0 dy=0 dh=0 dv=0
PairPos2: "'kern' Horizontal Kerning in Latin lookup 0 per glyph data 1" Adieresis dx=0 dy=0 dh=-60 dv=0 dx=0 dy=0 dh=0 dv=0
PairPos2: "'kern' Horizontal Kerning in Latin lookup 0 per glyph data 1" Atilde dx=0 dy=0 dh=-60 dv=0 dx=0 dy=0 dh=0 dv=0
PairPos2: "'kern' Horizontal Kerning in Latin lookup 0 per glyph data 1" Acircumflex dx=0 dy=0 dh=-60 dv=0 dx=0 dy=0 dh=0 dv=0
PairPos2: "'kern' Horizontal Kerning in Latin lookup 0 per glyph data 1" Aacute dx=0 dy=0 dh=-60 dv=0 dx=0 dy=0 dh=0 dv=0
PairPos2: "'kern' Horizontal Kerning in Latin lookup 0 per glyph data 1" Agrave dx=0 dy=0 dh=-60 dv=0 dx=0 dy=0 dh=0 dv=0
PairPos2: "'kern' Horizontal Kerning in Latin lookup 0 per glyph data 1" mu dx=0 dy=0 dh=-85 dv=0 dx=0 dy=0 dh=0 dv=0
PairPos2: "'kern' Horizontal Kerning in Latin lookup 0 per glyph data 1" z dx=0 dy=0 dh=-100 dv=0 dx=0 dy=0 dh=0 dv=0
PairPos2: "'kern' Horizontal Kerning in Latin lookup 0 per glyph data 1" y dx=0 dy=0 dh=-75 dv=0 dx=0 dy=0 dh=0 dv=0
PairPos2: "'kern' Horizontal Kerning in Latin lookup 0 per glyph data 1" w dx=0 dy=0 dh=-75 dv=0 dx=0 dy=0 dh=0 dv=0
PairPos2: "'kern' Horizontal Kerning in Latin lookup 0 per glyph data 1" v dx=0 dy=0 dh=-75 dv=0 dx=0 dy=0 dh=0 dv=0
PairPos2: "'kern' Horizontal Kerning in Latin lookup 0 per glyph data 1" u dx=0 dy=0 dh=-85 dv=0 dx=0 dy=0 dh=0 dv=0
PairPos2: "'kern' Horizontal Kerning in Latin lookup 0 per glyph data 1" t dx=0 dy=0 dh=-100 dv=0 dx=0 dy=0 dh=0 dv=0
PairPos2: "'kern' Horizontal Kerning in Latin lookup 0 per glyph data 1" s dx=0 dy=0 dh=-120 dv=0 dx=0 dy=0 dh=0 dv=0
PairPos2: "'kern' Horizontal Kerning in Latin lookup 0 per glyph data 1" r dx=0 dy=0 dh=-100 dv=0 dx=0 dy=0 dh=0 dv=0
PairPos2: "'kern' Horizontal Kerning in Latin lookup 0 per glyph data 1" q dx=0 dy=0 dh=-75 dv=0 dx=0 dy=0 dh=0 dv=0
PairPos2: "'kern' Horizontal Kerning in Latin lookup 0 per glyph data 1" p dx=0 dy=0 dh=-100 dv=0 dx=0 dy=0 dh=0 dv=0
PairPos2: "'kern' Horizontal Kerning in Latin lookup 0 per glyph data 1" o dx=0 dy=0 dh=-75 dv=0 dx=0 dy=0 dh=0 dv=0
PairPos2: "'kern' Horizontal Kerning in Latin lookup 0 per glyph data 1" n dx=0 dy=0 dh=-100 dv=0 dx=0 dy=0 dh=0 dv=0
PairPos2: "'kern' Horizontal Kerning in Latin lookup 0 per glyph data 1" m dx=0 dy=0 dh=-100 dv=0 dx=0 dy=0 dh=0 dv=0
PairPos2: "'kern' Horizontal Kerning in Latin lookup 0 per glyph data 1" j dx=0 dy=0 dh=-30 dv=0 dx=0 dy=0 dh=0 dv=0
PairPos2: "'kern' Horizontal Kerning in Latin lookup 0 per glyph data 1" i dx=0 dy=0 dh=-30 dv=0 dx=0 dy=0 dh=0 dv=0
PairPos2: "'kern' Horizontal Kerning in Latin lookup 0 per glyph data 1" e dx=0 dy=0 dh=-75 dv=0 dx=0 dy=0 dh=0 dv=0
PairPos2: "'kern' Horizontal Kerning in Latin lookup 0 per glyph data 1" d dx=0 dy=0 dh=-75 dv=0 dx=0 dy=0 dh=0 dv=0
PairPos2: "'kern' Horizontal Kerning in Latin lookup 0 per glyph data 1" c dx=0 dy=0 dh=-75 dv=0 dx=0 dy=0 dh=0 dv=0
PairPos2: "'kern' Horizontal Kerning in Latin lookup 0 per glyph data 1" a dx=0 dy=0 dh=-45 dv=0 dx=0 dy=0 dh=0 dv=0
PairPos2: "'kern' Horizontal Kerning in Latin lookup 0 per glyph data 1" A dx=0 dy=0 dh=-60 dv=0 dx=0 dy=0 dh=0 dv=0
PairPos2: "'kern' Horizontal Kerning in Latin lookup 0 per glyph data 1" semicolon dx=0 dy=0 dh=-55 dv=0 dx=0 dy=0 dh=0 dv=0
PairPos2: "'kern' Horizontal Kerning in Latin lookup 0 per glyph data 1" colon dx=0 dy=0 dh=-55 dv=0 dx=0 dy=0 dh=0 dv=0
PairPos2: "'kern' Horizontal Kerning in Latin lookup 0 per glyph data 1" period dx=0 dy=0 dh=-55 dv=0 dx=0 dy=0 dh=0 dv=0
PairPos2: "'kern' Horizontal Kerning in Latin lookup 0 per glyph data 1" hyphen dx=0 dy=0 dh=-55 dv=0 dx=0 dy=0 dh=0 dv=0
PairPos2: "'kern' Horizontal Kerning in Latin lookup 0 per glyph data 1" comma dx=0 dy=0 dh=-55 dv=0 dx=0 dy=0 dh=0 dv=0
EndChar

StartChar: U
Encoding: 85 85 56
Width: 657
GlyphClass: 2
Flags: W
LayerCount: 2
Fore
SplineSet
582 662 m 1,0,-1
 582 256 l 2,1,2
 582 163 582 163 562 116 c 0,3,4
 553 95 553 95 533.5 68.5 c 128,-1,5
 514 42 514 42 488 26 c 0,6,7
 422 -12 422 -12 323 -12 c 0,8,9
 75 -12 75 -12 75 243 c 2,10,-1
 75 662 l 1,11,-1
 177 662 l 1,12,-1
 177 235 l 2,13,14
 177 206 177 206 178 188 c 128,-1,15
 179 170 179 170 188.5 137 c 128,-1,16
 198 104 198 104 214.5 84 c 128,-1,17
 231 64 231 64 266.5 48 c 128,-1,18
 302 32 302 32 351 32 c 0,19,20
 538 32 538 32 538 232 c 2,21,-1
 538 662 l 1,22,-1
 582 662 l 1,0,-1
EndSplineSet
EndChar

StartChar: V
Encoding: 86 86 57
Width: 597
GlyphClass: 2
Flags: W
LayerCount: 2
Fore
SplineSet
307 -16 m 1,0,-1
 10 662 l 1,1,-1
 119 662 l 1,2,-1
 339 120 l 1,3,-1
 537 662 l 1,4,-1
 587 662 l 1,5,-1
 323 -16 l 1,6,-1
 307 -16 l 1,0,-1
EndSplineSet
PairPos2: "'kern' Horizontal Kerning in Latin lookup 0 per glyph data 1" ellipsis dx=0 dy=0 dh=-55 dv=0 dx=0 dy=0 dh=0 dv=0
PairPos2: "'kern' Horizontal Kerning in Latin lookup 0 per glyph data 1" quotedblbase dx=0 dy=0 dh=-55 dv=0 dx=0 dy=0 dh=0 dv=0
PairPos2: "'kern' Horizontal Kerning in Latin lookup 0 per glyph data 1" quotesinglbase dx=0 dy=0 dh=-55 dv=0 dx=0 dy=0 dh=0 dv=0
PairPos2: "'kern' Horizontal Kerning in Latin lookup 0 per glyph data 1" oe dx=0 dy=0 dh=-30 dv=0 dx=0 dy=0 dh=0 dv=0
PairPos2: "'kern' Horizontal Kerning in Latin lookup 0 per glyph data 1" oslash dx=0 dy=0 dh=-30 dv=0 dx=0 dy=0 dh=0 dv=0
PairPos2: "'kern' Horizontal Kerning in Latin lookup 0 per glyph data 1" odieresis dx=0 dy=0 dh=-30 dv=0 dx=0 dy=0 dh=0 dv=0
PairPos2: "'kern' Horizontal Kerning in Latin lookup 0 per glyph data 1" otilde dx=0 dy=0 dh=-30 dv=0 dx=0 dy=0 dh=0 dv=0
PairPos2: "'kern' Horizontal Kerning in Latin lookup 0 per glyph data 1" ocircumflex dx=0 dy=0 dh=-30 dv=0 dx=0 dy=0 dh=0 dv=0
PairPos2: "'kern' Horizontal Kerning in Latin lookup 0 per glyph data 1" oacute dx=0 dy=0 dh=-30 dv=0 dx=0 dy=0 dh=0 dv=0
PairPos2: "'kern' Horizontal Kerning in Latin lookup 0 per glyph data 1" ograve dx=0 dy=0 dh=-30 dv=0 dx=0 dy=0 dh=0 dv=0
PairPos2: "'kern' Horizontal Kerning in Latin lookup 0 per glyph data 1" edieresis dx=0 dy=0 dh=-30 dv=0 dx=0 dy=0 dh=0 dv=0
PairPos2: "'kern' Horizontal Kerning in Latin lookup 0 per glyph data 1" ecircumflex dx=0 dy=0 dh=-30 dv=0 dx=0 dy=0 dh=0 dv=0
PairPos2: "'kern' Horizontal Kerning in Latin lookup 0 per glyph data 1" eacute dx=0 dy=0 dh=-30 dv=0 dx=0 dy=0 dh=0 dv=0
PairPos2: "'kern' Horizontal Kerning in Latin lookup 0 per glyph data 1" egrave dx=0 dy=0 dh=-30 dv=0 dx=0 dy=0 dh=0 dv=0
PairPos2: "'kern' Horizontal Kerning in Latin lookup 0 per glyph data 1" ccedilla dx=0 dy=0 dh=-30 dv=0 dx=0 dy=0 dh=0 dv=0
PairPos2: "'kern' Horizontal Kerning in Latin lookup 0 per glyph data 1" AE dx=0 dy=0 dh=-65 dv=0 dx=0 dy=0 dh=0 dv=0
PairPos2: "'kern' Horizontal Kerning in Latin lookup 0 per glyph data 1" Aring dx=0 dy=0 dh=-25 dv=0 dx=0 dy=0 dh=0 dv=0
PairPos2: "'kern' Horizontal Kerning in Latin lookup 0 per glyph data 1" Adieresis dx=0 dy=0 dh=-25 dv=0 dx=0 dy=0 dh=0 dv=0
PairPos2: "'kern' Horizontal Kerning in Latin lookup 0 per glyph data 1" Atilde dx=0 dy=0 dh=-25 dv=0 dx=0 dy=0 dh=0 dv=0
PairPos2: "'kern' Horizontal Kerning in Latin lookup 0 per glyph data 1" Acircumflex dx=0 dy=0 dh=-25 dv=0 dx=0 dy=0 dh=0 dv=0
PairPos2: "'kern' Horizontal Kerning in Latin lookup 0 per glyph data 1" Aacute dx=0 dy=0 dh=-25 dv=0 dx=0 dy=0 dh=0 dv=0
PairPos2: "'kern' Horizontal Kerning in Latin lookup 0 per glyph data 1" Agrave dx=0 dy=0 dh=-25 dv=0 dx=0 dy=0 dh=0 dv=0
PairPos2: "'kern' Horizontal Kerning in Latin lookup 0 per glyph data 1" q dx=0 dy=0 dh=-30 dv=0 dx=0 dy=0 dh=0 dv=0
PairPos2: "'kern' Horizontal Kerning in Latin lookup 0 per glyph data 1" o dx=0 dy=0 dh=-30 dv=0 dx=0 dy=0 dh=0 dv=0
PairPos2: "'kern' Horizontal Kerning in Latin lookup 0 per glyph data 1" e dx=0 dy=0 dh=-30 dv=0 dx=0 dy=0 dh=0 dv=0
PairPos2: "'kern' Horizontal Kerning in Latin lookup 0 per glyph data 1" d dx=0 dy=0 dh=-30 dv=0 dx=0 dy=0 dh=0 dv=0
PairPos2: "'kern' Horizontal Kerning in Latin lookup 0 per glyph data 1" c dx=0 dy=0 dh=-30 dv=0 dx=0 dy=0 dh=0 dv=0
PairPos2: "'kern' Horizontal Kerning in Latin lookup 0 per glyph data 1" A dx=0 dy=0 dh=-25 dv=0 dx=0 dy=0 dh=0 dv=0
PairPos2: "'kern' Horizontal Kerning in Latin lookup 0 per glyph data 1" period dx=0 dy=0 dh=-55 dv=0 dx=0 dy=0 dh=0 dv=0
PairPos2: "'kern' Horizontal Kerning in Latin lookup 0 per glyph data 1" comma dx=0 dy=0 dh=-55 dv=0 dx=0 dy=0 dh=0 dv=0
EndChar

StartChar: W
Encoding: 87 87 58
Width: 856
GlyphClass: 2
Flags: W
LayerCount: 2
Fore
SplineSet
796 662 m 1,0,-1
 846 662 l 1,1,-1
 598 -15 l 1,2,-1
 582 -15 l 1,3,-1
 429 395 l 1,4,-1
 279 -15 l 1,5,-1
 263 -15 l 1,6,-1
 10 662 l 1,7,-1
 119 662 l 1,8,-1
 295 120 l 1,9,-1
 407 454 l 1,10,-1
 329 662 l 1,11,-1
 438 662 l 1,12,-1
 614 120 l 1,13,-1
 796 662 l 1,0,-1
EndSplineSet
PairPos2: "'kern' Horizontal Kerning in Latin lookup 0 per glyph data 1" ellipsis dx=0 dy=0 dh=-45 dv=0 dx=0 dy=0 dh=0 dv=0
PairPos2: "'kern' Horizontal Kerning in Latin lookup 0 per glyph data 1" quotedblbase dx=0 dy=0 dh=-45 dv=0 dx=0 dy=0 dh=0 dv=0
PairPos2: "'kern' Horizontal Kerning in Latin lookup 0 per glyph data 1" quotesinglbase dx=0 dy=0 dh=-45 dv=0 dx=0 dy=0 dh=0 dv=0
PairPos2: "'kern' Horizontal Kerning in Latin lookup 0 per glyph data 1" oe dx=0 dy=0 dh=-20 dv=0 dx=0 dy=0 dh=0 dv=0
PairPos2: "'kern' Horizontal Kerning in Latin lookup 0 per glyph data 1" oslash dx=0 dy=0 dh=-20 dv=0 dx=0 dy=0 dh=0 dv=0
PairPos2: "'kern' Horizontal Kerning in Latin lookup 0 per glyph data 1" odieresis dx=0 dy=0 dh=-20 dv=0 dx=0 dy=0 dh=0 dv=0
PairPos2: "'kern' Horizontal Kerning in Latin lookup 0 per glyph data 1" otilde dx=0 dy=0 dh=-20 dv=0 dx=0 dy=0 dh=0 dv=0
PairPos2: "'kern' Horizontal Kerning in Latin lookup 0 per glyph data 1" ocircumflex dx=0 dy=0 dh=-20 dv=0 dx=0 dy=0 dh=0 dv=0
PairPos2: "'kern' Horizontal Kerning in Latin lookup 0 per glyph data 1" oacute dx=0 dy=0 dh=-20 dv=0 dx=0 dy=0 dh=0 dv=0
PairPos2: "'kern' Horizontal Kerning in Latin lookup 0 per glyph data 1" ograve dx=0 dy=0 dh=-20 dv=0 dx=0 dy=0 dh=0 dv=0
PairPos2: "'kern' Horizontal Kerning in Latin lookup 0 per glyph data 1" edieresis dx=0 dy=0 dh=-20 dv=0 dx=0 dy=0 dh=0 dv=0
PairPos2: "'kern' Horizontal Kerning in Latin lookup 0 per glyph data 1" ecircumflex dx=0 dy=0 dh=-20 dv=0 dx=0 dy=0 dh=0 dv=0
PairPos2: "'kern' Horizontal Kerning in Latin lookup 0 per glyph data 1" eacute dx=0 dy=0 dh=-20 dv=0 dx=0 dy=0 dh=0 dv=0
PairPos2: "'kern' Horizontal Kerning in Latin lookup 0 per glyph data 1" egrave dx=0 dy=0 dh=-20 dv=0 dx=0 dy=0 dh=0 dv=0
PairPos2: "'kern' Horizontal Kerning in Latin lookup 0 per glyph data 1" ccedilla dx=0 dy=0 dh=-20 dv=0 dx=0 dy=0 dh=0 dv=0
PairPos2: "'kern' Horizontal Kerning in Latin lookup 0 per glyph data 1" AE dx=0 dy=0 dh=-60 dv=0 dx=0 dy=0 dh=0 dv=0
PairPos2: "'kern' Horizontal Kerning in Latin lookup 0 per glyph data 1" Aring dx=0 dy=0 dh=-20 dv=0 dx=0 dy=0 dh=0 dv=0
PairPos2: "'kern' Horizontal Kerning in Latin lookup 0 per glyph data 1" Adieresis dx=0 dy=0 dh=-20 dv=0 dx=0 dy=0 dh=0 dv=0
PairPos2: "'kern' Horizontal Kerning in Latin lookup 0 per glyph data 1" Atilde dx=0 dy=0 dh=-20 dv=0 dx=0 dy=0 dh=0 dv=0
PairPos2: "'kern' Horizontal Kerning in Latin lookup 0 per glyph data 1" Acircumflex dx=0 dy=0 dh=-20 dv=0 dx=0 dy=0 dh=0 dv=0
PairPos2: "'kern' Horizontal Kerning in Latin lookup 0 per glyph data 1" Aacute dx=0 dy=0 dh=-20 dv=0 dx=0 dy=0 dh=0 dv=0
PairPos2: "'kern' Horizontal Kerning in Latin lookup 0 per glyph data 1" Agrave dx=0 dy=0 dh=-20 dv=0 dx=0 dy=0 dh=0 dv=0
PairPos2: "'kern' Horizontal Kerning in Latin lookup 0 per glyph data 1" q dx=0 dy=0 dh=-20 dv=0 dx=0 dy=0 dh=0 dv=0
PairPos2: "'kern' Horizontal Kerning in Latin lookup 0 per glyph data 1" o dx=0 dy=0 dh=-20 dv=0 dx=0 dy=0 dh=0 dv=0
PairPos2: "'kern' Horizontal Kerning in Latin lookup 0 per glyph data 1" e dx=0 dy=0 dh=-20 dv=0 dx=0 dy=0 dh=0 dv=0
PairPos2: "'kern' Horizontal Kerning in Latin lookup 0 per glyph data 1" d dx=0 dy=0 dh=-20 dv=0 dx=0 dy=0 dh=0 dv=0
PairPos2: "'kern' Horizontal Kerning in Latin lookup 0 per glyph data 1" c dx=0 dy=0 dh=-20 dv=0 dx=0 dy=0 dh=0 dv=0
PairPos2: "'kern' Horizontal Kerning in Latin lookup 0 per glyph data 1" A dx=0 dy=0 dh=-20 dv=0 dx=0 dy=0 dh=0 dv=0
PairPos2: "'kern' Horizontal Kerning in Latin lookup 0 per glyph data 1" period dx=0 dy=0 dh=-45 dv=0 dx=0 dy=0 dh=0 dv=0
PairPos2: "'kern' Horizontal Kerning in Latin lookup 0 per glyph data 1" comma dx=0 dy=0 dh=-45 dv=0 dx=0 dy=0 dh=0 dv=0
EndChar

StartChar: X
Encoding: 88 88 59
Width: 646
GlyphClass: 2
Flags: W
LayerCount: 2
Fore
SplineSet
355 356 m 1,0,-1
 616 0 l 1,1,-1
 491 0 l 1,2,-1
 303 292 l 1,3,-1
 91 0 l 1,4,-1
 30 0 l 1,5,-1
 280 321 l 1,6,-1
 42 662 l 1,7,-1
 167 662 l 1,8,-1
 333 387 l 1,9,-1
 541 662 l 1,10,-1
 602 662 l 1,11,-1
 355 356 l 1,0,-1
EndSplineSet
EndChar

StartChar: Y
Encoding: 89 89 60
Width: 557
GlyphClass: 2
Flags: W
LayerCount: 2
Fore
SplineSet
343 0 m 1,0,-1
 246 0 l 1,1,-1
 246 246 l 1,2,-1
 20 662 l 1,3,-1
 129 662 l 1,4,-1
 314 282 l 1,5,-1
 487 662 l 1,6,-1
 537 662 l 1,7,-1
 343 251 l 1,8,-1
 343 0 l 1,0,-1
EndSplineSet
EndChar

StartChar: Z
Encoding: 90 90 61
Width: 571
GlyphClass: 2
Flags: W
LayerCount: 2
Fore
SplineSet
16 0 m 1,0,-1
 16 10 l 1,1,-1
 398 609 l 1,2,3
 339 626 339 626 289 626 c 1,4,-1
 83 595 l 1,5,-1
 73 662 l 1,6,-1
 541 662 l 1,7,-1
 541 652 l 1,8,-1
 147 40 l 1,9,-1
 506 67 l 1,10,-1
 516 0 l 1,11,-1
 16 0 l 1,0,-1
EndSplineSet
EndChar

StartChar: bracketleft
Encoding: 91 91 62
Width: 333
GlyphClass: 2
Flags: W
LayerCount: 2
Fore
SplineSet
299 636 m 1,0,-1
 164 608 l 1,1,-1
 164 -102 l 1,2,-1
 299 -131 l 1,3,-1
 299 -156 l 1,4,-1
 88 -140 l 1,5,-1
 88 646 l 1,6,-1
 299 662 l 1,7,-1
 299 636 l 1,0,-1
EndSplineSet
EndChar

StartChar: backslash
Encoding: 92 92 63
Width: 278
GlyphClass: 2
Flags: W
LayerCount: 2
Fore
SplineSet
-9 677 m 1,0,-1
 58 677 l 1,1,-1
 287 -14 l 1,2,-1
 219 -14 l 1,3,-1
 -9 677 l 1,0,-1
EndSplineSet
EndChar

StartChar: bracketright
Encoding: 93 93 64
Width: 333
GlyphClass: 2
Flags: W
LayerCount: 2
Fore
SplineSet
34 -130 m 1,0,-1
 169 -102 l 1,1,-1
 169 608 l 1,2,-1
 34 637 l 1,3,-1
 34 662 l 1,4,-1
 245 646 l 1,5,-1
 245 -140 l 1,6,-1
 34 -156 l 1,7,-1
 34 -130 l 1,0,-1
EndSplineSet
EndChar

StartChar: asciicircum
Encoding: 94 94 65
Width: 469
GlyphClass: 2
Flags: W
LayerCount: 2
Fore
SplineSet
92 297 m 1,0,-1
 24 297 l 1,1,-1
 205 662 l 1,2,-1
 265 662 l 1,3,-1
 446 297 l 1,4,-1
 378 297 l 1,5,-1
 235 586 l 1,6,-1
 92 297 l 1,0,-1
EndSplineSet
EndChar

StartChar: underscore
Encoding: 95 95 66
Width: 500
GlyphClass: 2
Flags: W
LayerCount: 2
Fore
SplineSet
0 -75 m 1,0,-1
 500 -75 l 1,1,-1
 500 -125 l 1,2,-1
 0 -125 l 1,3,-1
 0 -75 l 1,0,-1
EndSplineSet
EndChar

StartChar: grave
Encoding: 96 96 67
Width: 333
GlyphClass: 2
Flags: W
LayerCount: 2
Fore
SplineSet
242 507 m 1,0,-1
 202 507 l 1,1,-1
 14 645 l 1,2,-1
 70 695 l 1,3,-1
 242 507 l 1,0,-1
EndSplineSet
EndChar

StartChar: a
Encoding: 97 97 68
Width: 444
GlyphClass: 2
Flags: W
LayerCount: 2
Fore
SplineSet
285 106 m 2,0,-1
 285 209 l 1,1,2
 213 204 213 204 167 177 c 128,-1,3
 121 150 121 150 121 119 c 128,-1,4
 121 88 121 88 137 65.5 c 128,-1,5
 153 43 153 43 178 34 c 1,6,7
 211 40 211 40 248 67 c 128,-1,8
 285 94 285 94 285 106 c 2,0,-1
367 133 m 2,9,10
 367 62 367 62 419 25 c 1,11,-1
 367 -13 l 1,12,-1
 286 60 l 1,13,14
 207 -12 207 -12 140 -12 c 0,15,16
 96 -12 96 -12 64.5 16 c 128,-1,17
 33 44 33 44 33 86.5 c 128,-1,18
 33 129 33 129 58.5 157 c 128,-1,19
 84 185 84 185 126 200 c 0,20,21
 198 227 198 227 285 234 c 1,22,-1
 285 328 l 2,23,24
 285 411 285 411 189 411 c 0,25,26
 134 411 134 411 59 387 c 1,27,-1
 50 412 l 1,28,29
 70 428 70 428 119.5 446 c 128,-1,30
 169 464 169 464 214 464 c 128,-1,31
 259 464 259 464 289.5 452 c 128,-1,32
 320 440 320 440 334.5 425 c 128,-1,33
 349 410 349 410 357 384 c 128,-1,34
 365 358 365 358 366 343 c 128,-1,35
 367 328 367 328 367 303 c 2,36,-1
 367 133 l 2,9,10
EndSplineSet
EndChar

StartChar: b
Encoding: 98 98 69
Width: 500
GlyphClass: 2
Flags: W
LayerCount: 2
Fore
SplineSet
153 389 m 1,0,1
 217 462 217 462 293.5 462 c 128,-1,2
 370 462 370 462 418.5 401 c 128,-1,3
 467 340 467 340 467 230.5 c 128,-1,4
 467 121 467 121 394.5 54 c 128,-1,5
 322 -13 322 -13 218 -13 c 0,6,7
 140 -13 140 -13 69 26 c 1,8,-1
 69 683 l 1,9,-1
 153 683 l 1,10,-1
 153 389 l 1,0,1
153 342 m 2,11,-1
 153 56 l 1,12,13
 204 29 204 29 259 29 c 128,-1,14
 314 29 314 29 347.5 83 c 128,-1,15
 381 137 381 137 381 217 c 128,-1,16
 381 297 381 297 348 345 c 128,-1,17
 315 393 315 393 265 409 c 1,18,19
 238 407 238 407 210.5 392 c 128,-1,20
 183 377 183 377 168 362.5 c 128,-1,21
 153 348 153 348 153 342 c 2,11,-1
EndSplineSet
EndChar

StartChar: c
Encoding: 99 99 70
Width: 406
GlyphClass: 2
Flags: W
LayerCount: 2
Fore
SplineSet
228 -12 m 0,0,1
 141 -12 141 -12 83.5 47.5 c 128,-1,2
 26 107 26 107 26 216 c 128,-1,3
 26 325 26 325 87.5 394.5 c 128,-1,4
 149 464 149 464 244 464 c 0,5,6
 297 464 297 464 363 438 c 1,7,-1
 353 372 l 1,8,9
 265 418 265 418 202 418 c 1,10,11
 150 392 150 392 127 334 c 128,-1,12
 104 276 104 276 104 220 c 0,13,14
 104 144 104 144 148.5 93.5 c 128,-1,15
 193 43 193 43 255 43 c 128,-1,16
 317 43 317 43 369 70 c 1,17,-1
 369 35 l 1,18,19
 297 -12 297 -12 228 -12 c 0,0,1
EndSplineSet
EndChar

StartChar: d
Encoding: 100 100 71
Width: 500
GlyphClass: 2
Flags: W
LayerCount: 2
Fore
SplineSet
424 134 m 2,0,1
 424 65 424 65 475 24 c 1,2,-1
 424 -13 l 1,3,-1
 342 60 l 1,4,5
 302 22 302 22 270 5 c 128,-1,6
 238 -12 238 -12 204 -12 c 128,-1,7
 170 -12 170 -12 144 -2 c 128,-1,8
 118 8 118 8 89.5 31.5 c 128,-1,9
 61 55 61 55 43.5 105.5 c 128,-1,10
 26 156 26 156 26 236 c 128,-1,11
 26 316 26 316 73.5 389.5 c 128,-1,12
 121 463 121 463 204 463 c 0,13,14
 266 463 266 463 339 417 c 1,15,-1
 339 683 l 1,16,-1
 424 683 l 1,17,-1
 424 134 l 2,0,1
339 101 m 2,18,-1
 339 380 l 1,19,20
 286 415 286 415 242 415 c 0,21,22
 184 415 184 415 149 360.5 c 128,-1,23
 114 306 114 306 114 224 c 128,-1,24
 114 142 114 142 139.5 92.5 c 128,-1,25
 165 43 165 43 203 33 c 1,26,27
 238 36 238 36 271.5 50 c 128,-1,28
 305 64 305 64 322 78.5 c 128,-1,29
 339 93 339 93 339 101 c 2,18,-1
EndSplineSet
EndChar

StartChar: e
Encoding: 101 101 72
Width: 469
GlyphClass: 2
Flags: W
LayerCount: 2
Fore
SplineSet
105 246 m 1,0,1
 105 138 105 138 153.5 90.5 c 128,-1,2
 202 43 202 43 271.5 43 c 128,-1,3
 341 43 341 43 400 70 c 1,4,-1
 400 35 l 1,5,6
 318 -12 318 -12 243 -12 c 0,7,8
 146 -12 146 -12 86 47 c 128,-1,9
 26 106 26 106 26 218 c 128,-1,10
 26 330 26 330 92.5 397 c 128,-1,11
 159 464 159 464 253 464 c 0,12,13
 326 464 326 464 375 406.5 c 128,-1,14
 424 349 424 349 424 246 c 1,15,-1
 105 246 l 1,0,1
202 417 m 1,16,17
 167 400 167 400 142 362.5 c 128,-1,18
 117 325 117 325 109 276 c 1,19,-1
 343 276 l 1,20,21
 340 318 340 318 323.5 348 c 128,-1,22
 307 378 307 378 284 392 c 0,23,24
 243 417 243 417 202 417 c 1,16,17
EndSplineSet
EndChar

StartChar: f
Encoding: 102 102 73
Width: 333
GlyphClass: 2
Flags: W
LayerCount: 2
Fore
SplineSet
308 452 m 1,0,-1
 308 416 l 1,1,-1
 187 416 l 1,2,-1
 187 0 l 1,3,-1
 103 0 l 1,4,-1
 103 416 l 1,5,-1
 21 432 l 1,6,-1
 21 452 l 1,7,-1
 104 452 l 1,8,9
 110 558 110 558 160.5 625 c 128,-1,10
 211 692 211 692 297 692 c 0,11,12
 325 692 325 692 373 680 c 1,13,-1
 363 615 l 1,14,15
 341 627 341 627 306.5 636 c 128,-1,16
 272 645 272 645 254 645 c 1,17,18
 220 628 220 628 204.5 569 c 128,-1,19
 189 510 189 510 187 452 c 1,20,-1
 308 452 l 1,0,-1
EndSplineSet
EndChar

StartChar: g
Encoding: 103 103 74
Width: 490
GlyphClass: 2
Flags: W
LayerCount: 2
Fore
SplineSet
160.5 64 m 128,-1,1
 189 57 189 57 270 57 c 128,-1,2
 351 57 351 57 400 39 c 128,-1,3
 449 21 449 21 449 -29 c 0,4,5
 449 -103 449 -103 376.5 -162.5 c 128,-1,6
 304 -222 304 -222 199 -222 c 0,7,8
 123 -222 123 -222 74.5 -193.5 c 128,-1,9
 26 -165 26 -165 26 -112 c 0,10,11
 26 -37 26 -37 108 -1 c 1,12,13
 62 16 62 16 62 62.5 c 128,-1,14
 62 109 62 109 134 164 c 1,15,16
 59 203 59 203 59 291.5 c 128,-1,17
 59 380 59 380 114.5 422 c 128,-1,18
 170 464 170 464 239 464 c 0,19,20
 288 464 288 464 333 437 c 1,21,-1
 421 462 l 1,22,-1
 441 419 l 1,23,-1
 379 388 l 1,24,25
 398 355 398 355 398 311 c 128,-1,26
 398 267 398 267 380.5 233.5 c 128,-1,27
 363 200 363 200 335 182 c 0,28,29
 279 146 279 146 214 146 c 0,30,31
 204 146 204 146 186 148 c 1,32,33
 169 143 169 143 150.5 126 c 128,-1,34
 132 109 132 109 132 90 c 128,-1,0
 132 71 132 71 160.5 64 c 128,-1,1
291.5 392.5 m 128,-1,36
 264 431 264 431 223.5 431 c 128,-1,37
 183 431 183 431 159 396 c 128,-1,38
 135 361 135 361 135 305.5 c 128,-1,39
 135 250 135 250 162 213.5 c 128,-1,40
 189 177 189 177 227 177 c 0,41,42
 319 177 319 177 319 302 c 0,43,35
 319 354 319 354 291.5 392.5 c 128,-1,36
215 -176 m 0,44,45
 298 -176 298 -176 356 -130 c 128,-1,46
 414 -84 414 -84 414 -38 c 1,47,48
 363 -17 363 -17 271.5 -17 c 128,-1,49
 180 -17 180 -17 145 -11 c 1,50,51
 101 -48 101 -48 101 -90 c 0,52,53
 101 -176 101 -176 215 -176 c 0,44,45
EndSplineSet
EndChar

StartChar: h
Encoding: 104 104 75
Width: 503
GlyphClass: 2
Flags: W
LayerCount: 2
Fore
SplineSet
314 462 m 0,0,1
 360 462 360 462 396 428 c 128,-1,2
 432 394 432 394 432 311 c 2,3,-1
 432 0 l 1,4,-1
 348 0 l 1,5,-1
 348 301 l 2,6,7
 348 350 348 350 330.5 374.5 c 128,-1,8
 313 399 313 399 263.5 399 c 128,-1,9
 214 399 214 399 160 346 c 1,10,-1
 160 0 l 1,11,-1
 76 0 l 1,12,-1
 76 683 l 1,13,-1
 157 683 l 1,14,-1
 157 388 l 1,15,16
 236 462 236 462 314 462 c 0,0,1
EndSplineSet
EndChar

StartChar: i
Encoding: 105 105 76
Width: 233
GlyphClass: 2
Flags: W
LayerCount: 2
Fore
SplineSet
75 0 m 1,0,-1
 75 452 l 1,1,-1
 158 452 l 1,2,-1
 158 0 l 1,3,-1
 75 0 l 1,0,-1
79.5 628 m 128,-1,5
 94 643 94 643 115.5 643 c 128,-1,6
 137 643 137 643 152.5 628 c 128,-1,7
 168 613 168 613 168 592 c 128,-1,8
 168 571 168 571 152.5 555 c 128,-1,9
 137 539 137 539 116 539 c 128,-1,10
 95 539 95 539 80 554.5 c 128,-1,11
 65 570 65 570 65 591.5 c 128,-1,4
 65 613 65 613 79.5 628 c 128,-1,5
EndSplineSet
EndChar

StartChar: j
Encoding: 106 106 77
Width: 235
GlyphClass: 2
Flags: W
LayerCount: 2
Fore
SplineSet
154 554 m 128,-1,1
 139 539 139 539 117.5 539 c 128,-1,2
 96 539 96 539 81 554 c 128,-1,3
 66 569 66 569 66 591 c 128,-1,4
 66 613 66 613 81 628 c 128,-1,5
 96 643 96 643 117.5 643 c 128,-1,6
 139 643 139 643 154 628 c 128,-1,7
 169 613 169 613 169 591 c 128,-1,0
 169 569 169 569 154 554 c 128,-1,1
75 452 m 1,8,-1
 160 452 l 1,9,-1
 160 -18 l 2,10,11
 160 -122 160 -122 114 -172.5 c 128,-1,12
 68 -223 68 -223 -6 -223 c 0,13,14
 -39 -223 -39 -223 -82 -208 c 1,15,-1
 -74 -169 l 1,16,17
 -40 -177 -40 -177 -8 -177 c 0,18,19
 38 -177 38 -177 56.5 -144 c 128,-1,20
 75 -111 75 -111 75 -67 c 2,21,-1
 75 452 l 1,8,-1
EndSplineSet
EndChar

StartChar: k
Encoding: 107 107 78
Width: 493
GlyphClass: 2
Flags: W
LayerCount: 2
Fore
SplineSet
159 0 m 1,0,-1
 75 0 l 1,1,-1
 75 683 l 1,2,-1
 159 683 l 1,3,-1
 159 260 l 1,4,-1
 390 452 l 1,5,-1
 456 452 l 1,6,-1
 221 274 l 1,7,-1
 471 0 l 1,8,-1
 371 -13 l 1,9,-1
 159 251 l 1,10,-1
 159 0 l 1,0,-1
EndSplineSet
EndChar

StartChar: l
Encoding: 108 108 79
Width: 234
GlyphClass: 2
Flags: W
LayerCount: 2
Fore
SplineSet
159 683 m 1,0,-1
 159 0 l 1,1,-1
 75 0 l 1,2,-1
 75 683 l 1,3,-1
 159 683 l 1,0,-1
EndSplineSet
EndChar

StartChar: m
Encoding: 109 109 80
Width: 778
GlyphClass: 2
Flags: W
LayerCount: 2
Fore
SplineSet
588 464 m 0,0,1
 706 464 706 464 706 285 c 2,2,-1
 706 0 l 1,3,-1
 622 0 l 1,4,-1
 622 293 l 2,5,6
 622 377 622 377 590 395 c 0,7,8
 574 404 574 404 545.5 404 c 128,-1,9
 517 404 517 404 484.5 386.5 c 128,-1,10
 452 369 452 369 437 347 c 1,11,-1
 437 0 l 1,12,-1
 352 0 l 1,13,-1
 352 298 l 2,14,15
 352 351 352 351 336 377.5 c 128,-1,16
 320 404 320 404 289 404 c 128,-1,17
 258 404 258 404 229.5 390 c 128,-1,18
 201 376 201 376 184 362 c 128,-1,19
 167 348 167 348 167 345 c 2,20,-1
 167 0 l 1,21,-1
 83 0 l 1,22,-1
 83 314 l 2,23,24
 83 382 83 382 32 423 c 1,25,-1
 83 461 l 1,26,-1
 163 388 l 1,27,28
 210 427 210 427 245 445.5 c 128,-1,29
 280 464 280 464 318 464 c 0,30,31
 405 464 405 464 426 383 c 1,32,33
 461 423 461 423 506 443.5 c 128,-1,34
 551 464 551 464 588 464 c 0,0,1
EndSplineSet
EndChar

StartChar: n
Encoding: 110 110 81
Width: 500
GlyphClass: 2
Flags: W
LayerCount: 2
Fore
SplineSet
235.5 446 m 128,-1,1
 267 464 267 464 310 464 c 128,-1,2
 353 464 353 464 389.5 430 c 128,-1,3
 426 396 426 396 426 313 c 2,4,-1
 426 0 l 1,5,-1
 341 0 l 1,6,-1
 341 303 l 2,7,8
 341 352 341 352 323.5 376.5 c 128,-1,9
 306 401 306 401 263.5 401 c 128,-1,10
 221 401 221 401 165 345 c 1,11,-1
 165 0 l 1,12,-1
 80 0 l 1,13,-1
 80 314 l 2,14,15
 80 382 80 382 29 423 c 1,16,-1
 80 461 l 1,17,-1
 162 388 l 1,18,0
 204 428 204 428 235.5 446 c 128,-1,1
EndSplineSet
EndChar

StartChar: o
Encoding: 111 111 82
Width: 500
GlyphClass: 2
Flags: W
LayerCount: 2
Fore
SplineSet
413.5 404 m 128,-1,1
 471 344 471 344 471 239 c 0,2,3
 471 172 471 172 448 121 c 128,-1,4
 425 70 425 70 388 42 c 0,5,6
 317 -12 317 -12 229.5 -12 c 128,-1,7
 142 -12 142 -12 84.5 48 c 128,-1,8
 27 108 27 108 27 213 c 0,9,10
 27 280 27 280 49.5 331 c 128,-1,11
 72 382 72 382 109 410 c 0,12,13
 180 464 180 464 268 464 c 128,-1,0
 356 464 356 464 413.5 404 c 128,-1,1
248 22 m 0,14,15
 292 22 292 22 323 56 c 0,16,17
 379 116 379 116 379 215.5 c 128,-1,18
 379 315 379 315 345 370.5 c 128,-1,19
 311 426 311 426 234 426 c 1,20,21
 177 404 177 404 147.5 348.5 c 128,-1,22
 118 293 118 293 118 214.5 c 128,-1,23
 118 136 118 136 150 79 c 128,-1,24
 182 22 182 22 248 22 c 0,14,15
EndSplineSet
EndChar

StartChar: p
Encoding: 112 112 83
Width: 500
GlyphClass: 2
Flags: W
LayerCount: 2
Fore
SplineSet
233.5 446 m 128,-1,1
 265 464 265 464 298.5 464 c 128,-1,2
 332 464 332 464 358.5 453 c 128,-1,3
 385 442 385 442 413 417.5 c 128,-1,4
 441 393 441 393 458.5 341.5 c 128,-1,5
 476 290 476 290 476 228.5 c 128,-1,6
 476 167 476 167 456 114 c 128,-1,7
 436 61 436 61 393 22 c 128,-1,8
 350 -17 350 -17 289.5 -17 c 128,-1,9
 229 -17 229 -17 160 30 c 1,10,-1
 160 -212 l 1,11,-1
 75 -212 l 1,12,-1
 75 317 l 2,13,14
 75 386 75 386 23 426 c 1,15,-1
 75 464 l 1,16,-1
 160 388 l 1,17,0
 202 428 202 428 233.5 446 c 128,-1,1
160 327 m 2,18,-1
 160 59 l 1,19,20
 297 -6 297 -6 354 80 c 1,21,22
 385 129 385 129 385 209.5 c 128,-1,23
 385 290 385 290 359.5 347.5 c 128,-1,24
 334 405 334 405 296 417 c 1,25,26
 261 413 261 413 227.5 392 c 128,-1,27
 194 371 194 371 177 352.5 c 128,-1,28
 160 334 160 334 160 327 c 2,18,-1
EndSplineSet
EndChar

StartChar: q
Encoding: 113 113 84
Width: 500
GlyphClass: 2
Flags: W
LayerCount: 2
Fore
SplineSet
425 -212 m 1,0,-1
 341 -212 l 1,1,-1
 341 56 l 1,2,3
 275 -17 275 -17 198 -17 c 128,-1,4
 121 -17 121 -17 71.5 44 c 128,-1,5
 22 105 22 105 22 212.5 c 128,-1,6
 22 320 22 320 87.5 392 c 128,-1,7
 153 464 153 464 245 464 c 0,8,9
 307 464 307 464 371 423 c 1,10,-1
 425 462 l 1,11,-1
 425 -212 l 1,0,-1
341 105 m 2,12,-1
 341 395 l 1,13,14
 334 400 334 400 306 406.5 c 128,-1,15
 278 413 278 413 248 413 c 0,16,17
 186 413 186 413 147 363.5 c 128,-1,18
 108 314 108 314 108 230.5 c 128,-1,19
 108 147 108 147 134 93.5 c 128,-1,20
 160 40 160 40 204 29 c 1,21,22
 240 32 240 32 273.5 48 c 128,-1,23
 307 64 307 64 324 80.5 c 128,-1,24
 341 97 341 97 341 105 c 2,12,-1
EndSplineSet
EndChar

StartChar: r
Encoding: 114 114 85
Width: 318
GlyphClass: 2
Flags: W
LayerCount: 2
Fore
SplineSet
148 0 m 1,0,-1
 64 0 l 1,1,-1
 64 452 l 1,2,-1
 122 452 l 1,3,-1
 145 368 l 1,4,5
 165 403 165 403 208.5 434 c 128,-1,6
 252 465 252 465 298 472 c 1,7,-1
 308 403 l 1,8,9
 271 403 271 403 224.5 380 c 128,-1,10
 178 357 178 357 148 329 c 1,11,-1
 148 0 l 1,0,-1
EndSplineSet
PairPos2: "'kern' Horizontal Kerning in Latin lookup 0 per glyph data 1" ellipsis dx=0 dy=0 dh=-74 dv=0 dx=0 dy=0 dh=0 dv=0
PairPos2: "'kern' Horizontal Kerning in Latin lookup 0 per glyph data 1" quotedblbase dx=0 dy=0 dh=-74 dv=0 dx=0 dy=0 dh=0 dv=0
PairPos2: "'kern' Horizontal Kerning in Latin lookup 0 per glyph data 1" quotesinglbase dx=0 dy=0 dh=-74 dv=0 dx=0 dy=0 dh=0 dv=0
PairPos2: "'kern' Horizontal Kerning in Latin lookup 0 per glyph data 1" period dx=0 dy=0 dh=-74 dv=0 dx=0 dy=0 dh=0 dv=0
PairPos2: "'kern' Horizontal Kerning in Latin lookup 0 per glyph data 1" hyphen dx=0 dy=0 dh=-55 dv=0 dx=0 dy=0 dh=0 dv=0
PairPos2: "'kern' Horizontal Kerning in Latin lookup 0 per glyph data 1" comma dx=0 dy=0 dh=-74 dv=0 dx=0 dy=0 dh=0 dv=0
EndChar

StartChar: s
Encoding: 115 115 86
Width: 372
GlyphClass: 2
Flags: W
LayerCount: 2
Fore
SplineSet
126.5 402.5 m 128,-1,1
 110 383 110 383 110 358.5 c 128,-1,2
 110 334 110 334 133.5 311.5 c 128,-1,3
 157 289 157 289 190.5 271.5 c 128,-1,4
 224 254 224 254 257 235 c 128,-1,5
 290 216 290 216 313.5 186 c 128,-1,6
 337 156 337 156 337 119 c 0,7,8
 337 63 337 63 292 25.5 c 128,-1,9
 247 -12 247 -12 169.5 -12 c 128,-1,10
 92 -12 92 -12 28 24 c 1,11,-1
 28 62 l 1,12,13
 96 28 96 28 151 28 c 128,-1,14
 206 28 206 28 231 50 c 128,-1,15
 256 72 256 72 256 100.5 c 128,-1,16
 256 129 256 129 233.5 151.5 c 128,-1,17
 211 174 211 174 178.5 191 c 128,-1,18
 146 208 146 208 114 227 c 128,-1,19
 82 246 82 246 59.5 276 c 128,-1,20
 37 306 37 306 37 348.5 c 128,-1,21
 37 391 37 391 71.5 427.5 c 128,-1,22
 106 464 106 464 178 464 c 128,-1,23
 250 464 250 464 316 438 c 1,24,-1
 306 372 l 1,25,26
 232 412 232 412 169 422 c 1,27,0
 143 422 143 422 126.5 402.5 c 128,-1,1
EndSplineSet
EndChar

StartChar: t
Encoding: 116 116 87
Width: 329
GlyphClass: 2
Flags: W
LayerCount: 2
Fore
SplineSet
187 43 m 128,-1,1
 199 28 199 28 227 28 c 128,-1,2
 255 28 255 28 294 43 c 1,3,-1
 294 15 l 1,4,5
 236 -12 236 -12 190 -12 c 128,-1,6
 144 -12 144 -12 117.5 13.5 c 128,-1,7
 91 39 91 39 91 93 c 2,8,-1
 91 416 l 1,9,-1
 10 432 l 1,10,-1
 10 452 l 1,11,-1
 91 452 l 1,12,-1
 91 488 l 1,13,-1
 175 549 l 1,14,-1
 175 452 l 1,15,-1
 294 452 l 1,16,-1
 294 416 l 1,17,-1
 175 416 l 1,18,-1
 175 88 l 2,19,0
 175 58 175 58 187 43 c 128,-1,1
EndSplineSet
EndChar

StartChar: u
Encoding: 117 117 88
Width: 480
GlyphClass: 2
Flags: W
LayerCount: 2
Fore
SplineSet
397 134 m 2,0,1
 397 65 397 65 449 25 c 1,2,-1
 397 -12 l 1,3,-1
 316 61 l 1,4,5
 275 22 275 22 243 5 c 128,-1,6
 211 -12 211 -12 167.5 -12 c 128,-1,7
 124 -12 124 -12 87.5 21.5 c 128,-1,8
 51 55 51 55 51 137 c 2,9,-1
 51 452 l 1,10,-1
 136 452 l 1,11,-1
 136 132 l 2,12,13
 136 84 136 84 153.5 59.5 c 128,-1,14
 171 35 171 35 214.5 35 c 128,-1,15
 258 35 258 35 312 99 c 1,16,-1
 312 452 l 1,17,-1
 397 452 l 1,18,-1
 397 134 l 2,0,1
EndSplineSet
EndChar

StartChar: v
Encoding: 118 118 89
Width: 415
GlyphClass: 2
Flags: W
LayerCount: 2
Fore
SplineSet
221 -13 m 1,0,-1
 206 -13 l 1,1,-1
 10 452 l 1,2,-1
 98 452 l 1,3,-1
 236 102 l 1,4,-1
 367 452 l 1,5,-1
 405 452 l 1,6,-1
 221 -13 l 1,0,-1
EndSplineSet
EndChar

StartChar: w
Encoding: 119 119 90
Width: 684
GlyphClass: 2
Flags: W
LayerCount: 2
Fore
SplineSet
102 452 m 1,0,-1
 235 99 l 1,1,-1
 325 345 l 1,2,-1
 280 452 l 1,3,-1
 372 452 l 1,4,-1
 505 99 l 1,5,-1
 635 452 l 1,6,-1
 674 452 l 1,7,-1
 491 -13 l 1,8,-1
 475 -13 l 1,9,-1
 343 299 l 1,10,-1
 220 -13 l 1,11,-1
 205 -13 l 1,12,-1
 10 452 l 1,13,-1
 102 452 l 1,0,-1
EndSplineSet
EndChar

StartChar: x
Encoding: 120 120 91
Width: 474
GlyphClass: 2
Flags: W
LayerCount: 2
Fore
SplineSet
265 249 m 1,0,-1
 444 0 l 1,1,-1
 345 0 l 1,2,-1
 216 189 l 1,3,-1
 78 0 l 1,4,-1
 30 0 l 1,5,-1
 196 211 l 1,6,-1
 33 452 l 1,7,-1
 132 452 l 1,8,-1
 246 270 l 1,9,-1
 380 452 l 1,10,-1
 429 452 l 1,11,-1
 265 249 l 1,0,-1
EndSplineSet
EndChar

StartChar: y
Encoding: 121 121 92
Width: 441
GlyphClass: 2
Flags: W
LayerCount: 2
Fore
SplineSet
382 452 m 1,0,-1
 420 452 l 1,1,-1
 249 -15 l 2,2,3
 216 -107 216 -107 150 -163 c 128,-1,4
 84 -219 84 -219 5 -220 c 1,5,-1
 15 -170 l 1,6,7
 150 -165 150 -165 225 5 c 1,8,-1
 22 452 l 1,9,-1
 111 452 l 1,10,-1
 264 113 l 1,11,-1
 382 452 l 1,0,-1
EndSplineSet
EndChar

StartChar: z
Encoding: 122 122 93
Width: 444
GlyphClass: 2
Flags: W
LayerCount: 2
Fore
SplineSet
45 0 m 1,0,-1
 45 30 l 1,1,-1
 312 419 l 1,2,-1
 66 410 l 1,3,-1
 56 452 l 1,4,-1
 403 452 l 1,5,-1
 403 424 l 1,6,-1
 137 36 l 1,7,-1
 406 47 l 1,8,-1
 416 0 l 1,9,-1
 45 0 l 1,0,-1
EndSplineSet
EndChar

StartChar: braceleft
Encoding: 123 123 94
Width: 480
GlyphClass: 2
Flags: W
LayerCount: 2
Fore
SplineSet
186 337 m 2,0,-1
 186 545 l 2,1,2
 186 616 186 616 214.5 649 c 128,-1,3
 243 682 243 682 314 682 c 0,4,5
 335 682 335 682 358 675 c 1,6,-1
 358 644 l 1,7,8
 333 654 333 654 300 654 c 1,9,10
 271 646 271 646 263.5 627 c 128,-1,11
 256 608 256 608 256 569 c 2,12,-1
 256 362 l 2,13,14
 256 316 256 316 236 291.5 c 128,-1,15
 216 267 216 267 175 250 c 1,16,17
 216 232 216 232 236 208 c 128,-1,18
 256 184 256 184 256 138 c 2,19,-1
 256 -69 l 2,20,21
 256 -108 256 -108 263.5 -127 c 128,-1,22
 271 -146 271 -146 300 -154 c 1,23,24
 327 -154 327 -154 358 -145 c 1,25,-1
 358 -175 l 1,26,27
 335 -182 335 -182 314 -182 c 0,28,29
 243 -182 243 -182 214.5 -149 c 128,-1,30
 186 -116 186 -116 186 -45 c 2,31,-1
 186 163 l 2,32,33
 186 192 186 192 173 216 c 128,-1,34
 160 240 160 240 126 241 c 1,35,-1
 126 259 l 1,36,37
 160 260 160 260 173 283.5 c 128,-1,38
 186 307 186 307 186 337 c 2,0,-1
EndSplineSet
EndChar

StartChar: bar
Encoding: 124 124 95
Width: 200
GlyphClass: 2
Flags: W
LayerCount: 2
Fore
SplineSet
67 782 m 1,0,-1
 133 782 l 1,1,-1
 133 -218 l 1,2,-1
 67 -218 l 1,3,-1
 67 782 l 1,0,-1
EndSplineSet
EndChar

StartChar: braceright
Encoding: 125 125 96
Width: 480
GlyphClass: 2
Flags: W
LayerCount: 2
Fore
SplineSet
295 163 m 2,0,-1
 295 -45 l 2,1,2
 295 -116 295 -116 266.5 -149 c 128,-1,3
 238 -182 238 -182 167 -182 c 0,4,5
 146 -182 146 -182 123 -175 c 1,6,-1
 123 -144 l 1,7,8
 148 -154 148 -154 181 -154 c 1,9,10
 210 -146 210 -146 217.5 -127 c 128,-1,11
 225 -108 225 -108 225 -69 c 2,12,-1
 225 138 l 2,13,14
 225 184 225 184 245 208.5 c 128,-1,15
 265 233 265 233 306 250 c 1,16,17
 265 268 265 268 245 292 c 128,-1,18
 225 316 225 316 225 362 c 2,19,-1
 225 569 l 2,20,21
 225 608 225 608 217.5 627 c 128,-1,22
 210 646 210 646 181 654 c 1,23,24
 154 654 154 654 123 645 c 1,25,-1
 123 675 l 1,26,27
 146 682 146 682 167 682 c 0,28,29
 238 682 238 682 266.5 649 c 128,-1,30
 295 616 295 616 295 545 c 2,31,-1
 295 337 l 2,32,33
 295 308 295 308 308 284 c 128,-1,34
 321 260 321 260 355 259 c 1,35,-1
 355 241 l 1,36,37
 321 240 321 240 308 216.5 c 128,-1,38
 295 193 295 193 295 163 c 2,0,-1
EndSplineSet
EndChar

StartChar: asciitilde
Encoding: 126 126 97
Width: 541
GlyphClass: 2
Flags: W
LayerCount: 2
Fore
SplineSet
431 201.5 m 128,-1,1
 406 187 406 187 371 187 c 128,-1,2
 336 187 336 187 274.5 221 c 128,-1,3
 213 255 213 255 161 255 c 128,-1,4
 109 255 109 255 76 183 c 1,5,-1
 40 233 l 1,6,7
 85 319 85 319 165 319 c 0,8,9
 205 319 205 319 298 278 c 0,10,11
 357 251 357 251 377 251 c 128,-1,12
 397 251 397 251 414.5 263 c 128,-1,13
 432 275 432 275 441.5 287.5 c 128,-1,14
 451 300 451 300 466 323 c 1,15,-1
 502 273 l 1,16,17
 482 246 482 246 469 231 c 128,-1,0
 456 216 456 216 431 201.5 c 128,-1,1
EndSplineSet
EndChar

StartChar: exclamdown
Encoding: 161 161 98
Width: 333
GlyphClass: 2
Flags: W
LayerCount: 2
Fore
SplineSet
132 299 m 1,0,-1
 167 299 l 1,1,-1
 197 -196 l 1,2,-1
 102 -196 l 1,3,-1
 132 299 l 1,0,-1
187 453 m 128,-1,5
 204 440 204 440 204 416.5 c 128,-1,6
 204 393 204 393 188 377 c 128,-1,7
 172 361 172 361 149.5 361 c 128,-1,8
 127 361 127 361 111 376.5 c 128,-1,9
 95 392 95 392 95 416.5 c 128,-1,10
 95 441 95 441 112 453.5 c 128,-1,11
 129 466 129 466 149.5 466 c 128,-1,4
 170 466 170 466 187 453 c 128,-1,5
EndSplineSet
EndChar

StartChar: cent
Encoding: 162 162 99
Width: 500
GlyphClass: 2
Flags: W
LayerCount: 2
Fore
SplineSet
264 -87 m 1,0,-1
 264 -11 l 1,1,2
 185 -3 185 -3 135.5 55 c 128,-1,3
 86 113 86 113 86 212 c 128,-1,4
 86 311 86 311 135 377 c 128,-1,5
 184 443 184 443 264 457 c 1,6,-1
 264 538 l 1,7,-1
 298 538 l 1,8,-1
 298 461 l 1,9,10
 357 461 357 461 423 435 c 1,11,-1
 403 379 l 1,12,13
 341 408 341 408 298 413 c 1,14,-1
 298 43 l 1,15,16
 304 42 304 42 318 42 c 0,17,18
 377 42 377 42 429 69 c 1,19,-1
 429 34 l 1,20,21
 363 -9 363 -9 298 -13 c 1,22,-1
 298 -87 l 1,23,-1
 264 -87 l 1,0,-1
187.5 331.5 m 128,-1,25
 164 274 164 274 164 217 c 128,-1,26
 164 160 164 160 191.5 115 c 128,-1,27
 219 70 219 70 263 52 c 1,28,-1
 263 415 l 1,29,24
 211 389 211 389 187.5 331.5 c 128,-1,25
EndSplineSet
EndChar

StartChar: sterling
Encoding: 163 163 100
Width: 500
GlyphClass: 2
Flags: W
LayerCount: 2
Fore
SplineSet
179 526 m 1,0,-1
 188 372 l 1,1,-1
 188 368 l 1,2,-1
 329 368 l 1,3,-1
 329 330 l 1,4,-1
 186 330 l 1,5,6
 178 158 178 158 109 47 c 1,7,8
 149 38 149 38 202 36 c 1,9,-1
 428 67 l 1,10,-1
 416 0 l 1,11,-1
 56 0 l 1,12,-1
 56 27 l 1,13,14
 111 114 111 114 111 247 c 0,15,16
 111 274 111 274 105 330 c 1,17,-1
 26 330 l 1,18,-1
 26 368 l 1,19,-1
 100 368 l 1,20,21
 92 440 92 440 92 469 c 0,22,23
 92 563 92 563 145 621.5 c 128,-1,24
 198 680 198 680 279 680 c 0,25,26
 336 680 336 680 412 649 c 1,27,-1
 402 583 l 1,28,29
 304 636 304 636 244 644 c 1,30,31
 207 631 207 631 193 602 c 128,-1,32
 179 573 179 573 179 526 c 1,0,-1
EndSplineSet
EndChar

StartChar: currency
Encoding: 164 164 101
Width: 552
GlyphClass: 2
Flags: W
LayerCount: 2
Fore
SplineSet
376 21 m 0,0,1
 416 21 416 21 453 35 c 128,-1,2
 490 49 490 49 512 75 c 1,3,-1
 512 20 l 1,4,5
 447 -13 447 -13 362 -13 c 0,6,7
 253 -13 253 -13 170.5 65 c 128,-1,8
 88 143 88 143 81 287 c 1,9,-1
 18 287 l 1,10,-1
 18 326 l 1,11,-1
 80 326 l 1,12,13
 80 344 80 344 84 380 c 1,14,-1
 18 380 l 1,15,-1
 18 418 l 1,16,-1
 90 418 l 1,17,18
 108 504 108 504 157 564 c 0,19,20
 247 674 247 674 375 674 c 0,21,22
 406 674 406 674 442.5 665.5 c 128,-1,23
 479 657 479 657 500 644 c 1,24,-1
 500 578 l 1,25,26
 405 633 405 633 331 633 c 1,27,28
 207 594 207 594 179 418 c 1,29,-1
 381 418 l 1,30,-1
 381 380 l 1,31,-1
 175 380 l 1,32,33
 173 348 173 348 173 326 c 1,34,-1
 381 326 l 1,35,-1
 381 287 l 1,36,-1
 174 287 l 1,37,38
 182 160 182 160 237 90.5 c 128,-1,39
 292 21 292 21 376 21 c 0,0,1
EndSplineSet
EndChar

StartChar: yen
Encoding: 165 165 102
Width: 500
GlyphClass: 2
Flags: W
LayerCount: 2
Fore
SplineSet
474 368 m 1,0,-1
 474 330 l 1,1,-1
 347 330 l 1,2,-1
 314 251 l 1,3,-1
 314 243 l 1,4,-1
 474 243 l 1,5,-1
 474 204 l 1,6,-1
 314 204 l 1,7,-1
 314 0 l 1,8,-1
 217 0 l 1,9,-1
 217 204 l 1,10,-1
 57 204 l 1,11,-1
 57 243 l 1,12,-1
 217 243 l 1,13,-1
 217 246 l 1,14,-1
 175 330 l 1,15,-1
 57 330 l 1,16,-1
 57 368 l 1,17,-1
 156 368 l 1,18,-1
 11 661 l 1,19,-1
 120 661 l 1,20,-1
 285 282 l 1,21,-1
 438 661 l 1,22,-1
 488 661 l 1,23,-1
 363 368 l 1,24,-1
 474 368 l 1,0,-1
EndSplineSet
EndChar

StartChar: brokenbar
Encoding: 166 166 103
Width: 200
GlyphClass: 2
Flags: W
LayerCount: 2
Fore
SplineSet
67 707 m 1,0,-1
 133 707 l 1,1,-1
 133 357 l 1,2,-1
 67 357 l 1,3,-1
 67 707 l 1,0,-1
67 207 m 1,4,-1
 133 207 l 1,5,-1
 133 -143 l 1,6,-1
 67 -143 l 1,7,-1
 67 207 l 1,4,-1
EndSplineSet
EndChar

StartChar: section
Encoding: 167 167 104
Width: 500
GlyphClass: 2
Flags: W
LayerCount: 2
Fore
SplineSet
321 129 m 1,0,1
 392 72 392 72 392 3.5 c 128,-1,2
 392 -65 392 -65 346 -106.5 c 128,-1,3
 300 -148 300 -148 220.5 -148 c 128,-1,4
 141 -148 141 -148 67 -116 c 1,5,-1
 67 -78 l 1,6,7
 145 -120 145 -120 199 -120 c 128,-1,8
 253 -120 253 -120 283.5 -92 c 128,-1,9
 314 -64 314 -64 314 -22.5 c 128,-1,10
 314 19 314 19 289 45.5 c 128,-1,11
 264 72 264 72 228.5 92.5 c 128,-1,12
 193 113 193 113 157 135 c 128,-1,13
 121 157 121 157 96 192 c 128,-1,14
 71 227 71 227 71 273 c 128,-1,15
 71 319 71 319 98.5 358 c 128,-1,16
 126 397 126 397 183 408 c 1,17,18
 105 464 105 464 105 540 c 0,19,20
 105 595 105 595 142.5 637.5 c 128,-1,21
 180 680 180 680 251.5 680 c 128,-1,22
 323 680 323 680 390 649 c 1,23,-1
 390 595 l 1,24,25
 294 638 294 638 212 638 c 1,26,27
 172 617 172 617 172 578 c 128,-1,28
 172 539 172 539 198 510.5 c 128,-1,29
 224 482 224 482 261.5 459 c 128,-1,30
 299 436 299 436 336.5 411.5 c 128,-1,31
 374 387 374 387 400 350.5 c 128,-1,32
 426 314 426 314 426 266.5 c 128,-1,33
 426 219 426 219 399 182 c 128,-1,34
 372 145 372 145 321 129 c 1,0,1
285 155 m 1,35,36
 348 179 348 179 348 254 c 0,37,38
 348 288 348 288 324 312.5 c 128,-1,39
 300 337 300 337 254 364 c 1,40,41
 226 370 226 370 177 370 c 1,42,43
 138 349 138 349 138 307 c 128,-1,44
 138 265 138 265 170.5 235.5 c 128,-1,45
 203 206 203 206 285 155 c 1,35,36
EndSplineSet
EndChar

StartChar: dieresis
Encoding: 168 168 105
Width: 333
GlyphClass: 2
Flags: W
LayerCount: 2
Fore
SplineSet
18 587 m 2,0,-1
 18 595 l 2,1,2
 18 602 18 602 21 608 c 128,-1,3
 24 614 24 614 24 616 c 1,4,5
 41 641 41 641 68 641 c 0,6,7
 82 641 82 641 89 636 c 1,8,9
 95 635 95 635 105 625 c 1,10,-1
 111 616 l 2,11,12
 116 608 116 608 118 595 c 1,13,-1
 118 591 l 2,14,15
 118 564 118 564 93 547 c 1,16,17
 91 547 91 547 89 546 c 0,18,19
 82 541 82 541 70 541 c 0,20,21
 62 541 62 541 46 545 c 1,22,23
 40 548 40 548 28 560 c 1,24,25
 26 564 26 564 24 566 c 1,26,27
 18 580 18 580 18 587 c 2,0,-1
215 591 m 128,-1,29
 215 612 215 612 229.5 626.5 c 128,-1,30
 244 641 244 641 265 641 c 128,-1,31
 286 641 286 641 300.5 626.5 c 128,-1,32
 315 612 315 612 315 591 c 128,-1,33
 315 570 315 570 300.5 555.5 c 128,-1,34
 286 541 286 541 265 541 c 128,-1,35
 244 541 244 541 229.5 555.5 c 128,-1,28
 215 570 215 570 215 591 c 128,-1,29
EndSplineSet
EndChar

StartChar: copyright
Encoding: 169 169 106
Width: 760
GlyphClass: 2
Flags: W
LayerCount: 2
Fore
SplineSet
137.5 575.5 m 128,-1,1
 237 677 237 677 381 677 c 128,-1,2
 525 677 525 677 623.5 575.5 c 128,-1,3
 722 474 722 474 722 330 c 128,-1,4
 722 186 722 186 623.5 86 c 128,-1,5
 525 -14 525 -14 381 -14 c 128,-1,6
 237 -14 237 -14 137.5 86 c 128,-1,7
 38 186 38 186 38 330 c 128,-1,0
 38 474 38 474 137.5 575.5 c 128,-1,1
584 543.5 m 128,-1,9
 501 634 501 634 381 634 c 128,-1,10
 261 634 261 634 177 543.5 c 128,-1,11
 93 453 93 453 93 330.5 c 128,-1,12
 93 208 93 208 177.5 118 c 128,-1,13
 262 28 262 28 380.5 28 c 128,-1,14
 499 28 499 28 583 118.5 c 128,-1,15
 667 209 667 209 667 331 c 128,-1,8
 667 453 667 453 584 543.5 c 128,-1,9
534 137 m 1,16,17
 480 108 480 108 386.5 108 c 128,-1,18
 293 108 293 108 224 163.5 c 128,-1,19
 155 219 155 219 155 323 c 0,20,21
 155 383 155 383 178 430.5 c 128,-1,22
 201 478 201 478 238 506 c 0,23,24
 312 562 312 562 407 562 c 0,25,26
 465 562 465 562 525 541 c 1,27,-1
 516 482 l 1,28,29
 430 519 430 519 369 521 c 1,30,31
 307 506 307 506 271.5 455.5 c 128,-1,32
 236 405 236 405 236 324 c 128,-1,33
 236 243 236 243 283.5 193.5 c 128,-1,34
 331 144 331 144 409 144 c 128,-1,35
 487 144 487 144 534 188 c 1,36,-1
 534 137 l 1,16,17
EndSplineSet
EndChar

StartChar: ordfeminine
Encoding: 170 170 107
Width: 262
GlyphClass: 2
Flags: W
LayerCount: 2
Fore
SplineSet
217 579 m 2,0,-1
 217 483 l 2,1,2
 217 444 217 444 251 422 c 1,3,-1
 212 392 l 1,4,-1
 165 434 l 1,5,6
 122 394 122 394 89 394 c 128,-1,7
 56 394 56 394 36.5 412 c 128,-1,8
 17 430 17 430 17 459 c 128,-1,9
 17 488 17 488 42 508 c 0,10,11
 85 541 85 541 159 546 c 1,12,-1
 159 594 l 2,13,14
 159 636 159 636 111 636 c 0,15,16
 81 636 81 636 33 619 c 1,17,-1
 25 643 l 1,18,19
 39 654 39 654 69 665.5 c 128,-1,20
 99 677 99 677 128.5 677 c 128,-1,21
 158 677 158 677 178 668 c 128,-1,22
 198 659 198 659 206 640 c 0,23,24
 217 612 217 612 217 579 c 2,0,-1
78 475 m 0,25,26
 78 444 78 444 105 432 c 1,27,28
 123 437 123 437 141 449.5 c 128,-1,29
 159 462 159 462 159 468 c 2,30,-1
 159 521 l 1,31,32
 123 517 123 517 100.5 503.5 c 128,-1,33
 78 490 78 490 78 475 c 0,25,26
EndSplineSet
EndChar

StartChar: guillemotleft
Encoding: 171 171 108
Width: 500
GlyphClass: 2
Flags: W
LayerCount: 2
Fore
SplineSet
42 227 m 1,0,-1
 253 416 l 1,1,2
 263 416 263 416 263 405 c 1,3,-1
 135 225 l 1,4,-1
 264 44 l 1,5,6
 264 33 264 33 253 33 c 1,7,-1
 42 227 l 1,0,-1
234 227 m 1,8,-1
 445 416 l 1,9,10
 455 416 455 416 455 405 c 1,11,-1
 327 225 l 1,12,-1
 456 44 l 1,13,14
 456 33 456 33 445 33 c 1,15,-1
 234 227 l 1,8,-1
EndSplineSet
EndChar

StartChar: logicalnot
Encoding: 172 172 109
Width: 564
GlyphClass: 2
Flags: W
LayerCount: 2
Fore
SplineSet
447 124 m 1,0,-1
 447 312 l 1,1,-1
 59 312 l 1,2,-1
 59 370 l 1,3,-1
 505 370 l 1,4,-1
 505 124 l 1,5,-1
 447 124 l 1,0,-1
EndSplineSet
EndChar

StartChar: registered
Encoding: 174 174 110
Width: 760
GlyphClass: 2
Flags: W
LayerCount: 2
Fore
SplineSet
722 330 m 128,-1,1
 722 186 722 186 623.5 86 c 128,-1,2
 525 -14 525 -14 381 -14 c 128,-1,3
 237 -14 237 -14 137.5 86 c 128,-1,4
 38 186 38 186 38 330 c 128,-1,5
 38 474 38 474 137.5 575.5 c 128,-1,6
 237 677 237 677 381 677 c 128,-1,7
 525 677 525 677 623.5 575.5 c 128,-1,0
 722 474 722 474 722 330 c 128,-1,1
583 118.5 m 128,-1,9
 667 209 667 209 667 331 c 128,-1,10
 667 453 667 453 584 543.5 c 128,-1,11
 501 634 501 634 381 634 c 128,-1,12
 261 634 261 634 177 543.5 c 128,-1,13
 93 453 93 453 93 330.5 c 128,-1,14
 93 208 93 208 177.5 118 c 128,-1,15
 262 28 262 28 380.5 28 c 128,-1,8
 499 28 499 28 583 118.5 c 128,-1,9
321 318 m 1,16,-1
 321 117 l 1,17,-1
 244 117 l 1,18,-1
 244 552 l 1,19,-1
 389 552 l 2,20,21
 456 552 456 552 499 521.5 c 128,-1,22
 542 491 542 491 542 442 c 128,-1,23
 542 393 542 393 510.5 364.5 c 128,-1,24
 479 336 479 336 426 325 c 1,25,-1
 559 118 l 1,26,-1
 469 107 l 1,27,-1
 359 318 l 1,28,-1
 321 318 l 1,16,-1
321 350 m 1,29,-1
 355 350 l 2,30,31
 463 350 463 350 463 434 c 0,32,33
 463 446 463 446 456 465 c 0,34,35
 442 500 442 500 397 515 c 1,36,37
 365 515 365 515 321 505 c 1,38,-1
 321 350 l 1,29,-1
EndSplineSet
EndChar

StartChar: macron
Encoding: 175 175 111
Width: 333
GlyphClass: 2
Flags: W
LayerCount: 2
Fore
SplineSet
11 601 m 1,0,-1
 322 601 l 1,1,-1
 322 547 l 1,2,-1
 11 547 l 1,3,-1
 11 601 l 1,0,-1
EndSplineSet
EndChar

StartChar: degree
Encoding: 176 176 112
Width: 400
GlyphClass: 2
Flags: W
LayerCount: 2
Fore
SplineSet
200 424 m 128,-1,1
 243 424 243 424 273.5 456.5 c 128,-1,2
 304 489 304 489 304 533 c 128,-1,3
 304 577 304 577 273.5 609.5 c 128,-1,4
 243 642 243 642 200 642 c 128,-1,5
 157 642 157 642 126.5 609.5 c 128,-1,6
 96 577 96 577 96 533 c 128,-1,7
 96 489 96 489 126.5 456.5 c 128,-1,0
 157 424 157 424 200 424 c 128,-1,1
200 390 m 128,-1,9
 140 390 140 390 98.5 431.5 c 128,-1,10
 57 473 57 473 57 533 c 128,-1,11
 57 593 57 593 98.5 635 c 128,-1,12
 140 677 140 677 200 677 c 128,-1,13
 260 677 260 677 301.5 635 c 128,-1,14
 343 593 343 593 343 533 c 128,-1,15
 343 473 343 473 301.5 431.5 c 128,-1,8
 260 390 260 390 200 390 c 128,-1,9
EndSplineSet
EndChar

StartChar: plusminus
Encoding: 177 177 113
Width: 564
GlyphClass: 2
Flags: W
LayerCount: 2
Fore
SplineSet
253 358 m 1,0,-1
 253 553 l 1,1,-1
 311 553 l 1,2,-1
 311 358 l 1,3,-1
 505 358 l 1,4,-1
 505 300 l 1,5,-1
 311 300 l 1,6,-1
 311 105 l 1,7,-1
 253 105 l 1,8,-1
 253 300 l 1,9,-1
 59 300 l 1,10,-1
 59 358 l 1,11,-1
 253 358 l 1,0,-1
505 0 m 1,12,-1
 59 0 l 1,13,-1
 59 58 l 1,14,-1
 505 58 l 1,15,-1
 505 0 l 1,12,-1
EndSplineSet
EndChar

StartChar: twosuperior
Encoding: 178 178 114
Width: 405
GlyphClass: 2
Flags: W
LayerCount: 2
Fore
SplineSet
290 630.5 m 128,-1,1
 323 597 323 597 323 549.5 c 128,-1,2
 323 502 323 502 271.5 442.5 c 128,-1,3
 220 383 220 383 156 335 c 1,4,-1
 156 330 l 1,5,-1
 332 338 l 1,6,-1
 332 281 l 1,7,-1
 70 281 l 1,8,-1
 70 322 l 1,9,10
 136 362 136 362 195 429 c 128,-1,11
 254 496 254 496 254 545.5 c 128,-1,12
 254 595 254 595 205 615 c 1,13,14
 168 614 168 614 99 594 c 1,15,-1
 83 648 l 1,16,17
 131 664 131 664 194 664 c 128,-1,0
 257 664 257 664 290 630.5 c 128,-1,1
EndSplineSet
EndChar

StartChar: threesuperior
Encoding: 179 179 115
Width: 405
GlyphClass: 2
Flags: W
LayerCount: 2
Fore
SplineSet
184 271 m 128,-1,1
 130 271 130 271 70 289 c 1,2,-1
 87 337 l 1,3,4
 141 313 141 313 177 307 c 1,5,6
 210 308 210 308 233 328.5 c 128,-1,7
 256 349 256 349 256 383 c 128,-1,8
 256 417 256 417 227 439.5 c 128,-1,9
 198 462 198 462 135 462 c 1,10,-1
 135 488 l 1,11,12
 241 494 241 494 241 561 c 0,13,14
 241 573 241 573 229.5 591 c 128,-1,15
 218 609 218 609 194 621 c 1,16,17
 169 621 169 621 101 603 c 1,18,-1
 84 650 l 1,19,20
 138 664 138 664 185 664 c 128,-1,21
 232 664 232 664 271 637.5 c 128,-1,22
 310 611 310 611 310 561 c 128,-1,23
 310 511 310 511 240 479 c 1,24,25
 285 467 285 467 308.5 443 c 128,-1,26
 332 419 332 419 332 388 c 0,27,28
 332 333 332 333 285 302 c 128,-1,0
 238 271 238 271 184 271 c 128,-1,1
EndSplineSet
EndChar

StartChar: acute
Encoding: 180 180 116
Width: 333
GlyphClass: 2
Flags: W
LayerCount: 2
Fore
SplineSet
133 507 m 1,0,-1
 93 507 l 1,1,-1
 265 695 l 1,2,-1
 321 645 l 1,3,-1
 133 507 l 1,0,-1
EndSplineSet
EndChar

StartChar: mu
Encoding: 181 181 117
Width: 510
GlyphClass: 2
Flags: W
LayerCount: 2
Fore
SplineSet
405 452 m 1,0,-1
 405 134 l 2,1,2
 405 65 405 65 457 25 c 1,3,-1
 405 -12 l 1,4,-1
 324 61 l 1,5,6
 292 22 292 22 265 4.5 c 128,-1,7
 238 -13 238 -13 197 -13 c 0,8,9
 143 -13 143 -13 111 44 c 1,10,-1
 107 44 l 1,11,12
 110 -4 110 -4 122 -58.5 c 128,-1,13
 134 -113 134 -113 144 -144 c 1,14,-1
 155 -174 l 1,15,16
 130 -210 130 -210 79 -210 c 1,17,-1
 79 452 l 1,18,-1
 164 452 l 1,19,-1
 164 132 l 2,20,21
 164 84 164 84 181.5 59.5 c 128,-1,22
 199 35 199 35 241 35 c 0,23,24
 262 35 262 35 284.5 55 c 128,-1,25
 307 75 307 75 320 99 c 1,26,-1
 320 452 l 1,27,-1
 405 452 l 1,0,-1
EndSplineSet
EndChar

StartChar: paragraph
Encoding: 182 182 118
Width: 453
GlyphClass: 2
Flags: W
LayerCount: 2
Fore
SplineSet
238 640 m 1,0,-1
 238 -154 l 1,1,-1
 172 -154 l 1,2,-1
 172 323 l 1,3,4
 71 323 71 323 24.5 364.5 c 128,-1,5
 -22 406 -22 406 -22 499 c 0,6,7
 -22 662 -22 662 187 662 c 2,8,-1
 362 662 l 1,9,-1
 362 -154 l 1,10,-1
 296 -154 l 1,11,-1
 296 640 l 1,12,-1
 238 640 l 1,0,-1
82.5 602.5 m 128,-1,14
 54 569 54 569 54 489 c 128,-1,15
 54 409 54 409 82.5 379 c 128,-1,16
 111 349 111 349 172 345 c 1,17,-1
 172 640 l 1,18,13
 111 636 111 636 82.5 602.5 c 128,-1,14
EndSplineSet
EndChar

StartChar: periodcentered
Encoding: 183 183 119
Width: 250
GlyphClass: 2
Flags: W
LayerCount: 2
Fore
SplineSet
125 199 m 128,-1,1
 106 199 106 199 88 213 c 128,-1,2
 70 227 70 227 70 252 c 128,-1,3
 70 277 70 277 86 293.5 c 128,-1,4
 102 310 102 310 125 310 c 128,-1,5
 148 310 148 310 164.5 293 c 128,-1,6
 181 276 181 276 181 252 c 128,-1,7
 181 228 181 228 162.5 213.5 c 128,-1,0
 144 199 144 199 125 199 c 128,-1,1
EndSplineSet
EndChar

StartChar: cedilla
Encoding: 184 184 120
Width: 333
GlyphClass: 2
Flags: W
LayerCount: 2
Fore
SplineSet
225.5 -190.5 m 128,-1,1
 190 -215 190 -215 140.5 -215 c 128,-1,2
 91 -215 91 -215 52 -199 c 1,3,-1
 66 -168 l 1,4,5
 95 -180 95 -180 123.5 -180 c 128,-1,6
 152 -180 152 -180 169 -168.5 c 128,-1,7
 186 -157 186 -157 186 -141 c 1,8,9
 165 -100 165 -100 99 -100 c 1,10,-1
 139 0 l 1,11,-1
 174 0 l 1,12,-1
 149 -65 l 1,13,14
 182 -65 182 -65 213 -82.5 c 128,-1,15
 244 -100 244 -100 261 -132 c 1,16,0
 261 -166 261 -166 225.5 -190.5 c 128,-1,1
EndSplineSet
EndChar

StartChar: onesuperior
Encoding: 185 185 121
Width: 405
GlyphClass: 2
Flags: W
LayerCount: 2
Fore
SplineSet
258 667 m 1,0,-1
 258 281 l 1,1,-1
 190 281 l 1,2,-1
 190 588 l 1,3,-1
 109 547 l 1,4,-1
 80 595 l 1,5,-1
 249 667 l 1,6,-1
 258 667 l 1,0,-1
EndSplineSet
EndChar

StartChar: ordmasculine
Encoding: 186 186 122
Width: 304
GlyphClass: 2
Flags: W
LayerCount: 2
Fore
SplineSet
60 641 m 128,-1,1
 105 677 105 677 161 677 c 128,-1,2
 217 677 217 677 252 641.5 c 128,-1,3
 287 606 287 606 287 535.5 c 128,-1,4
 287 465 287 465 242 429 c 128,-1,5
 197 393 197 393 141.5 393 c 128,-1,6
 86 393 86 393 50.5 429 c 128,-1,7
 15 465 15 465 15 535 c 128,-1,0
 15 605 15 605 60 641 c 128,-1,1
95 456 m 128,-1,9
 113 425 113 425 149.5 425 c 128,-1,10
 186 425 186 425 204.5 459 c 128,-1,11
 223 493 223 493 223 534 c 0,12,13
 223 644 223 644 143 644 c 1,14,15
 110 632 110 632 93.5 602 c 128,-1,16
 77 572 77 572 77 529.5 c 128,-1,8
 77 487 77 487 95 456 c 128,-1,9
EndSplineSet
EndChar

StartChar: guillemotright
Encoding: 187 187 123
Width: 500
GlyphClass: 2
Flags: W
LayerCount: 2
Fore
SplineSet
460 221 m 1,0,-1
 249 32 l 1,1,2
 239 32 239 32 239 43 c 1,3,-1
 367 223 l 1,4,-1
 238 404 l 1,5,6
 238 415 238 415 249 415 c 1,7,-1
 460 221 l 1,0,-1
270 221 m 1,8,-1
 59 32 l 1,9,10
 49 32 49 32 49 43 c 1,11,-1
 177 223 l 1,12,-1
 48 404 l 1,13,14
 48 415 48 415 59 415 c 1,15,-1
 270 221 l 1,8,-1
EndSplineSet
EndChar

StartChar: onequarter
Encoding: 188 188 124
Width: 799
GlyphClass: 2
Flags: W
LayerCount: 2
Fore
SplineSet
227 687 m 1,0,-1
 227 301 l 1,1,-1
 159 301 l 1,2,-1
 159 608 l 1,3,-1
 78 567 l 1,4,-1
 49 615 l 1,5,-1
 218 687 l 1,6,-1
 227 687 l 1,0,-1
757 120 m 1,7,-1
 757 76 l 1,8,-1
 704 76 l 1,9,-1
 704 0 l 1,10,-1
 637 0 l 1,11,-1
 637 76 l 1,12,-1
 454 76 l 1,13,-1
 454 102 l 1,14,-1
 640 378 l 1,15,-1
 704 378 l 1,16,-1
 704 120 l 1,17,-1
 757 120 l 1,7,-1
637 120 m 1,18,-1
 637 313 l 1,19,-1
 510 120 l 1,20,-1
 637 120 l 1,18,-1
599 677 m 1,21,-1
 249 -14 l 1,22,-1
 200 -14 l 1,23,-1
 553 677 l 1,24,-1
 599 677 l 1,21,-1
EndSplineSet
EndChar

StartChar: onehalf
Encoding: 189 189 125
Width: 799
GlyphClass: 2
Flags: W
LayerCount: 2
Fore
SplineSet
227 687 m 1,0,-1
 227 301 l 1,1,-1
 159 301 l 1,2,-1
 159 608 l 1,3,-1
 78 567 l 1,4,-1
 49 615 l 1,5,-1
 218 687 l 1,6,-1
 227 687 l 1,0,-1
700 349.5 m 128,-1,8
 733 316 733 316 733 268.5 c 128,-1,9
 733 221 733 221 681.5 161.5 c 128,-1,10
 630 102 630 102 566 54 c 1,11,-1
 566 49 l 1,12,-1
 742 57 l 1,13,-1
 742 0 l 1,14,-1
 480 0 l 1,15,-1
 480 41 l 1,16,17
 546 81 546 81 605 148 c 128,-1,18
 664 215 664 215 664 264.5 c 128,-1,19
 664 314 664 314 615 334 c 1,20,21
 578 333 578 333 509 313 c 1,22,-1
 493 367 l 1,23,24
 541 383 541 383 604 383 c 128,-1,7
 667 383 667 383 700 349.5 c 128,-1,8
599 677 m 1,25,-1
 249 -14 l 1,26,-1
 200 -14 l 1,27,-1
 553 677 l 1,28,-1
 599 677 l 1,25,-1
EndSplineSet
EndChar

StartChar: threequarters
Encoding: 190 190 126
Width: 799
GlyphClass: 2
Flags: W
LayerCount: 2
Fore
SplineSet
153 291 m 128,-1,1
 99 291 99 291 39 309 c 1,2,-1
 56 357 l 1,3,4
 110 333 110 333 146 327 c 1,5,6
 179 328 179 328 202 348.5 c 128,-1,7
 225 369 225 369 225 403 c 128,-1,8
 225 437 225 437 196 459.5 c 128,-1,9
 167 482 167 482 104 482 c 1,10,-1
 104 508 l 1,11,12
 210 514 210 514 210 581 c 0,13,14
 210 593 210 593 198.5 611 c 128,-1,15
 187 629 187 629 163 641 c 1,16,17
 138 641 138 641 70 623 c 1,18,-1
 53 670 l 1,19,20
 107 684 107 684 154 684 c 128,-1,21
 201 684 201 684 240 657.5 c 128,-1,22
 279 631 279 631 279 581 c 128,-1,23
 279 531 279 531 209 499 c 1,24,25
 254 487 254 487 277.5 463 c 128,-1,26
 301 439 301 439 301 408 c 0,27,28
 301 353 301 353 254 322 c 128,-1,0
 207 291 207 291 153 291 c 128,-1,1
727 120 m 1,29,-1
 727 76 l 1,30,-1
 674 76 l 1,31,-1
 674 0 l 1,32,-1
 607 0 l 1,33,-1
 607 76 l 1,34,-1
 424 76 l 1,35,-1
 424 102 l 1,36,-1
 610 378 l 1,37,-1
 674 378 l 1,38,-1
 674 120 l 1,39,-1
 727 120 l 1,29,-1
607 120 m 1,40,-1
 607 313 l 1,41,-1
 480 120 l 1,42,-1
 607 120 l 1,40,-1
599 677 m 1,43,-1
 249 -14 l 1,44,-1
 200 -14 l 1,45,-1
 553 677 l 1,46,-1
 599 677 l 1,43,-1
EndSplineSet
EndChar

StartChar: questiondown
Encoding: 191 191 127
Width: 444
GlyphClass: 2
Flags: W
LayerCount: 2
Fore
SplineSet
288 376.5 m 128,-1,1
 272 361 272 361 249.5 361 c 128,-1,2
 227 361 227 361 211 377 c 128,-1,3
 195 393 195 393 195 416.5 c 128,-1,4
 195 440 195 440 212 453.5 c 128,-1,5
 229 467 229 467 249 467 c 128,-1,6
 269 467 269 467 286.5 454 c 128,-1,7
 304 441 304 441 304 416.5 c 128,-1,0
 304 392 304 392 288 376.5 c 128,-1,1
253 -196 m 0,8,9
 141 -196 141 -196 92.5 -146.5 c 128,-1,10
 44 -97 44 -97 44 -28.5 c 128,-1,11
 44 40 44 40 102.5 127.5 c 128,-1,12
 161 215 161 215 244 299 c 1,13,-1
 273 276 l 1,14,15
 208 206 208 206 167.5 127.5 c 128,-1,16
 127 49 127 49 127 -15 c 0,17,18
 127 -106 127 -106 213 -140 c 1,19,20
 281 -140 281 -140 356 -118 c 1,21,-1
 356 -181 l 1,22,23
 298 -196 298 -196 253 -196 c 0,8,9
EndSplineSet
EndChar

StartChar: Agrave
Encoding: 192 192 128
Width: 629
GlyphClass: 2
Flags: W
LayerCount: 2
Fore
SplineSet
10 0 m 1,0,-1
 307 678 l 1,1,-1
 322 678 l 1,2,-1
 619 0 l 1,3,-1
 510 0 l 1,4,-1
 435 180 l 1,5,-1
 138 180 l 1,6,-1
 64 0 l 1,7,-1
 10 0 l 1,0,-1
153 218 m 1,8,-1
 419 218 l 1,9,-1
 287 542 l 1,10,-1
 153 218 l 1,8,-1
389 719 m 1,11,-1
 349 719 l 1,12,-1
 161 857 l 1,13,-1
 217 907 l 1,14,-1
 389 719 l 1,11,-1
EndSplineSet
EndChar

StartChar: Aacute
Encoding: 193 193 129
Width: 629
GlyphClass: 2
Flags: W
LayerCount: 2
Fore
SplineSet
10 0 m 1,0,-1
 307 678 l 1,1,-1
 322 678 l 1,2,-1
 619 0 l 1,3,-1
 510 0 l 1,4,-1
 435 180 l 1,5,-1
 138 180 l 1,6,-1
 64 0 l 1,7,-1
 10 0 l 1,0,-1
153 218 m 1,8,-1
 419 218 l 1,9,-1
 287 542 l 1,10,-1
 153 218 l 1,8,-1
305 734 m 1,11,-1
 265 734 l 1,12,-1
 437 928 l 1,13,-1
 493 876 l 1,14,-1
 305 734 l 1,11,-1
EndSplineSet
EndChar

StartChar: Acircumflex
Encoding: 194 194 130
Width: 629
GlyphClass: 2
Flags: W
LayerCount: 2
Fore
SplineSet
10 0 m 1,0,-1
 307 678 l 1,1,-1
 322 678 l 1,2,-1
 619 0 l 1,3,-1
 510 0 l 1,4,-1
 435 180 l 1,5,-1
 138 180 l 1,6,-1
 64 0 l 1,7,-1
 10 0 l 1,0,-1
153 218 m 1,8,-1
 419 218 l 1,9,-1
 287 542 l 1,10,-1
 153 218 l 1,8,-1
339 886 m 1,11,-1
 465 719 l 1,12,-1
 425 719 l 1,13,-1
 315 812 l 1,14,-1
 206 719 l 1,15,-1
 166 719 l 1,16,-1
 291 886 l 1,17,-1
 339 886 l 1,11,-1
EndSplineSet
EndChar

StartChar: Atilde
Encoding: 195 195 131
Width: 629
GlyphClass: 2
Flags: W
LayerCount: 2
Fore
SplineSet
10 0 m 1,0,-1
 307 678 l 1,1,-1
 322 678 l 1,2,-1
 619 0 l 1,3,-1
 510 0 l 1,4,-1
 435 180 l 1,5,-1
 138 180 l 1,6,-1
 64 0 l 1,7,-1
 10 0 l 1,0,-1
153 218 m 1,8,-1
 419 218 l 1,9,-1
 287 542 l 1,10,-1
 153 218 l 1,8,-1
299.5 764.5 m 128,-1,12
 249 785 249 785 236 785 c 128,-1,13
 223 785 223 785 212 775 c 128,-1,14
 201 765 201 765 184 742 c 1,15,-1
 157 757 l 1,16,17
 184 822 184 822 259 846 c 1,18,19
 281 846 281 846 331.5 825.5 c 128,-1,20
 382 805 382 805 395 805 c 128,-1,21
 408 805 408 805 419 815 c 128,-1,22
 430 825 430 825 447 848 c 1,23,-1
 474 833 l 1,24,25
 447 768 447 768 372 744 c 1,26,11
 350 744 350 744 299.5 764.5 c 128,-1,12
EndSplineSet
EndChar

StartChar: Adieresis
Encoding: 196 196 132
Width: 629
GlyphClass: 2
Flags: W
LayerCount: 2
Fore
SplineSet
10 0 m 1,0,-1
 307 678 l 1,1,-1
 322 678 l 1,2,-1
 619 0 l 1,3,-1
 510 0 l 1,4,-1
 435 180 l 1,5,-1
 138 180 l 1,6,-1
 64 0 l 1,7,-1
 10 0 l 1,0,-1
153 218 m 1,8,-1
 419 218 l 1,9,-1
 287 542 l 1,10,-1
 153 218 l 1,8,-1
166 753 m 1,11,-1
 166 765 l 2,12,13
 166 792 166 792 198 808 c 1,14,-1
 212 811 l 1,15,-1
 216 811 l 2,16,17
 247 811 247 811 261 782 c 0,18,19
 265 774 265 774 265 771 c 128,-1,20
 265 768 265 768 266 765 c 1,21,-1
 266 757 l 2,22,23
 266 740 266 740 247 721 c 1,24,25
 243 719 243 719 241 717 c 1,26,27
 239 717 239 717 237 716 c 0,28,29
 230 711 230 711 220 711 c 2,30,-1
 216 711 l 2,31,32
 198 711 198 711 191 716.5 c 128,-1,33
 184 722 184 722 182 723 c 0,34,35
 179 725 179 725 179 727 c 1,36,37
 173 732 173 732 169 743 c 2,38,-1
 166 753 l 1,11,-1
363 761 m 128,-1,40
 363 782 363 782 377.5 796.5 c 128,-1,41
 392 811 392 811 413 811 c 128,-1,42
 434 811 434 811 448.5 796.5 c 128,-1,43
 463 782 463 782 463 761 c 128,-1,44
 463 740 463 740 448.5 725.5 c 128,-1,45
 434 711 434 711 413 711 c 128,-1,46
 392 711 392 711 377.5 725.5 c 128,-1,39
 363 740 363 740 363 761 c 128,-1,40
EndSplineSet
EndChar

StartChar: Aring
Encoding: 197 197 133
Width: 629
GlyphClass: 2
Flags: W
LayerCount: 2
Fore
SplineSet
10 0 m 1,0,-1
 307 678 l 1,1,-1
 322 678 l 1,2,-1
 619 0 l 1,3,-1
 510 0 l 1,4,-1
 435 180 l 1,5,-1
 138 180 l 1,6,-1
 64 0 l 1,7,-1
 10 0 l 1,0,-1
153 218 m 1,8,-1
 419 218 l 1,9,-1
 287 542 l 1,10,-1
 153 218 l 1,8,-1
214 798 m 128,-1,12
 214 839 214 839 242.5 868.5 c 128,-1,13
 271 898 271 898 312.5 898 c 128,-1,14
 354 898 354 898 383.5 868.5 c 128,-1,15
 413 839 413 839 413 798 c 128,-1,16
 413 757 413 757 383.5 728 c 128,-1,17
 354 699 354 699 312.5 699 c 128,-1,18
 271 699 271 699 242.5 728 c 128,-1,11
 214 757 214 757 214 798 c 128,-1,12
360 844.5 m 128,-1,20
 341 864 341 864 311.5 864 c 128,-1,21
 282 864 282 864 265 842.5 c 128,-1,22
 248 821 248 821 248 798.5 c 128,-1,23
 248 776 248 776 264.5 754.5 c 128,-1,24
 281 733 281 733 310.5 733 c 128,-1,25
 340 733 340 733 359.5 752 c 128,-1,26
 379 771 379 771 379 798 c 128,-1,19
 379 825 379 825 360 844.5 c 128,-1,20
EndSplineSet
EndChar

StartChar: AE
Encoding: 198 198 134
Width: 822
GlyphClass: 2
Flags: W
LayerCount: 2
Fore
SplineSet
375 0 m 1,0,-1
 375 180 l 1,1,-1
 158 180 l 1,2,-1
 64 0 l 1,3,-1
 10 0 l 1,4,-1
 375 661 l 1,5,-1
 751 661 l 1,6,-1
 741 594 l 1,7,-1
 580 625 l 1,8,9
 531 625 531 625 472 608 c 1,10,-1
 472 366 l 1,11,-1
 669 366 l 1,12,-1
 669 328 l 1,13,-1
 472 328 l 1,14,-1
 472 36 l 1,15,-1
 767 67 l 1,16,-1
 757 0 l 1,17,-1
 375 0 l 1,0,-1
375 218 m 1,18,-1
 375 593 l 1,19,-1
 178 218 l 1,20,-1
 375 218 l 1,18,-1
EndSplineSet
EndChar

StartChar: Ccedilla
Encoding: 199 199 135
Width: 632
GlyphClass: 2
Flags: W
LayerCount: 2
Fore
SplineSet
28 313 m 0,0,1
 28 405 28 405 63 477 c 128,-1,2
 98 549 98 549 155 590 c 0,3,4
 270 674 270 674 413 674 c 0,5,6
 496 674 496 674 586 644 c 1,7,-1
 576 576 l 1,8,9
 529 596 529 596 503 606 c 0,10,11
 428 633 428 633 352 633 c 1,12,13
 247 609 247 609 190.5 529 c 128,-1,14
 134 449 134 449 134 329 c 0,15,16
 134 182 134 182 211 102.5 c 128,-1,17
 288 23 288 23 414 23 c 128,-1,18
 540 23 540 23 602 77 c 1,19,-1
 602 22 l 1,20,21
 516 -12 516 -12 395 -12 c 2,22,-1
 383 -12 l 1,23,-1
 363 -65 l 1,24,25
 396 -65 396 -65 427 -82.5 c 128,-1,26
 458 -100 458 -100 475 -132 c 1,27,28
 475 -166 475 -166 439.5 -190.5 c 128,-1,29
 404 -215 404 -215 354.5 -215 c 128,-1,30
 305 -215 305 -215 266 -199 c 1,31,-1
 280 -168 l 1,32,33
 309 -180 309 -180 337.5 -180 c 128,-1,34
 366 -180 366 -180 383 -168.5 c 128,-1,35
 400 -157 400 -157 400 -141 c 1,36,37
 379 -100 379 -100 313 -100 c 1,38,-1
 349 -10 l 1,39,40
 210 2 210 2 119 85 c 128,-1,41
 28 168 28 168 28 313 c 0,0,1
EndSplineSet
EndChar

StartChar: Egrave
Encoding: 200 200 136
Width: 562
GlyphClass: 2
Flags: W
LayerCount: 2
Fore
SplineSet
90 0 m 1,0,-1
 90 662 l 1,1,-1
 491 662 l 1,2,-1
 481 595 l 1,3,-1
 295 626 l 1,4,5
 246 626 246 626 187 609 c 1,6,-1
 187 366 l 1,7,-1
 409 366 l 1,8,-1
 409 328 l 1,9,-1
 187 328 l 1,10,-1
 187 36 l 1,11,-1
 497 67 l 1,12,-1
 487 0 l 1,13,-1
 90 0 l 1,0,-1
381 719 m 1,14,-1
 341 719 l 1,15,-1
 153 857 l 1,16,-1
 209 907 l 1,17,-1
 381 719 l 1,14,-1
EndSplineSet
EndChar

StartChar: Eacute
Encoding: 201 201 137
Width: 562
GlyphClass: 2
Flags: W
LayerCount: 2
Fore
SplineSet
90 0 m 1,0,-1
 90 662 l 1,1,-1
 491 662 l 1,2,-1
 481 595 l 1,3,-1
 295 626 l 1,4,5
 246 626 246 626 187 609 c 1,6,-1
 187 366 l 1,7,-1
 409 366 l 1,8,-1
 409 328 l 1,9,-1
 187 328 l 1,10,-1
 187 36 l 1,11,-1
 497 67 l 1,12,-1
 487 0 l 1,13,-1
 90 0 l 1,0,-1
273 719 m 1,14,-1
 233 719 l 1,15,-1
 405 907 l 1,16,-1
 461 857 l 1,17,-1
 273 719 l 1,14,-1
EndSplineSet
EndChar

StartChar: Ecircumflex
Encoding: 202 202 138
Width: 562
GlyphClass: 2
Flags: W
LayerCount: 2
Fore
SplineSet
90 0 m 1,0,-1
 90 662 l 1,1,-1
 491 662 l 1,2,-1
 481 595 l 1,3,-1
 295 626 l 1,4,5
 246 626 246 626 187 609 c 1,6,-1
 187 366 l 1,7,-1
 409 366 l 1,8,-1
 409 328 l 1,9,-1
 187 328 l 1,10,-1
 187 36 l 1,11,-1
 497 67 l 1,12,-1
 487 0 l 1,13,-1
 90 0 l 1,0,-1
329 886 m 1,14,-1
 455 719 l 1,15,-1
 415 719 l 1,16,-1
 305 812 l 1,17,-1
 196 719 l 1,18,-1
 156 719 l 1,19,-1
 281 886 l 1,20,-1
 329 886 l 1,14,-1
EndSplineSet
EndChar

StartChar: Edieresis
Encoding: 203 203 139
Width: 562
GlyphClass: 2
Flags: W
LayerCount: 2
Fore
SplineSet
90 0 m 1,0,-1
 90 662 l 1,1,-1
 491 662 l 1,2,-1
 481 595 l 1,3,-1
 295 626 l 1,4,5
 246 626 246 626 187 609 c 1,6,-1
 187 366 l 1,7,-1
 409 366 l 1,8,-1
 409 328 l 1,9,-1
 187 328 l 1,10,-1
 187 36 l 1,11,-1
 497 67 l 1,12,-1
 487 0 l 1,13,-1
 90 0 l 1,0,-1
342 761 m 128,-1,15
 342 782 342 782 356.5 796.5 c 128,-1,16
 371 811 371 811 392 811 c 128,-1,17
 413 811 413 811 427.5 796.5 c 128,-1,18
 442 782 442 782 442 761 c 128,-1,19
 442 740 442 740 427.5 725.5 c 128,-1,20
 413 711 413 711 392 711 c 128,-1,21
 371 711 371 711 356.5 725.5 c 128,-1,14
 342 740 342 740 342 761 c 128,-1,15
203 711 m 1,22,-1
 187 711 l 1,23,-1
 177 714 l 2,24,25
 159 720 159 720 149 739 c 1,26,27
 145 751 145 751 145 757 c 2,28,-1
 145 761 l 2,29,30
 145 774 145 774 149 781 c 128,-1,31
 153 788 153 788 155 792 c 1,32,-1
 164 800 l 2,33,34
 172 806 172 806 177 808 c 2,35,-1
 191 811 l 1,36,-1
 199 811 l 1,37,-1
 213 808 l 1,38,-1
 216 806 l 1,39,40
 218 806 218 806 220 804 c 2,41,-1
 232 795 l 1,42,-1
 238 786 l 2,43,44
 245 774 245 774 245 761 c 2,45,-1
 245 757 l 1,46,-1
 242 743 l 2,47,48
 240 738 240 738 234 730 c 1,49,50
 232 725 232 725 229 724 c 1,51,52
 224 719 224 719 213 714 c 1,53,-1
 203 711 l 1,22,-1
EndSplineSet
EndChar

StartChar: Igrave
Encoding: 204 204 140
Width: 272
GlyphClass: 2
Flags: W
LayerCount: 2
Fore
SplineSet
182 662 m 1,0,-1
 182 0 l 1,1,-1
 90 0 l 1,2,-1
 90 662 l 1,3,-1
 182 662 l 1,0,-1
183 719 m 1,4,-1
 143 719 l 1,5,-1
 -45 857 l 1,6,-1
 11 907 l 1,7,-1
 183 719 l 1,4,-1
EndSplineSet
EndChar

StartChar: Iacute
Encoding: 205 205 141
Width: 272
GlyphClass: 2
Flags: W
LayerCount: 2
Fore
SplineSet
182 662 m 1,0,-1
 182 0 l 1,1,-1
 90 0 l 1,2,-1
 90 662 l 1,3,-1
 182 662 l 1,0,-1
133 719 m 1,4,-1
 93 719 l 1,5,-1
 265 907 l 1,6,-1
 321 857 l 1,7,-1
 133 719 l 1,4,-1
EndSplineSet
EndChar

StartChar: Icircumflex
Encoding: 206 206 142
Width: 272
GlyphClass: 2
Flags: W
LayerCount: 2
Fore
SplineSet
182 662 m 1,0,-1
 182 0 l 1,1,-1
 90 0 l 1,2,-1
 90 662 l 1,3,-1
 182 662 l 1,0,-1
159 886 m 1,4,-1
 285 719 l 1,5,-1
 245 719 l 1,6,-1
 135 812 l 1,7,-1
 26 719 l 1,8,-1
 -14 719 l 1,9,-1
 111 886 l 1,10,-1
 159 886 l 1,4,-1
EndSplineSet
EndChar

StartChar: Idieresis
Encoding: 207 207 143
Width: 272
GlyphClass: 2
Flags: W
LayerCount: 2
Fore
SplineSet
182 662 m 1,0,-1
 182 0 l 1,1,-1
 90 0 l 1,2,-1
 90 662 l 1,3,-1
 182 662 l 1,0,-1
187 761 m 128,-1,5
 187 782 187 782 201.5 796.5 c 128,-1,6
 216 811 216 811 237 811 c 128,-1,7
 258 811 258 811 272.5 796.5 c 128,-1,8
 287 782 287 782 287 761 c 128,-1,9
 287 740 287 740 272.5 725.5 c 128,-1,10
 258 711 258 711 237 711 c 128,-1,11
 216 711 216 711 201.5 725.5 c 128,-1,4
 187 740 187 740 187 761 c 128,-1,5
74 798 m 1,12,13
 88 784 88 784 88.5 776 c 128,-1,14
 89 768 89 768 90 765 c 1,15,-1
 90 761 l 2,16,17
 90 755 90 755 90 751 c 0,18,19
 88 741 88 741 83 736 c 1,20,21
 78 725 78 725 74 724 c 1,22,23
 61 711 61 711 44 711 c 128,-1,24
 27 711 27 711 21.5 714 c 128,-1,25
 16 717 16 717 14.5 718 c 128,-1,26
 13 719 13 719 9 721 c 1,27,28
 2 727 2 727 -3 736 c 1,29,30
 -10 741 -10 741 -10 755.5 c 128,-1,31
 -10 770 -10 770 -7 779 c 0,32,33
 5 811 5 811 40 811 c 2,34,-1
 44 811 l 1,35,36
 47 810 47 810 49.5 810 c 128,-1,37
 52 810 52 810 59.5 806.5 c 128,-1,38
 67 803 67 803 74 798 c 1,12,13
EndSplineSet
EndChar

StartChar: Eth
Encoding: 208 208 144
Width: 708
GlyphClass: 2
Flags: W
LayerCount: 2
Fore
SplineSet
90 0 m 1,0,-1
 90 316 l 1,1,-1
 5 316 l 1,2,-1
 5 359 l 1,3,-1
 90 359 l 1,4,-1
 90 662 l 1,5,-1
 279 662 l 2,6,7
 397 662 397 662 492 612 c 0,8,9
 543 586 543 586 581 547 c 128,-1,10
 619 508 619 508 642 447.5 c 128,-1,11
 665 387 665 387 665 313 c 0,12,13
 665 207 665 207 612 134 c 0,14,15
 515 0 515 0 298 0 c 2,16,-1
 90 0 l 1,0,-1
278 34 m 0,17,18
 405 34 405 34 482 109 c 128,-1,19
 559 184 559 184 559 329 c 0,20,21
 559 441 559 441 498 520.5 c 128,-1,22
 437 600 437 600 340 626 c 1,23,24
 253 626 253 626 188 605 c 1,25,-1
 188 359 l 1,26,-1
 332 359 l 1,27,-1
 332 316 l 1,28,-1
 188 316 l 1,29,-1
 188 43 l 1,30,31
 220 34 220 34 278 34 c 0,17,18
EndSplineSet
EndChar

StartChar: Ntilde
Encoding: 209 209 145
Width: 722
GlyphClass: 2
Flags: W
LayerCount: 2
Fore
SplineSet
593 -11 m 1,0,-1
 576 -11 l 1,1,-1
 138 537 l 1,2,-1
 134 537 l 1,3,-1
 134 0 l 1,4,-1
 90 0 l 1,5,-1
 90 662 l 1,6,-1
 164 662 l 1,7,-1
 545 181 l 1,8,-1
 549 181 l 1,9,-1
 549 662 l 1,10,-1
 593 662 l 1,11,-1
 593 -11 l 1,0,-1
344.5 764.5 m 128,-1,13
 294 785 294 785 281 785 c 128,-1,14
 268 785 268 785 257 775 c 128,-1,15
 246 765 246 765 229 742 c 1,16,-1
 202 757 l 1,17,18
 229 822 229 822 304 846 c 1,19,20
 326 846 326 846 376.5 825.5 c 128,-1,21
 427 805 427 805 440 805 c 128,-1,22
 453 805 453 805 464 815 c 128,-1,23
 475 825 475 825 492 848 c 1,24,-1
 519 833 l 1,25,26
 492 768 492 768 417 744 c 1,27,12
 395 744 395 744 344.5 764.5 c 128,-1,13
EndSplineSet
EndChar

StartChar: Ograve
Encoding: 210 210 146
Width: 725
GlyphClass: 2
Flags: W
LayerCount: 2
Fore
SplineSet
391 674 m 0,0,1
 521 674 521 674 606 588.5 c 128,-1,2
 691 503 691 503 691 351 c 0,3,4
 691 253 691 253 657 179.5 c 128,-1,5
 623 106 623 106 568 66 c 0,6,7
 461 -12 461 -12 332 -12 c 128,-1,8
 203 -12 203 -12 118.5 74.5 c 128,-1,9
 34 161 34 161 34 313 c 0,10,11
 34 392 34 392 56.5 455.5 c 128,-1,12
 79 519 79 519 115.5 559 c 128,-1,13
 152 599 152 599 200 626 c 0,14,15
 288 674 288 674 391 674 c 0,0,1
260 45.5 m 128,-1,17
 304 21 304 21 361.5 21 c 128,-1,18
 419 21 419 21 464 50 c 128,-1,19
 509 79 509 79 534 126 c 0,20,21
 585 220 585 220 585 328 c 0,22,23
 585 461 585 461 532 542 c 0,24,25
 473 633 473 633 337 633 c 1,26,27
 240 599 240 599 190 516 c 128,-1,28
 140 433 140 433 140 328 c 0,29,30
 140 200 140 200 190 114 c 0,31,16
 216 70 216 70 260 45.5 c 128,-1,17
436 719 m 1,32,-1
 396 719 l 1,33,-1
 208 857 l 1,34,-1
 264 907 l 1,35,-1
 436 719 l 1,32,-1
EndSplineSet
EndChar

StartChar: Oacute
Encoding: 211 211 147
Width: 725
GlyphClass: 2
Flags: W
LayerCount: 2
Fore
SplineSet
391 674 m 0,0,1
 521 674 521 674 606 588.5 c 128,-1,2
 691 503 691 503 691 351 c 0,3,4
 691 253 691 253 657 179.5 c 128,-1,5
 623 106 623 106 568 66 c 0,6,7
 461 -12 461 -12 332 -12 c 128,-1,8
 203 -12 203 -12 118.5 74.5 c 128,-1,9
 34 161 34 161 34 313 c 0,10,11
 34 392 34 392 56.5 455.5 c 128,-1,12
 79 519 79 519 115.5 559 c 128,-1,13
 152 599 152 599 200 626 c 0,14,15
 288 674 288 674 391 674 c 0,0,1
260 45.5 m 128,-1,17
 304 21 304 21 361.5 21 c 128,-1,18
 419 21 419 21 464 50 c 128,-1,19
 509 79 509 79 534 126 c 0,20,21
 585 220 585 220 585 328 c 0,22,23
 585 461 585 461 532 542 c 0,24,25
 473 633 473 633 337 633 c 1,26,27
 240 599 240 599 190 516 c 128,-1,28
 140 433 140 433 140 328 c 0,29,30
 140 200 140 200 190 114 c 0,31,16
 216 70 216 70 260 45.5 c 128,-1,17
328 719 m 1,32,-1
 288 719 l 1,33,-1
 460 907 l 1,34,-1
 516 857 l 1,35,-1
 328 719 l 1,32,-1
EndSplineSet
EndChar

StartChar: Ocircumflex
Encoding: 212 212 148
Width: 725
GlyphClass: 2
Flags: W
LayerCount: 2
Fore
SplineSet
391 674 m 0,0,1
 521 674 521 674 606 588.5 c 128,-1,2
 691 503 691 503 691 351 c 0,3,4
 691 253 691 253 657 179.5 c 128,-1,5
 623 106 623 106 568 66 c 0,6,7
 461 -12 461 -12 332 -12 c 128,-1,8
 203 -12 203 -12 118.5 74.5 c 128,-1,9
 34 161 34 161 34 313 c 0,10,11
 34 392 34 392 56.5 455.5 c 128,-1,12
 79 519 79 519 115.5 559 c 128,-1,13
 152 599 152 599 200 626 c 0,14,15
 288 674 288 674 391 674 c 0,0,1
260 45.5 m 128,-1,17
 304 21 304 21 361.5 21 c 128,-1,18
 419 21 419 21 464 50 c 128,-1,19
 509 79 509 79 534 126 c 0,20,21
 585 220 585 220 585 328 c 0,22,23
 585 461 585 461 532 542 c 0,24,25
 473 633 473 633 337 633 c 1,26,27
 240 599 240 599 190 516 c 128,-1,28
 140 433 140 433 140 328 c 0,29,30
 140 200 140 200 190 114 c 0,31,16
 216 70 216 70 260 45.5 c 128,-1,17
384 886 m 1,32,-1
 510 719 l 1,33,-1
 470 719 l 1,34,-1
 360 812 l 1,35,-1
 251 719 l 1,36,-1
 211 719 l 1,37,-1
 336 886 l 1,38,-1
 384 886 l 1,32,-1
EndSplineSet
EndChar

StartChar: Otilde
Encoding: 213 213 149
Width: 725
GlyphClass: 2
Flags: W
LayerCount: 2
Fore
SplineSet
391 674 m 0,0,1
 521 674 521 674 606 588.5 c 128,-1,2
 691 503 691 503 691 351 c 0,3,4
 691 253 691 253 657 179.5 c 128,-1,5
 623 106 623 106 568 66 c 0,6,7
 461 -12 461 -12 332 -12 c 128,-1,8
 203 -12 203 -12 118.5 74.5 c 128,-1,9
 34 161 34 161 34 313 c 0,10,11
 34 392 34 392 56.5 455.5 c 128,-1,12
 79 519 79 519 115.5 559 c 128,-1,13
 152 599 152 599 200 626 c 0,14,15
 288 674 288 674 391 674 c 0,0,1
260 45.5 m 128,-1,17
 304 21 304 21 361.5 21 c 128,-1,18
 419 21 419 21 464 50 c 128,-1,19
 509 79 509 79 534 126 c 0,20,21
 585 220 585 220 585 328 c 0,22,23
 585 461 585 461 532 542 c 0,24,25
 473 633 473 633 337 633 c 1,26,27
 240 599 240 599 190 516 c 128,-1,28
 140 433 140 433 140 328 c 0,29,30
 140 200 140 200 190 114 c 0,31,16
 216 70 216 70 260 45.5 c 128,-1,17
346.5 764.5 m 128,-1,33
 296 785 296 785 283 785 c 128,-1,34
 270 785 270 785 259 775 c 128,-1,35
 248 765 248 765 231 742 c 1,36,-1
 204 757 l 1,37,38
 231 822 231 822 306 846 c 1,39,40
 328 846 328 846 378.5 825.5 c 128,-1,41
 429 805 429 805 442 805 c 128,-1,42
 455 805 455 805 466 815 c 128,-1,43
 477 825 477 825 494 848 c 1,44,-1
 521 833 l 1,45,46
 494 768 494 768 419 744 c 1,47,32
 397 744 397 744 346.5 764.5 c 128,-1,33
EndSplineSet
EndChar

StartChar: Odieresis
Encoding: 214 214 150
Width: 725
GlyphClass: 2
Flags: W
LayerCount: 2
Fore
SplineSet
391 674 m 0,0,1
 521 674 521 674 606 588.5 c 128,-1,2
 691 503 691 503 691 351 c 0,3,4
 691 253 691 253 657 179.5 c 128,-1,5
 623 106 623 106 568 66 c 0,6,7
 461 -12 461 -12 332 -12 c 128,-1,8
 203 -12 203 -12 118.5 74.5 c 128,-1,9
 34 161 34 161 34 313 c 0,10,11
 34 392 34 392 56.5 455.5 c 128,-1,12
 79 519 79 519 115.5 559 c 128,-1,13
 152 599 152 599 200 626 c 0,14,15
 288 674 288 674 391 674 c 0,0,1
260 45.5 m 128,-1,17
 304 21 304 21 361.5 21 c 128,-1,18
 419 21 419 21 464 50 c 128,-1,19
 509 79 509 79 534 126 c 0,20,21
 585 220 585 220 585 328 c 0,22,23
 585 461 585 461 532 542 c 0,24,25
 473 633 473 633 337 633 c 1,26,27
 240 599 240 599 190 516 c 128,-1,28
 140 433 140 433 140 328 c 0,29,30
 140 200 140 200 190 114 c 0,31,16
 216 70 216 70 260 45.5 c 128,-1,17
269 711 m 2,32,-1
 257 711 l 1,33,34
 247 713 247 713 242.5 716 c 128,-1,35
 238 719 238 719 234 721 c 0,36,37
 216 735 216 735 215 757 c 1,38,-1
 215 761 l 2,39,40
 215 782 215 782 229.5 796.5 c 128,-1,41
 244 811 244 811 265 811 c 0,42,43
 296 811 296 811 310 782 c 0,44,45
 315 772 315 772 315 761 c 2,46,-1
 315 757 l 2,47,48
 315 756 315 756 314 752 c 0,49,50
 313 741 313 741 308 736 c 1,51,-1
 302 727 l 1,52,-1
 296 721 l 1,53,54
 292 719 292 719 290 717 c 1,55,56
 276 711 276 711 269 711 c 2,32,-1
412 761 m 128,-1,58
 412 782 412 782 426.5 796.5 c 128,-1,59
 441 811 441 811 462 811 c 128,-1,60
 483 811 483 811 497.5 796.5 c 128,-1,61
 512 782 512 782 512 761 c 128,-1,62
 512 740 512 740 497.5 725.5 c 128,-1,63
 483 711 483 711 462 711 c 128,-1,64
 441 711 441 711 426.5 725.5 c 128,-1,57
 412 740 412 740 412 761 c 128,-1,58
EndSplineSet
EndChar

StartChar: multiply
Encoding: 215 215 151
Width: 564
GlyphClass: 2
Flags: W
LayerCount: 2
Fore
SplineSet
240 253 m 1,0,-1
 66 427 l 1,1,-1
 108 469 l 1,2,-1
 282 295 l 1,3,-1
 457 469 l 1,4,-1
 499 427 l 1,5,-1
 325 253 l 1,6,-1
 499 78 l 1,7,-1
 457 36 l 1,8,-1
 282 210 l 1,9,-1
 108 36 l 1,10,-1
 66 78 l 1,11,-1
 240 253 l 1,0,-1
EndSplineSet
EndChar

StartChar: Oslash
Encoding: 216 216 152
Width: 725
GlyphClass: 2
Flags: W
LayerCount: 2
Fore
SplineSet
543 636 m 1,0,-1
 609 734 l 1,1,-1
 658 734 l 1,2,-1
 577 614 l 1,3,4
 691 526 691 526 691 351 c 0,5,6
 691 253 691 253 657 179.5 c 128,-1,7
 623 106 623 106 568 66 c 0,8,9
 461 -12 461 -12 333 -12 c 0,10,11
 246 -12 246 -12 178 27 c 1,12,-1
 105 -80 l 1,13,-1
 56 -80 l 1,14,-1
 145 50 l 1,15,16
 34 140 34 140 34 313 c 0,17,18
 34 392 34 392 56.5 455.5 c 128,-1,19
 79 519 79 519 115.5 559 c 128,-1,20
 152 599 152 599 200 626 c 0,21,22
 288 674 288 674 381.5 674 c 128,-1,23
 475 674 475 674 543 636 c 1,0,-1
362 21 m 0,24,25
 419 21 419 21 464 50 c 128,-1,26
 509 79 509 79 534 126 c 0,27,28
 585 220 585 220 585 328 c 0,29,30
 585 466 585 466 530 545 c 1,31,-1
 215 81 l 1,32,33
 270 21 270 21 362 21 c 0,24,25
190 516 m 128,-1,35
 140 433 140 433 140 315 c 128,-1,36
 140 197 140 197 189 116 c 1,37,-1
 502 576 l 1,38,39
 440 633 440 633 337 633 c 1,40,34
 240 599 240 599 190 516 c 128,-1,35
EndSplineSet
EndChar

StartChar: Ugrave
Encoding: 217 217 153
Width: 657
GlyphClass: 2
Flags: W
LayerCount: 2
Fore
SplineSet
582 662 m 1,0,-1
 582 256 l 2,1,2
 582 163 582 163 562 116 c 0,3,4
 553 95 553 95 533.5 68.5 c 128,-1,5
 514 42 514 42 488 26 c 0,6,7
 422 -12 422 -12 323 -12 c 0,8,9
 75 -12 75 -12 75 243 c 2,10,-1
 75 662 l 1,11,-1
 177 662 l 1,12,-1
 177 235 l 2,13,14
 177 206 177 206 178 188 c 128,-1,15
 179 170 179 170 188.5 137 c 128,-1,16
 198 104 198 104 214.5 84 c 128,-1,17
 231 64 231 64 266.5 48 c 128,-1,18
 302 32 302 32 351 32 c 0,19,20
 538 32 538 32 538 232 c 2,21,-1
 538 662 l 1,22,-1
 582 662 l 1,0,-1
437 719 m 1,23,-1
 397 719 l 1,24,-1
 209 857 l 1,25,-1
 265 907 l 1,26,-1
 437 719 l 1,23,-1
EndSplineSet
EndChar

StartChar: Uacute
Encoding: 218 218 154
Width: 657
GlyphClass: 2
Flags: W
LayerCount: 2
Fore
SplineSet
582 662 m 1,0,-1
 582 256 l 2,1,2
 582 163 582 163 562 116 c 0,3,4
 553 95 553 95 533.5 68.5 c 128,-1,5
 514 42 514 42 488 26 c 0,6,7
 422 -12 422 -12 323 -12 c 0,8,9
 75 -12 75 -12 75 243 c 2,10,-1
 75 662 l 1,11,-1
 177 662 l 1,12,-1
 177 235 l 2,13,14
 177 206 177 206 178 188 c 128,-1,15
 179 170 179 170 188.5 137 c 128,-1,16
 198 104 198 104 214.5 84 c 128,-1,17
 231 64 231 64 266.5 48 c 128,-1,18
 302 32 302 32 351 32 c 0,19,20
 538 32 538 32 538 232 c 2,21,-1
 538 662 l 1,22,-1
 582 662 l 1,0,-1
372 719 m 1,23,-1
 332 719 l 1,24,-1
 504 907 l 1,25,-1
 560 857 l 1,26,-1
 372 719 l 1,23,-1
EndSplineSet
EndChar

StartChar: Ucircumflex
Encoding: 219 219 155
Width: 657
GlyphClass: 2
Flags: W
LayerCount: 2
Fore
SplineSet
582 662 m 1,0,-1
 582 256 l 2,1,2
 582 163 582 163 562 116 c 0,3,4
 553 95 553 95 533.5 68.5 c 128,-1,5
 514 42 514 42 488 26 c 0,6,7
 422 -12 422 -12 323 -12 c 0,8,9
 75 -12 75 -12 75 243 c 2,10,-1
 75 662 l 1,11,-1
 177 662 l 1,12,-1
 177 235 l 2,13,14
 177 206 177 206 178 188 c 128,-1,15
 179 170 179 170 188.5 137 c 128,-1,16
 198 104 198 104 214.5 84 c 128,-1,17
 231 64 231 64 266.5 48 c 128,-1,18
 302 32 302 32 351 32 c 0,19,20
 538 32 538 32 538 232 c 2,21,-1
 538 662 l 1,22,-1
 582 662 l 1,0,-1
378 886 m 1,23,-1
 504 719 l 1,24,-1
 464 719 l 1,25,-1
 354 812 l 1,26,-1
 245 719 l 1,27,-1
 205 719 l 1,28,-1
 330 886 l 1,29,-1
 378 886 l 1,23,-1
EndSplineSet
EndChar

StartChar: Udieresis
Encoding: 220 220 156
Width: 657
GlyphClass: 2
Flags: W
LayerCount: 2
Fore
SplineSet
582 662 m 1,0,-1
 582 256 l 2,1,2
 582 163 582 163 562 116 c 0,3,4
 553 95 553 95 533.5 68.5 c 128,-1,5
 514 42 514 42 488 26 c 0,6,7
 422 -12 422 -12 323 -12 c 0,8,9
 75 -12 75 -12 75 243 c 2,10,-1
 75 662 l 1,11,-1
 177 662 l 1,12,-1
 177 235 l 2,13,14
 177 206 177 206 178 188 c 128,-1,15
 179 170 179 170 188.5 137 c 128,-1,16
 198 104 198 104 214.5 84 c 128,-1,17
 231 64 231 64 266.5 48 c 128,-1,18
 302 32 302 32 351 32 c 0,19,20
 538 32 538 32 538 232 c 2,21,-1
 538 662 l 1,22,-1
 582 662 l 1,0,-1
402 761 m 128,-1,24
 402 782 402 782 416.5 796.5 c 128,-1,25
 431 811 431 811 452 811 c 128,-1,26
 473 811 473 811 487.5 796.5 c 128,-1,27
 502 782 502 782 502 761 c 128,-1,28
 502 740 502 740 487.5 725.5 c 128,-1,29
 473 711 473 711 452 711 c 128,-1,30
 431 711 431 711 416.5 725.5 c 128,-1,23
 402 740 402 740 402 761 c 128,-1,24
205 753 m 1,31,-1
 205 761 l 2,32,33
 205 782 205 782 219.5 796.5 c 128,-1,34
 234 811 234 811 255 811 c 2,35,-1
 259 811 l 1,36,-1
 273 808 l 1,37,-1
 289 798 l 1,38,-1
 292 795 l 1,39,-1
 298 786 l 2,40,41
 300 784 300 784 300 782 c 1,42,-1
 302 779 l 1,43,-1
 305 765 l 1,44,-1
 305 757 l 2,45,46
 305 756 305 756 304 752 c 0,47,48
 303 738 303 738 289 724 c 1,49,50
 274 711 274 711 257 711 c 128,-1,51
 240 711 240 711 234 715 c 128,-1,52
 228 719 228 719 224 721 c 0,53,54
 208 734 208 734 205 753 c 1,31,-1
EndSplineSet
EndChar

StartChar: Yacute
Encoding: 221 221 157
Width: 557
GlyphClass: 2
Flags: W
LayerCount: 2
Fore
SplineSet
343 0 m 1,0,-1
 246 0 l 1,1,-1
 246 246 l 1,2,-1
 20 662 l 1,3,-1
 129 662 l 1,4,-1
 314 282 l 1,5,-1
 487 662 l 1,6,-1
 537 662 l 1,7,-1
 343 251 l 1,8,-1
 343 0 l 1,0,-1
303 719 m 1,9,-1
 263 719 l 1,10,-1
 435 907 l 1,11,-1
 491 857 l 1,12,-1
 303 719 l 1,9,-1
EndSplineSet
EndChar

StartChar: Thorn
Encoding: 222 222 158
Width: 556
GlyphClass: 2
Flags: W
LayerCount: 2
Fore
SplineSet
187 194 m 1,0,-1
 276 194 l 2,1,2
 323 194 323 194 356.5 212 c 128,-1,3
 390 230 390 230 405 258 c 0,4,5
 432 308 432 308 432 355 c 0,6,7
 432 378 432 378 420 410 c 0,8,9
 396 476 396 476 321 496 c 1,10,11
 249 496 249 496 187 479 c 1,12,-1
 187 194 l 1,0,-1
187 532 m 1,13,-1
 305 532 l 2,14,15
 406 532 406 532 470.5 486 c 128,-1,16
 535 440 535 440 535 360 c 0,17,18
 535 264 535 264 464.5 214.5 c 128,-1,19
 394 165 394 165 273 165 c 2,20,-1
 187 165 l 1,21,-1
 187 0 l 1,22,-1
 90 0 l 1,23,-1
 90 662 l 1,24,-1
 187 662 l 1,25,-1
 187 532 l 1,13,-1
EndSplineSet
EndChar

StartChar: germandbls
Encoding: 223 223 159
Width: 579
GlyphClass: 2
Flags: W
LayerCount: 2
Fore
SplineSet
466 180 m 0,0,1
 466 215 466 215 451 244.5 c 128,-1,2
 436 274 436 274 414 292 c 128,-1,3
 392 310 392 310 370 324.5 c 128,-1,4
 348 339 348 339 333 352 c 128,-1,5
 318 365 318 365 318 379.5 c 128,-1,6
 318 394 318 394 341 424 c 128,-1,7
 364 454 364 454 386.5 488.5 c 128,-1,8
 409 523 409 523 409 550 c 128,-1,9
 409 577 409 577 386.5 600.5 c 128,-1,10
 364 624 364 624 329 635 c 1,11,12
 277 635 277 635 185 607 c 1,13,-1
 185 0 l 1,14,-1
 103 0 l 1,15,-1
 103 416 l 1,16,-1
 20 432 l 1,17,-1
 20 452 l 1,18,-1
 104 452 l 1,19,-1
 104 655 l 1,20,21
 197 683 197 683 299.5 683 c 128,-1,22
 402 683 402 683 449.5 649.5 c 128,-1,23
 497 616 497 616 497 563 c 0,24,25
 497 533 497 533 476.5 498.5 c 128,-1,26
 456 464 456 464 435.5 443 c 128,-1,27
 415 422 415 422 375 386 c 1,28,29
 553 294 553 294 553 180 c 0,30,31
 553 86 553 86 488.5 37 c 128,-1,32
 424 -12 424 -12 352.5 -12 c 128,-1,33
 281 -12 281 -12 208 14 c 1,34,-1
 231 78 l 1,35,36
 291 48 291 48 343 30 c 1,37,38
 395 38 395 38 430.5 75 c 128,-1,39
 466 112 466 112 466 180 c 0,0,1
EndSplineSet
EndChar

StartChar: agrave
Encoding: 224 224 160
Width: 444
GlyphClass: 2
Flags: W
LayerCount: 2
Fore
SplineSet
285 106 m 2,0,-1
 285 209 l 1,1,2
 213 204 213 204 167 177 c 128,-1,3
 121 150 121 150 121 119 c 128,-1,4
 121 88 121 88 137 65.5 c 128,-1,5
 153 43 153 43 178 34 c 1,6,7
 211 40 211 40 248 67 c 128,-1,8
 285 94 285 94 285 106 c 2,0,-1
367 133 m 2,9,10
 367 62 367 62 419 25 c 1,11,-1
 367 -13 l 1,12,-1
 286 60 l 1,13,14
 207 -12 207 -12 140 -12 c 0,15,16
 96 -12 96 -12 64.5 16 c 128,-1,17
 33 44 33 44 33 86.5 c 128,-1,18
 33 129 33 129 58.5 157 c 128,-1,19
 84 185 84 185 126 200 c 0,20,21
 198 227 198 227 285 234 c 1,22,-1
 285 328 l 2,23,24
 285 411 285 411 189 411 c 0,25,26
 134 411 134 411 59 387 c 1,27,-1
 50 412 l 1,28,29
 70 428 70 428 119.5 446 c 128,-1,30
 169 464 169 464 214 464 c 128,-1,31
 259 464 259 464 289.5 452 c 128,-1,32
 320 440 320 440 334.5 425 c 128,-1,33
 349 410 349 410 357 384 c 128,-1,34
 365 358 365 358 366 343 c 128,-1,35
 367 328 367 328 367 303 c 2,36,-1
 367 133 l 2,9,10
298 507 m 1,37,-1
 258 507 l 1,38,-1
 70 645 l 1,39,-1
 126 695 l 1,40,-1
 298 507 l 1,37,-1
EndSplineSet
EndChar

StartChar: aacute
Encoding: 225 225 161
Width: 444
GlyphClass: 2
Flags: W
LayerCount: 2
Fore
SplineSet
285 106 m 2,0,-1
 285 209 l 1,1,2
 213 204 213 204 167 177 c 128,-1,3
 121 150 121 150 121 119 c 128,-1,4
 121 88 121 88 137 65.5 c 128,-1,5
 153 43 153 43 178 34 c 1,6,7
 211 40 211 40 248 67 c 128,-1,8
 285 94 285 94 285 106 c 2,0,-1
367 133 m 2,9,10
 367 62 367 62 419 25 c 1,11,-1
 367 -13 l 1,12,-1
 286 60 l 1,13,14
 207 -12 207 -12 140 -12 c 0,15,16
 96 -12 96 -12 64.5 16 c 128,-1,17
 33 44 33 44 33 86.5 c 128,-1,18
 33 129 33 129 58.5 157 c 128,-1,19
 84 185 84 185 126 200 c 0,20,21
 198 227 198 227 285 234 c 1,22,-1
 285 328 l 2,23,24
 285 411 285 411 189 411 c 0,25,26
 134 411 134 411 59 387 c 1,27,-1
 50 412 l 1,28,29
 70 428 70 428 119.5 446 c 128,-1,30
 169 464 169 464 214 464 c 128,-1,31
 259 464 259 464 289.5 452 c 128,-1,32
 320 440 320 440 334.5 425 c 128,-1,33
 349 410 349 410 357 384 c 128,-1,34
 365 358 365 358 366 343 c 128,-1,35
 367 328 367 328 367 303 c 2,36,-1
 367 133 l 2,9,10
189 507 m 1,37,-1
 149 507 l 1,38,-1
 321 695 l 1,39,-1
 377 645 l 1,40,-1
 189 507 l 1,37,-1
EndSplineSet
EndChar

StartChar: acircumflex
Encoding: 226 226 162
Width: 444
GlyphClass: 2
Flags: W
LayerCount: 2
Fore
SplineSet
378 507 m 1,0,-1
 344 507 l 1,1,-1
 222 610 l 1,2,-1
 101 507 l 1,3,-1
 67 507 l 1,4,-1
 191 674 l 1,5,-1
 253 674 l 1,6,-1
 378 507 l 1,0,-1
285 106 m 2,7,-1
 285 209 l 1,8,9
 213 204 213 204 167 177 c 128,-1,10
 121 150 121 150 121 119 c 128,-1,11
 121 88 121 88 137 65.5 c 128,-1,12
 153 43 153 43 178 34 c 1,13,14
 211 40 211 40 248 67 c 128,-1,15
 285 94 285 94 285 106 c 2,7,-1
367 133 m 2,16,17
 367 62 367 62 419 25 c 1,18,-1
 367 -13 l 1,19,-1
 286 60 l 1,20,21
 207 -12 207 -12 140 -12 c 0,22,23
 96 -12 96 -12 64.5 16 c 128,-1,24
 33 44 33 44 33 86.5 c 128,-1,25
 33 129 33 129 58.5 157 c 128,-1,26
 84 185 84 185 126 200 c 0,27,28
 198 227 198 227 285 234 c 1,29,-1
 285 328 l 2,30,31
 285 411 285 411 189 411 c 0,32,33
 134 411 134 411 59 387 c 1,34,-1
 50 412 l 1,35,36
 70 428 70 428 119.5 446 c 128,-1,37
 169 464 169 464 214 464 c 128,-1,38
 259 464 259 464 289.5 452 c 128,-1,39
 320 440 320 440 334.5 425 c 128,-1,40
 349 410 349 410 357 384 c 128,-1,41
 365 358 365 358 366 343 c 128,-1,42
 367 328 367 328 367 303 c 2,43,-1
 367 133 l 2,16,17
EndSplineSet
EndChar

StartChar: atilde
Encoding: 227 227 163
Width: 444
GlyphClass: 2
Flags: W
LayerCount: 2
Fore
SplineSet
285 106 m 2,0,-1
 285 209 l 1,1,2
 213 204 213 204 167 177 c 128,-1,3
 121 150 121 150 121 119 c 128,-1,4
 121 88 121 88 137 65.5 c 128,-1,5
 153 43 153 43 178 34 c 1,6,7
 211 40 211 40 248 67 c 128,-1,8
 285 94 285 94 285 106 c 2,0,-1
367 133 m 2,9,10
 367 62 367 62 419 25 c 1,11,-1
 367 -13 l 1,12,-1
 286 60 l 1,13,14
 207 -12 207 -12 140 -12 c 0,15,16
 96 -12 96 -12 64.5 16 c 128,-1,17
 33 44 33 44 33 86.5 c 128,-1,18
 33 129 33 129 58.5 157 c 128,-1,19
 84 185 84 185 126 200 c 0,20,21
 198 227 198 227 285 234 c 1,22,-1
 285 328 l 2,23,24
 285 411 285 411 189 411 c 0,25,26
 134 411 134 411 59 387 c 1,27,-1
 50 412 l 1,28,29
 70 428 70 428 119.5 446 c 128,-1,30
 169 464 169 464 214 464 c 128,-1,31
 259 464 259 464 289.5 452 c 128,-1,32
 320 440 320 440 334.5 425 c 128,-1,33
 349 410 349 410 357 384 c 128,-1,34
 365 358 365 358 366 343 c 128,-1,35
 367 328 367 328 367 303 c 2,36,-1
 367 133 l 2,9,10
206.5 552.5 m 128,-1,38
 156 573 156 573 143 573 c 128,-1,39
 130 573 130 573 119 563 c 128,-1,40
 108 553 108 553 91 530 c 1,41,-1
 64 545 l 1,42,43
 91 610 91 610 166 634 c 1,44,45
 188 634 188 634 238.5 613.5 c 128,-1,46
 289 593 289 593 302 593 c 128,-1,47
 315 593 315 593 326 603 c 128,-1,48
 337 613 337 613 354 636 c 1,49,-1
 381 621 l 1,50,51
 354 556 354 556 279 532 c 1,52,37
 257 532 257 532 206.5 552.5 c 128,-1,38
EndSplineSet
EndChar

StartChar: adieresis
Encoding: 228 228 164
Width: 444
GlyphClass: 2
Flags: W
LayerCount: 2
Fore
SplineSet
367 133 m 2,0,1
 367 62 367 62 419 25 c 1,2,-1
 367 -13 l 1,3,-1
 286 60 l 1,4,5
 207 -12 207 -12 140 -12 c 0,6,7
 96 -12 96 -12 64.5 16 c 128,-1,8
 33 44 33 44 33 86.5 c 128,-1,9
 33 129 33 129 58.5 157 c 128,-1,10
 84 185 84 185 126 200 c 0,11,12
 198 227 198 227 285 234 c 1,13,-1
 285 328 l 2,14,15
 285 411 285 411 189 411 c 0,16,17
 134 411 134 411 59 387 c 1,18,-1
 50 412 l 1,19,20
 70 428 70 428 119.5 446 c 128,-1,21
 169 464 169 464 214 464 c 128,-1,22
 259 464 259 464 289.5 452 c 128,-1,23
 320 440 320 440 334.5 425 c 128,-1,24
 349 410 349 410 357 384 c 128,-1,25
 365 358 365 358 366 343 c 128,-1,26
 367 328 367 328 367 303 c 2,27,-1
 367 133 l 2,0,1
285 106 m 2,28,-1
 285 209 l 1,29,30
 213 204 213 204 167 177 c 128,-1,31
 121 150 121 150 121 119 c 128,-1,32
 121 88 121 88 137 65.5 c 128,-1,33
 153 43 153 43 178 34 c 1,34,35
 211 40 211 40 248 67 c 128,-1,36
 285 94 285 94 285 106 c 2,28,-1
128 541 m 1,37,-1
 116 541 l 2,38,39
 110 541 110 541 98 545 c 1,40,41
 72 558 72 558 70 587 c 1,42,-1
 70 591 l 2,43,44
 70 623 70 623 98 636 c 0,45,46
 108 641 108 641 118 641 c 0,47,48
 138 641 138 641 145 634 c 1,49,-1
 154 628 l 1,50,51
 165 617 165 617 165 612 c 1,52,53
 168 607 168 607 170 595 c 1,54,-1
 170 591 l 2,55,56
 170 564 170 564 145 547 c 1,57,-1
 128 541 l 1,37,-1
267 591 m 128,-1,59
 267 612 267 612 281.5 626.5 c 128,-1,60
 296 641 296 641 317 641 c 128,-1,61
 338 641 338 641 352.5 626.5 c 128,-1,62
 367 612 367 612 367 591 c 128,-1,63
 367 570 367 570 352.5 555.5 c 128,-1,64
 338 541 338 541 317 541 c 128,-1,65
 296 541 296 541 281.5 555.5 c 128,-1,58
 267 570 267 570 267 591 c 128,-1,59
EndSplineSet
EndChar

StartChar: aring
Encoding: 229 229 165
Width: 444
GlyphClass: 2
Flags: W
LayerCount: 2
Fore
SplineSet
123 611 m 128,-1,1
 123 652 123 652 151.5 681.5 c 128,-1,2
 180 711 180 711 221.5 711 c 128,-1,3
 263 711 263 711 292.5 681.5 c 128,-1,4
 322 652 322 652 322 611 c 128,-1,5
 322 570 322 570 292.5 541 c 128,-1,6
 263 512 263 512 221.5 512 c 128,-1,7
 180 512 180 512 151.5 541 c 128,-1,0
 123 570 123 570 123 611 c 128,-1,1
269 657.5 m 128,-1,9
 250 677 250 677 220.5 677 c 128,-1,10
 191 677 191 677 174 655.5 c 128,-1,11
 157 634 157 634 157 611.5 c 128,-1,12
 157 589 157 589 173.5 567.5 c 128,-1,13
 190 546 190 546 219.5 546 c 128,-1,14
 249 546 249 546 268.5 565 c 128,-1,15
 288 584 288 584 288 611 c 128,-1,8
 288 638 288 638 269 657.5 c 128,-1,9
285 106 m 2,16,-1
 285 209 l 1,17,18
 213 204 213 204 167 177 c 128,-1,19
 121 150 121 150 121 119 c 128,-1,20
 121 88 121 88 137 65.5 c 128,-1,21
 153 43 153 43 178 34 c 1,22,23
 211 40 211 40 248 67 c 128,-1,24
 285 94 285 94 285 106 c 2,16,-1
367 133 m 2,25,26
 367 62 367 62 419 25 c 1,27,-1
 367 -13 l 1,28,-1
 286 60 l 1,29,30
 207 -12 207 -12 140 -12 c 0,31,32
 96 -12 96 -12 64.5 16 c 128,-1,33
 33 44 33 44 33 86.5 c 128,-1,34
 33 129 33 129 58.5 157 c 128,-1,35
 84 185 84 185 126 200 c 0,36,37
 198 227 198 227 285 234 c 1,38,-1
 285 328 l 2,39,40
 285 411 285 411 189 411 c 0,41,42
 134 411 134 411 59 387 c 1,43,-1
 50 412 l 1,44,45
 70 428 70 428 119.5 446 c 128,-1,46
 169 464 169 464 214 464 c 128,-1,47
 259 464 259 464 289.5 452 c 128,-1,48
 320 440 320 440 334.5 425 c 128,-1,49
 349 410 349 410 357 384 c 128,-1,50
 365 358 365 358 366 343 c 128,-1,51
 367 328 367 328 367 303 c 2,52,-1
 367 133 l 2,25,26
EndSplineSet
EndChar

StartChar: ae
Encoding: 230 230 166
Width: 704
GlyphClass: 2
Flags: W
LayerCount: 2
Fore
SplineSet
216 464 m 0,0,1
 321 464 321 464 352 398 c 1,2,3
 416 464 416 464 512 464 c 0,4,5
 585 464 585 464 634 406 c 128,-1,6
 683 348 683 348 683 245 c 1,7,-1
 367 245 l 1,8,-1
 367 198 l 1,9,10
 378 115 378 115 424 78.5 c 128,-1,11
 470 42 470 42 535 42 c 128,-1,12
 600 42 600 42 659 69 c 1,13,-1
 659 34 l 1,14,15
 578 -12 578 -12 502 -12 c 0,16,17
 375 -12 375 -12 317 82 c 1,18,19
 276 44 276 44 226.5 16 c 128,-1,20
 177 -12 177 -12 136.5 -12 c 128,-1,21
 96 -12 96 -12 64.5 16 c 128,-1,22
 33 44 33 44 33 86.5 c 128,-1,23
 33 129 33 129 58.5 157 c 128,-1,24
 84 185 84 185 126 200 c 0,25,26
 198 227 198 227 285 234 c 1,27,-1
 285 326 l 2,28,29
 285 411 285 411 189 411 c 0,30,31
 134 411 134 411 59 387 c 1,32,-1
 50 412 l 1,33,34
 70 428 70 428 119.5 446 c 128,-1,35
 169 464 169 464 216 464 c 0,0,1
461 417 m 1,36,37
 426 400 426 400 401 362 c 128,-1,38
 376 324 376 324 368 275 c 1,39,-1
 602 275 l 1,40,41
 599 317 599 317 582.5 347.5 c 128,-1,42
 566 378 566 378 543 392 c 0,43,44
 500 417 500 417 461 417 c 1,36,37
167 177 m 128,-1,46
 121 150 121 150 121 119 c 128,-1,47
 121 88 121 88 137 65.5 c 128,-1,48
 153 43 153 43 178 34 c 1,49,50
 208 40 208 40 249 69 c 128,-1,51
 290 98 290 98 301 117 c 1,52,53
 285 160 285 160 285 209 c 1,54,45
 213 204 213 204 167 177 c 128,-1,46
EndSplineSet
EndChar

StartChar: ccedilla
Encoding: 231 231 167
Width: 436
GlyphClass: 2
Flags: W
LayerCount: 2
Fore
SplineSet
26 212 m 0,0,1
 26 325 26 325 87.5 394.5 c 128,-1,2
 149 464 149 464 244 464 c 0,3,4
 297 464 297 464 363 438 c 1,5,-1
 353 372 l 1,6,7
 265 418 265 418 202 418 c 1,8,9
 150 392 150 392 127 334 c 128,-1,10
 104 276 104 276 104 220 c 0,11,12
 104 144 104 144 148.5 93.5 c 128,-1,13
 193 43 193 43 255 43 c 128,-1,14
 317 43 317 43 369 70 c 1,15,-1
 369 35 l 1,16,17
 297 -12 297 -12 228 -12 c 2,18,-1
 218 -12 l 1,19,-1
 198 -65 l 1,20,21
 231 -65 231 -65 262 -82.5 c 128,-1,22
 293 -100 293 -100 310 -132 c 1,23,24
 310 -166 310 -166 274.5 -190.5 c 128,-1,25
 239 -215 239 -215 189.5 -215 c 128,-1,26
 140 -215 140 -215 101 -199 c 1,27,-1
 115 -168 l 1,28,29
 144 -180 144 -180 172.5 -180 c 128,-1,30
 201 -180 201 -180 218 -168.5 c 128,-1,31
 235 -157 235 -157 235 -141 c 1,32,33
 214 -100 214 -100 148 -100 c 1,34,-1
 185 -8 l 1,35,36
 114 6 114 6 70 63.5 c 128,-1,37
 26 121 26 121 26 212 c 0,0,1
EndSplineSet
EndChar

StartChar: egrave
Encoding: 232 232 168
Width: 444
GlyphClass: 2
Flags: W
LayerCount: 2
Fore
SplineSet
105 246 m 1,0,1
 105 138 105 138 153.5 90.5 c 128,-1,2
 202 43 202 43 271.5 43 c 128,-1,3
 341 43 341 43 400 70 c 1,4,-1
 400 35 l 1,5,6
 318 -12 318 -12 243 -12 c 0,7,8
 146 -12 146 -12 86 47 c 128,-1,9
 26 106 26 106 26 218 c 128,-1,10
 26 330 26 330 92.5 397 c 128,-1,11
 159 464 159 464 253 464 c 0,12,13
 326 464 326 464 375 406.5 c 128,-1,14
 424 349 424 349 424 246 c 1,15,-1
 105 246 l 1,0,1
202 417 m 1,16,17
 167 400 167 400 142 362.5 c 128,-1,18
 117 325 117 325 109 276 c 1,19,-1
 343 276 l 1,20,21
 340 318 340 318 323.5 348 c 128,-1,22
 307 378 307 378 284 392 c 0,23,24
 243 417 243 417 202 417 c 1,16,17
299 507 m 1,25,-1
 259 507 l 1,26,-1
 71 645 l 1,27,-1
 127 695 l 1,28,-1
 299 507 l 1,25,-1
EndSplineSet
EndChar

StartChar: eacute
Encoding: 233 233 169
Width: 444
GlyphClass: 2
Flags: W
LayerCount: 2
Fore
SplineSet
105 246 m 1,0,1
 105 138 105 138 153.5 90.5 c 128,-1,2
 202 43 202 43 271.5 43 c 128,-1,3
 341 43 341 43 400 70 c 1,4,-1
 400 35 l 1,5,6
 318 -12 318 -12 243 -12 c 0,7,8
 146 -12 146 -12 86 47 c 128,-1,9
 26 106 26 106 26 218 c 128,-1,10
 26 330 26 330 92.5 397 c 128,-1,11
 159 464 159 464 253 464 c 0,12,13
 326 464 326 464 375 406.5 c 128,-1,14
 424 349 424 349 424 246 c 1,15,-1
 105 246 l 1,0,1
202 417 m 1,16,17
 167 400 167 400 142 362.5 c 128,-1,18
 117 325 117 325 109 276 c 1,19,-1
 343 276 l 1,20,21
 340 318 340 318 323.5 348 c 128,-1,22
 307 378 307 378 284 392 c 0,23,24
 243 417 243 417 202 417 c 1,16,17
231 507 m 1,25,-1
 191 507 l 1,26,-1
 363 695 l 1,27,-1
 419 645 l 1,28,-1
 231 507 l 1,25,-1
EndSplineSet
EndChar

StartChar: ecircumflex
Encoding: 234 234 170
Width: 444
GlyphClass: 2
Flags: W
LayerCount: 2
Fore
SplineSet
378 507 m 1,0,-1
 344 507 l 1,1,-1
 222 610 l 1,2,-1
 101 507 l 1,3,-1
 67 507 l 1,4,-1
 191 674 l 1,5,-1
 253 674 l 1,6,-1
 378 507 l 1,0,-1
105 246 m 1,7,8
 105 138 105 138 153.5 90.5 c 128,-1,9
 202 43 202 43 271.5 43 c 128,-1,10
 341 43 341 43 400 70 c 1,11,-1
 400 35 l 1,12,13
 318 -12 318 -12 243 -12 c 0,14,15
 146 -12 146 -12 86 47 c 128,-1,16
 26 106 26 106 26 218 c 128,-1,17
 26 330 26 330 92.5 397 c 128,-1,18
 159 464 159 464 253 464 c 0,19,20
 326 464 326 464 375 406.5 c 128,-1,21
 424 349 424 349 424 246 c 1,22,-1
 105 246 l 1,7,8
202 417 m 1,23,24
 167 400 167 400 142 362.5 c 128,-1,25
 117 325 117 325 109 276 c 1,26,-1
 343 276 l 1,27,28
 340 318 340 318 323.5 348 c 128,-1,29
 307 378 307 378 284 392 c 0,30,31
 243 417 243 417 202 417 c 1,23,24
EndSplineSet
EndChar

StartChar: edieresis
Encoding: 235 235 171
Width: 444
GlyphClass: 2
Flags: W
LayerCount: 2
Fore
SplineSet
105 246 m 1,0,1
 105 138 105 138 153.5 90.5 c 128,-1,2
 202 43 202 43 271.5 43 c 128,-1,3
 341 43 341 43 400 70 c 1,4,-1
 400 35 l 1,5,6
 318 -12 318 -12 243 -12 c 0,7,8
 146 -12 146 -12 86 47 c 128,-1,9
 26 106 26 106 26 218 c 128,-1,10
 26 330 26 330 92.5 397 c 128,-1,11
 159 464 159 464 253 464 c 0,12,13
 326 464 326 464 375 406.5 c 128,-1,14
 424 349 424 349 424 246 c 1,15,-1
 105 246 l 1,0,1
202 417 m 1,16,17
 167 400 167 400 142 362.5 c 128,-1,18
 117 325 117 325 109 276 c 1,19,-1
 343 276 l 1,20,21
 340 318 340 318 323.5 348 c 128,-1,22
 307 378 307 378 284 392 c 0,23,24
 243 417 243 417 202 417 c 1,16,17
86 583 m 1,25,-1
 86 595 l 2,26,27
 86 602 86 602 90 612 c 1,28,-1
 96 622 l 1,29,30
 115 641 115 641 130 641 c 0,31,32
 157 641 157 641 173 625 c 1,33,-1
 179 616 l 2,34,35
 181 614 181 614 183 610 c 128,-1,36
 185 606 185 606 185 602 c 128,-1,37
 185 598 185 598 186 595 c 1,38,-1
 186 591 l 2,39,40
 186 573 186 573 179 566 c 1,41,42
 174 555 174 555 170 554 c 1,43,-1
 167 551 l 1,44,45
 163 549 163 549 161 547 c 1,46,47
 147 541 147 541 132 541 c 128,-1,48
 117 541 117 541 103 553 c 128,-1,49
 89 565 89 565 86 583 c 1,25,-1
283 591 m 128,-1,51
 283 612 283 612 297.5 626.5 c 128,-1,52
 312 641 312 641 333 641 c 128,-1,53
 354 641 354 641 368.5 626.5 c 128,-1,54
 383 612 383 612 383 591 c 128,-1,55
 383 570 383 570 368.5 555.5 c 128,-1,56
 354 541 354 541 333 541 c 128,-1,57
 312 541 312 541 297.5 555.5 c 128,-1,50
 283 570 283 570 283 591 c 128,-1,51
EndSplineSet
EndChar

StartChar: igrave
Encoding: 236 236 172
Width: 233
GlyphClass: 2
Flags: W
LayerCount: 2
Fore
SplineSet
197 507 m 1,0,-1
 157 507 l 1,1,-1
 -31 645 l 1,2,-1
 25 695 l 1,3,-1
 197 507 l 1,0,-1
75 0 m 1,4,-1
 75 452 l 1,5,-1
 158 452 l 1,6,-1
 158 0 l 1,7,-1
 75 0 l 1,4,-1
EndSplineSet
EndChar

StartChar: iacute
Encoding: 237 237 173
Width: 233
GlyphClass: 2
Flags: W
LayerCount: 2
Fore
SplineSet
105 507 m 1,0,-1
 65 507 l 1,1,-1
 237 695 l 1,2,-1
 293 645 l 1,3,-1
 105 507 l 1,0,-1
75 0 m 1,4,-1
 75 452 l 1,5,-1
 158 452 l 1,6,-1
 158 0 l 1,7,-1
 75 0 l 1,4,-1
EndSplineSet
EndChar

StartChar: icircumflex
Encoding: 238 238 174
Width: 233
GlyphClass: 2
Flags: W
LayerCount: 2
Fore
SplineSet
75 0 m 1,0,-1
 75 452 l 1,1,-1
 158 452 l 1,2,-1
 158 0 l 1,3,-1
 75 0 l 1,0,-1
140 674 m 1,4,-1
 266 507 l 1,5,-1
 226 507 l 1,6,-1
 116 600 l 1,7,-1
 7 507 l 1,8,-1
 -33 507 l 1,9,-1
 92 674 l 1,10,-1
 140 674 l 1,4,-1
EndSplineSet
EndChar

StartChar: idieresis
Encoding: 239 239 175
Width: 233
GlyphClass: 2
Flags: W
LayerCount: 2
Fore
SplineSet
75 0 m 1,0,-1
 75 452 l 1,1,-1
 158 452 l 1,2,-1
 158 0 l 1,3,-1
 75 0 l 1,0,-1
165 591 m 128,-1,5
 165 612 165 612 179.5 626.5 c 128,-1,6
 194 641 194 641 215 641 c 128,-1,7
 236 641 236 641 250.5 626.5 c 128,-1,8
 265 612 265 612 265 591 c 128,-1,9
 265 570 265 570 250.5 555.5 c 128,-1,10
 236 541 236 541 215 541 c 128,-1,11
 194 541 194 541 179.5 555.5 c 128,-1,4
 165 570 165 570 165 591 c 128,-1,5
52 628 m 1,12,13
 66 614 66 614 66.5 606 c 128,-1,14
 67 598 67 598 68 595 c 1,15,-1
 68 591 l 2,16,17
 68 585 68 585 68 581 c 0,18,19
 66 571 66 571 61 566 c 1,20,21
 56 555 56 555 52 554 c 1,22,23
 39 541 39 541 22 541 c 128,-1,24
 5 541 5 541 0 544 c 128,-1,25
 -5 547 -5 547 -7 547 c 1,26,27
 -9 549 -9 549 -13 551 c 1,28,29
 -20 557 -20 557 -25 566 c 1,30,31
 -32 571 -32 571 -32 585.5 c 128,-1,32
 -32 600 -32 600 -29 609 c 0,33,34
 -17 641 -17 641 18 641 c 2,35,-1
 22 641 l 1,36,37
 25 640 25 640 27.5 640 c 128,-1,38
 30 640 30 640 37.5 636.5 c 128,-1,39
 45 633 45 633 52 628 c 1,12,13
EndSplineSet
EndChar

StartChar: eth
Encoding: 240 240 176
Width: 500
GlyphClass: 2
Flags: W
LayerCount: 2
Fore
SplineSet
471 249 m 0,0,1
 471 181 471 181 449.5 129 c 128,-1,2
 428 77 428 77 392 47 c 0,3,4
 321 -12 321 -12 231.5 -12 c 128,-1,5
 142 -12 142 -12 84.5 48 c 128,-1,6
 27 108 27 108 27 213 c 0,7,8
 27 280 27 280 50 331.5 c 128,-1,9
 73 383 73 383 108 410 c 0,10,11
 176 464 176 464 238 464 c 0,12,13
 314 464 314 464 362 402 c 1,14,-1
 366 405 l 1,15,16
 348 509 348 509 274 580 c 1,17,-1
 191 535 l 1,18,-1
 147 557 l 1,19,-1
 240 607 l 1,20,21
 193 639 193 639 132 653 c 1,22,-1
 144 683 l 1,23,24
 221 670 221 670 282 630 c 1,25,-1
 374 681 l 1,26,-1
 418 658 l 1,27,-1
 319 604 l 1,28,29
 393 542 393 542 432 448.5 c 128,-1,30
 471 355 471 355 471 249 c 0,0,1
248 22 m 0,31,32
 292 22 292 22 323 56 c 0,33,34
 379 116 379 116 379 215.5 c 128,-1,35
 379 315 379 315 345 370.5 c 128,-1,36
 311 426 311 426 234 426 c 1,37,38
 177 404 177 404 147.5 348.5 c 128,-1,39
 118 293 118 293 118 214.5 c 128,-1,40
 118 136 118 136 150 79 c 128,-1,41
 182 22 182 22 248 22 c 0,31,32
EndSplineSet
EndChar

StartChar: ntilde
Encoding: 241 241 177
Width: 500
GlyphClass: 2
Flags: W
LayerCount: 2
Fore
SplineSet
235.5 446 m 128,-1,1
 267 464 267 464 310 464 c 128,-1,2
 353 464 353 464 389.5 430 c 128,-1,3
 426 396 426 396 426 313 c 2,4,-1
 426 0 l 1,5,-1
 341 0 l 1,6,-1
 341 303 l 2,7,8
 341 352 341 352 323.5 376.5 c 128,-1,9
 306 401 306 401 263.5 401 c 128,-1,10
 221 401 221 401 165 345 c 1,11,-1
 165 0 l 1,12,-1
 80 0 l 1,13,-1
 80 314 l 2,14,15
 80 382 80 382 29 423 c 1,16,-1
 80 461 l 1,17,-1
 162 388 l 1,18,0
 204 428 204 428 235.5 446 c 128,-1,1
234.5 552.5 m 128,-1,20
 184 573 184 573 171 573 c 128,-1,21
 158 573 158 573 147 563 c 128,-1,22
 136 553 136 553 119 530 c 1,23,-1
 92 545 l 1,24,25
 119 610 119 610 194 634 c 1,26,27
 216 634 216 634 266.5 613.5 c 128,-1,28
 317 593 317 593 330 593 c 128,-1,29
 343 593 343 593 354 603 c 128,-1,30
 365 613 365 613 382 636 c 1,31,-1
 409 621 l 1,32,33
 382 556 382 556 307 532 c 1,34,19
 285 532 285 532 234.5 552.5 c 128,-1,20
EndSplineSet
EndChar

StartChar: ograve
Encoding: 242 242 178
Width: 500
GlyphClass: 2
Flags: W
LayerCount: 2
Fore
SplineSet
413.5 404 m 128,-1,1
 471 344 471 344 471 239 c 0,2,3
 471 172 471 172 448 121 c 128,-1,4
 425 70 425 70 388 42 c 0,5,6
 317 -12 317 -12 229.5 -12 c 128,-1,7
 142 -12 142 -12 84.5 48 c 128,-1,8
 27 108 27 108 27 213 c 0,9,10
 27 280 27 280 49.5 331 c 128,-1,11
 72 382 72 382 109 410 c 0,12,13
 180 464 180 464 268 464 c 128,-1,0
 356 464 356 464 413.5 404 c 128,-1,1
248 22 m 0,14,15
 292 22 292 22 323 56 c 0,16,17
 379 116 379 116 379 215.5 c 128,-1,18
 379 315 379 315 345 370.5 c 128,-1,19
 311 426 311 426 234 426 c 1,20,21
 177 404 177 404 147.5 348.5 c 128,-1,22
 118 293 118 293 118 214.5 c 128,-1,23
 118 136 118 136 150 79 c 128,-1,24
 182 22 182 22 248 22 c 0,14,15
326 507 m 1,25,-1
 286 507 l 1,26,-1
 98 645 l 1,27,-1
 154 695 l 1,28,-1
 326 507 l 1,25,-1
EndSplineSet
EndChar

StartChar: oacute
Encoding: 243 243 179
Width: 500
GlyphClass: 2
Flags: W
LayerCount: 2
Fore
SplineSet
413.5 404 m 128,-1,1
 471 344 471 344 471 239 c 0,2,3
 471 172 471 172 448 121 c 128,-1,4
 425 70 425 70 388 42 c 0,5,6
 317 -12 317 -12 229.5 -12 c 128,-1,7
 142 -12 142 -12 84.5 48 c 128,-1,8
 27 108 27 108 27 213 c 0,9,10
 27 280 27 280 49.5 331 c 128,-1,11
 72 382 72 382 109 410 c 0,12,13
 180 464 180 464 268 464 c 128,-1,0
 356 464 356 464 413.5 404 c 128,-1,1
248 22 m 0,14,15
 292 22 292 22 323 56 c 0,16,17
 379 116 379 116 379 215.5 c 128,-1,18
 379 315 379 315 345 370.5 c 128,-1,19
 311 426 311 426 234 426 c 1,20,21
 177 404 177 404 147.5 348.5 c 128,-1,22
 118 293 118 293 118 214.5 c 128,-1,23
 118 136 118 136 150 79 c 128,-1,24
 182 22 182 22 248 22 c 0,14,15
217 507 m 1,25,-1
 177 507 l 1,26,-1
 349 695 l 1,27,-1
 405 645 l 1,28,-1
 217 507 l 1,25,-1
EndSplineSet
EndChar

StartChar: ocircumflex
Encoding: 244 244 180
Width: 500
GlyphClass: 2
Flags: W
LayerCount: 2
Fore
SplineSet
413.5 404 m 128,-1,1
 471 344 471 344 471 239 c 0,2,3
 471 172 471 172 448 121 c 128,-1,4
 425 70 425 70 388 42 c 0,5,6
 317 -12 317 -12 229.5 -12 c 128,-1,7
 142 -12 142 -12 84.5 48 c 128,-1,8
 27 108 27 108 27 213 c 0,9,10
 27 280 27 280 49.5 331 c 128,-1,11
 72 382 72 382 109 410 c 0,12,13
 180 464 180 464 268 464 c 128,-1,0
 356 464 356 464 413.5 404 c 128,-1,1
248 22 m 0,14,15
 292 22 292 22 323 56 c 0,16,17
 379 116 379 116 379 215.5 c 128,-1,18
 379 315 379 315 345 370.5 c 128,-1,19
 311 426 311 426 234 426 c 1,20,21
 177 404 177 404 147.5 348.5 c 128,-1,22
 118 293 118 293 118 214.5 c 128,-1,23
 118 136 118 136 150 79 c 128,-1,24
 182 22 182 22 248 22 c 0,14,15
274 674 m 1,25,-1
 400 507 l 1,26,-1
 360 507 l 1,27,-1
 250 600 l 1,28,-1
 141 507 l 1,29,-1
 101 507 l 1,30,-1
 226 674 l 1,31,-1
 274 674 l 1,25,-1
EndSplineSet
EndChar

StartChar: otilde
Encoding: 245 245 181
Width: 500
GlyphClass: 2
Flags: W
LayerCount: 2
Fore
SplineSet
413.5 404 m 128,-1,1
 471 344 471 344 471 239 c 0,2,3
 471 172 471 172 448 121 c 128,-1,4
 425 70 425 70 388 42 c 0,5,6
 317 -12 317 -12 229.5 -12 c 128,-1,7
 142 -12 142 -12 84.5 48 c 128,-1,8
 27 108 27 108 27 213 c 0,9,10
 27 280 27 280 49.5 331 c 128,-1,11
 72 382 72 382 109 410 c 0,12,13
 180 464 180 464 268 464 c 128,-1,0
 356 464 356 464 413.5 404 c 128,-1,1
248 22 m 0,14,15
 292 22 292 22 323 56 c 0,16,17
 379 116 379 116 379 215.5 c 128,-1,18
 379 315 379 315 345 370.5 c 128,-1,19
 311 426 311 426 234 426 c 1,20,21
 177 404 177 404 147.5 348.5 c 128,-1,22
 118 293 118 293 118 214.5 c 128,-1,23
 118 136 118 136 150 79 c 128,-1,24
 182 22 182 22 248 22 c 0,14,15
234.5 552.5 m 128,-1,26
 184 573 184 573 171 573 c 128,-1,27
 158 573 158 573 147 563 c 128,-1,28
 136 553 136 553 119 530 c 1,29,-1
 92 545 l 1,30,31
 119 610 119 610 194 634 c 1,32,33
 216 634 216 634 266.5 613.5 c 128,-1,34
 317 593 317 593 330 593 c 128,-1,35
 343 593 343 593 354 603 c 128,-1,36
 365 613 365 613 382 636 c 1,37,-1
 409 621 l 1,38,39
 382 556 382 556 307 532 c 1,40,25
 285 532 285 532 234.5 552.5 c 128,-1,26
EndSplineSet
EndChar

StartChar: odieresis
Encoding: 246 246 182
Width: 500
GlyphClass: 2
Flags: W
LayerCount: 2
Fore
SplineSet
413.5 404 m 128,-1,1
 471 344 471 344 471 239 c 0,2,3
 471 172 471 172 448 121 c 128,-1,4
 425 70 425 70 388 42 c 0,5,6
 317 -12 317 -12 229.5 -12 c 128,-1,7
 142 -12 142 -12 84.5 48 c 128,-1,8
 27 108 27 108 27 213 c 0,9,10
 27 280 27 280 49.5 331 c 128,-1,11
 72 382 72 382 109 410 c 0,12,13
 180 464 180 464 268 464 c 128,-1,0
 356 464 356 464 413.5 404 c 128,-1,1
248 22 m 0,14,15
 292 22 292 22 323 56 c 0,16,17
 379 116 379 116 379 215.5 c 128,-1,18
 379 315 379 315 345 370.5 c 128,-1,19
 311 426 311 426 234 426 c 1,20,21
 177 404 177 404 147.5 348.5 c 128,-1,22
 118 293 118 293 118 214.5 c 128,-1,23
 118 136 118 136 150 79 c 128,-1,24
 182 22 182 22 248 22 c 0,14,15
160 541 m 1,25,-1
 148 541 l 1,26,27
 129 543 129 543 112 560 c 1,28,29
 104 570 104 570 102 587 c 1,30,-1
 102 591 l 2,31,32
 102 612 102 612 116.5 626.5 c 128,-1,33
 131 641 131 641 152 641 c 0,34,35
 157 641 157 641 162 640 c 1,36,37
 171 640 171 640 177 634 c 1,38,39
 187 629 187 629 191 622 c 1,40,41
 196 617 196 617 197 612 c 1,42,43
 201 606 201 606 201 602 c 128,-1,44
 201 598 201 598 202 595 c 1,45,-1
 202 591 l 2,46,47
 202 585 202 585 202 581 c 0,48,49
 200 569 200 569 191 560 c 1,50,51
 189 555 189 555 186 554 c 1,52,53
 176 544 176 544 160 541 c 1,25,-1
299 591 m 128,-1,55
 299 612 299 612 313.5 626.5 c 128,-1,56
 328 641 328 641 349 641 c 128,-1,57
 370 641 370 641 384.5 626.5 c 128,-1,58
 399 612 399 612 399 591 c 128,-1,59
 399 570 399 570 384.5 555.5 c 128,-1,60
 370 541 370 541 349 541 c 128,-1,61
 328 541 328 541 313.5 555.5 c 128,-1,54
 299 570 299 570 299 591 c 128,-1,55
EndSplineSet
EndChar

StartChar: divide
Encoding: 247 247 183
Width: 564
GlyphClass: 2
Flags: W
LayerCount: 2
Fore
SplineSet
505 224 m 1,0,-1
 59 224 l 1,1,-1
 59 282 l 1,2,-1
 505 282 l 1,3,-1
 505 224 l 1,0,-1
282 388 m 128,-1,5
 265 388 265 388 249 400.5 c 128,-1,6
 233 413 233 413 233 435 c 128,-1,7
 233 457 233 457 247.5 471.5 c 128,-1,8
 262 486 262 486 282 486 c 128,-1,9
 302 486 302 486 317 471 c 128,-1,10
 332 456 332 456 332 435 c 128,-1,11
 332 414 332 414 315.5 401 c 128,-1,4
 299 388 299 388 282 388 c 128,-1,5
282 20 m 128,-1,13
 265 20 265 20 249 32.5 c 128,-1,14
 233 45 233 45 233 67 c 128,-1,15
 233 89 233 89 247.5 103.5 c 128,-1,16
 262 118 262 118 282 118 c 128,-1,17
 302 118 302 118 317 103 c 128,-1,18
 332 88 332 88 332 67 c 128,-1,19
 332 46 332 46 315.5 33 c 128,-1,12
 299 20 299 20 282 20 c 128,-1,13
EndSplineSet
EndChar

StartChar: oslash
Encoding: 248 248 184
Width: 500
GlyphClass: 2
Flags: W
LayerCount: 2
Fore
SplineSet
186 451 m 128,-1,1
 226 464 226 464 267 464 c 128,-1,2
 308 464 308 464 345 450 c 1,3,-1
 398 551 l 1,4,-1
 437 551 l 1,5,-1
 376 434 l 1,6,7
 471 376 471 376 471 239 c 0,8,9
 471 172 471 172 448 121 c 128,-1,10
 425 70 425 70 388 42 c 0,11,12
 317 -12 317 -12 229 -12 c 0,13,14
 186 -12 186 -12 149 3 c 1,15,-1
 89 -112 l 1,16,-1
 52 -112 l 1,17,-1
 120 18 l 1,18,19
 27 78 27 78 27 213 c 0,20,21
 27 280 27 280 49.5 331 c 128,-1,22
 72 382 72 382 109 410 c 128,-1,0
 146 438 146 438 186 451 c 128,-1,1
248 22 m 128,-1,24
 292 22 292 22 323 56 c 0,25,26
 379 116 379 116 379 218.5 c 128,-1,27
 379 321 379 321 343 372 c 1,28,-1
 174 49 l 1,29,23
 204 22 204 22 248 22 c 128,-1,24
147.5 348.5 m 128,-1,31
 118 293 118 293 118 212.5 c 128,-1,32
 118 132 118 132 151 77 c 1,33,-1
 319 399 l 1,34,35
 284 426 284 426 234 426 c 1,36,30
 177 404 177 404 147.5 348.5 c 128,-1,31
EndSplineSet
EndChar

StartChar: ugrave
Encoding: 249 249 185
Width: 500
GlyphClass: 2
Flags: W
LayerCount: 2
Fore
SplineSet
397 134 m 2,0,1
 397 65 397 65 449 25 c 1,2,-1
 397 -12 l 1,3,-1
 316 61 l 1,4,5
 275 22 275 22 243 5 c 128,-1,6
 211 -12 211 -12 167.5 -12 c 128,-1,7
 124 -12 124 -12 87.5 21.5 c 128,-1,8
 51 55 51 55 51 137 c 2,9,-1
 51 452 l 1,10,-1
 136 452 l 1,11,-1
 136 132 l 2,12,13
 136 84 136 84 153.5 59.5 c 128,-1,14
 171 35 171 35 214.5 35 c 128,-1,15
 258 35 258 35 312 99 c 1,16,-1
 312 452 l 1,17,-1
 397 452 l 1,18,-1
 397 134 l 2,0,1
326 507 m 1,19,-1
 286 507 l 1,20,-1
 98 645 l 1,21,-1
 154 695 l 1,22,-1
 326 507 l 1,19,-1
EndSplineSet
EndChar

StartChar: uacute
Encoding: 250 250 186
Width: 500
GlyphClass: 2
Flags: W
LayerCount: 2
Fore
SplineSet
397 134 m 2,0,1
 397 65 397 65 449 25 c 1,2,-1
 397 -12 l 1,3,-1
 316 61 l 1,4,5
 275 22 275 22 243 5 c 128,-1,6
 211 -12 211 -12 167.5 -12 c 128,-1,7
 124 -12 124 -12 87.5 21.5 c 128,-1,8
 51 55 51 55 51 137 c 2,9,-1
 51 452 l 1,10,-1
 136 452 l 1,11,-1
 136 132 l 2,12,13
 136 84 136 84 153.5 59.5 c 128,-1,14
 171 35 171 35 214.5 35 c 128,-1,15
 258 35 258 35 312 99 c 1,16,-1
 312 452 l 1,17,-1
 397 452 l 1,18,-1
 397 134 l 2,0,1
217 507 m 1,19,-1
 177 507 l 1,20,-1
 349 695 l 1,21,-1
 405 645 l 1,22,-1
 217 507 l 1,19,-1
EndSplineSet
EndChar

StartChar: ucircumflex
Encoding: 251 251 187
Width: 500
GlyphClass: 2
Flags: W
LayerCount: 2
Fore
SplineSet
397 134 m 2,0,1
 397 65 397 65 449 25 c 1,2,-1
 397 -12 l 1,3,-1
 316 61 l 1,4,5
 275 22 275 22 243 5 c 128,-1,6
 211 -12 211 -12 167.5 -12 c 128,-1,7
 124 -12 124 -12 87.5 21.5 c 128,-1,8
 51 55 51 55 51 137 c 2,9,-1
 51 452 l 1,10,-1
 136 452 l 1,11,-1
 136 132 l 2,12,13
 136 84 136 84 153.5 59.5 c 128,-1,14
 171 35 171 35 214.5 35 c 128,-1,15
 258 35 258 35 312 99 c 1,16,-1
 312 452 l 1,17,-1
 397 452 l 1,18,-1
 397 134 l 2,0,1
252 674 m 1,19,-1
 378 507 l 1,20,-1
 338 507 l 1,21,-1
 228 600 l 1,22,-1
 119 507 l 1,23,-1
 79 507 l 1,24,-1
 204 674 l 1,25,-1
 252 674 l 1,19,-1
EndSplineSet
EndChar

StartChar: udieresis
Encoding: 252 252 188
Width: 500
GlyphClass: 2
Flags: W
LayerCount: 2
Fore
SplineSet
397 134 m 2,0,1
 397 65 397 65 449 25 c 1,2,-1
 397 -12 l 1,3,-1
 316 61 l 1,4,5
 275 22 275 22 243 5 c 128,-1,6
 211 -12 211 -12 167.5 -12 c 128,-1,7
 124 -12 124 -12 87.5 21.5 c 128,-1,8
 51 55 51 55 51 137 c 2,9,-1
 51 452 l 1,10,-1
 136 452 l 1,11,-1
 136 132 l 2,12,13
 136 84 136 84 153.5 59.5 c 128,-1,14
 171 35 171 35 214.5 35 c 128,-1,15
 258 35 258 35 312 99 c 1,16,-1
 312 452 l 1,17,-1
 397 452 l 1,18,-1
 397 134 l 2,0,1
275 591 m 128,-1,20
 275 612 275 612 289.5 626.5 c 128,-1,21
 304 641 304 641 325 641 c 128,-1,22
 346 641 346 641 360.5 626.5 c 128,-1,23
 375 612 375 612 375 591 c 128,-1,24
 375 570 375 570 360.5 555.5 c 128,-1,25
 346 541 346 541 325 541 c 128,-1,26
 304 541 304 541 289.5 555.5 c 128,-1,19
 275 570 275 570 275 591 c 128,-1,20
128 541 m 2,27,28
 97 541 97 541 84 566 c 0,29,30
 84 567 84 567 82 569 c 1,31,32
 78 581 78 581 78 587 c 2,33,-1
 78 591 l 2,34,35
 78 621 78 621 103 634 c 1,36,37
 110 641 110 641 128 641 c 0,38,39
 154 641 154 641 167 622 c 0,40,41
 178 607 178 607 178 591 c 2,42,-1
 178 587 l 2,43,44
 178 570 178 570 159 551 c 1,45,46
 155 549 155 549 153 547 c 1,47,-1
 146 544 l 1,48,-1
 136 541 l 1,49,-1
 128 541 l 2,27,28
EndSplineSet
EndChar

StartChar: yacute
Encoding: 253 253 189
Width: 441
GlyphClass: 2
Flags: W
LayerCount: 2
Fore
SplineSet
382 452 m 1,0,-1
 420 452 l 1,1,-1
 249 -15 l 2,2,3
 216 -107 216 -107 150 -163 c 128,-1,4
 84 -219 84 -219 5 -220 c 1,5,-1
 15 -170 l 1,6,7
 150 -165 150 -165 225 5 c 1,8,-1
 22 452 l 1,9,-1
 111 452 l 1,10,-1
 264 113 l 1,11,-1
 382 452 l 1,0,-1
257 507 m 1,12,-1
 217 507 l 1,13,-1
 389 695 l 1,14,-1
 445 645 l 1,15,-1
 257 507 l 1,12,-1
EndSplineSet
EndChar

StartChar: thorn
Encoding: 254 254 190
Width: 500
GlyphClass: 2
Flags: W
LayerCount: 2
Fore
SplineSet
231.5 440.5 m 128,-1,1
 274 462 274 462 303 462 c 128,-1,2
 332 462 332 462 358.5 451.5 c 128,-1,3
 385 441 385 441 413 416.5 c 128,-1,4
 441 392 441 392 458.5 341 c 128,-1,5
 476 290 476 290 476 212.5 c 128,-1,6
 476 135 476 135 426 59 c 128,-1,7
 376 -17 376 -17 294 -17 c 0,8,9
 229 -17 229 -17 160 30 c 1,10,-1
 160 -212 l 1,11,-1
 75 -212 l 1,12,-1
 75 683 l 1,13,-1
 160 683 l 1,14,-1
 160 388 l 1,15,0
 189 419 189 419 231.5 440.5 c 128,-1,1
160 327 m 2,16,-1
 160 59 l 1,17,18
 219 31 219 31 270.5 31 c 128,-1,19
 322 31 322 31 353.5 80 c 128,-1,20
 385 129 385 129 385 209.5 c 128,-1,21
 385 290 385 290 359.5 346.5 c 128,-1,22
 334 403 334 403 296 415 c 1,23,24
 261 411 261 411 227.5 390.5 c 128,-1,25
 194 370 194 370 177 351.5 c 128,-1,26
 160 333 160 333 160 327 c 2,16,-1
EndSplineSet
EndChar

StartChar: ydieresis
Encoding: 255 255 191
Width: 441
GlyphClass: 2
Flags: W
LayerCount: 2
Fore
SplineSet
382 452 m 1,0,-1
 420 452 l 1,1,-1
 249 -15 l 2,2,3
 216 -107 216 -107 150 -163 c 128,-1,4
 84 -219 84 -219 5 -220 c 1,5,-1
 15 -170 l 1,6,7
 150 -165 150 -165 225 5 c 1,8,-1
 22 452 l 1,9,-1
 111 452 l 1,10,-1
 264 113 l 1,11,-1
 382 452 l 1,0,-1
298 591 m 128,-1,13
 298 612 298 612 312.5 626.5 c 128,-1,14
 327 641 327 641 348 641 c 128,-1,15
 369 641 369 641 383.5 626.5 c 128,-1,16
 398 612 398 612 398 591 c 128,-1,17
 398 570 398 570 383.5 555.5 c 128,-1,18
 369 541 369 541 348 541 c 128,-1,19
 327 541 327 541 312.5 555.5 c 128,-1,12
 298 570 298 570 298 591 c 128,-1,13
159 541 m 1,20,-1
 151 541 l 2,21,22
 126 541 126 541 111 560 c 1,23,-1
 105 569 l 1,24,25
 101 581 101 581 101 587 c 2,26,-1
 101 591 l 2,27,28
 101 604 101 604 104 609 c 128,-1,29
 107 614 107 614 107 616 c 1,30,31
 109 618 109 618 111 622 c 1,32,33
 129 640 129 640 143 640 c 1,34,35
 146 641 146 641 147 641 c 2,36,-1
 155 641 l 1,37,38
 158 640 158 640 160.5 640 c 128,-1,39
 163 640 163 640 169 638 c 0,40,41
 190 629 190 629 198 609 c 0,42,43
 201 600 201 600 201 591 c 2,44,-1
 201 587 l 2,45,46
 201 586 201 586 200 582 c 0,47,48
 199 571 199 571 194 566 c 1,49,50
 186 546 186 546 159 541 c 1,20,-1
EndSplineSet
EndChar

StartChar: dotlessi
Encoding: 305 305 192
Width: 233
GlyphClass: 2
Flags: W
LayerCount: 2
Fore
SplineSet
75 0 m 1,0,-1
 75 452 l 1,1,-1
 158 452 l 1,2,-1
 158 0 l 1,3,-1
 75 0 l 1,0,-1
EndSplineSet
EndChar

StartChar: Lslash
Encoding: 321 321 193
Width: 487
GlyphClass: 2
Flags: W
LayerCount: 2
Fore
SplineSet
90 0 m 1,0,-1
 90 251 l 1,1,-1
 3 196 l 1,2,-1
 3 245 l 1,3,-1
 90 300 l 1,4,-1
 90 662 l 1,5,-1
 188 662 l 1,6,-1
 188 363 l 1,7,-1
 313 443 l 1,8,-1
 313 394 l 1,9,-1
 188 314 l 1,10,-1
 188 54 l 1,11,12
 249 36 249 36 286 36 c 1,13,-1
 467 67 l 1,14,-1
 455 0 l 1,15,-1
 90 0 l 1,0,-1
EndSplineSet
EndChar

StartChar: lslash
Encoding: 322 322 194
Width: 234
GlyphClass: 2
Flags: W
LayerCount: 2
Fore
SplineSet
159 683 m 1,0,-1
 159 449 l 1,1,-1
 224 493 l 1,2,-1
 224 444 l 1,3,-1
 159 400 l 1,4,-1
 159 0 l 1,5,-1
 75 0 l 1,6,-1
 75 343 l 1,7,-1
 10 300 l 1,8,-1
 10 349 l 1,9,-1
 75 392 l 1,10,-1
 75 683 l 1,11,-1
 159 683 l 1,0,-1
EndSplineSet
EndChar

StartChar: OE
Encoding: 338 338 195
Width: 849
GlyphClass: 2
Flags: W
LayerCount: 2
Fore
SplineSet
343 0 m 2,0,1
 210 0 210 0 122 83 c 128,-1,2
 34 166 34 166 34 312 c 0,3,4
 34 388 34 388 57.5 449 c 128,-1,5
 81 510 81 510 118 549 c 128,-1,6
 155 588 155 588 204 614 c 0,7,8
 296 662 296 662 402 662 c 2,9,-1
 778 662 l 1,10,-1
 768 595 l 1,11,-1
 607 626 l 1,12,13
 558 626 558 626 499 609 c 1,14,-1
 499 366 l 1,15,-1
 696 366 l 1,16,-1
 696 328 l 1,17,-1
 499 328 l 1,18,-1
 499 36 l 1,19,-1
 794 67 l 1,20,-1
 784 0 l 1,21,-1
 343 0 l 2,0,1
372 623 m 0,22,23
 261 623 261 623 202 543 c 128,-1,24
 143 463 143 463 143 332.5 c 128,-1,25
 143 202 143 202 205.5 117 c 128,-1,26
 268 32 268 32 372 32 c 0,27,28
 392 32 392 32 402 33 c 1,29,-1
 402 620 l 1,30,31
 387 623 387 623 372 623 c 0,22,23
EndSplineSet
EndChar

StartChar: oe
Encoding: 339 339 196
Width: 791
GlyphClass: 2
Flags: W
LayerCount: 2
Fore
SplineSet
263 464 m 0,0,1
 370 464 370 464 418 372 c 1,2,3
 484 464 484 464 599 464 c 0,4,5
 672 464 672 464 721 406 c 128,-1,6
 770 348 770 348 770 245 c 1,7,-1
 451 245 l 1,8,9
 451 137 451 137 499.5 89.5 c 128,-1,10
 548 42 548 42 617.5 42 c 128,-1,11
 687 42 687 42 746 69 c 1,12,-1
 746 34 l 1,13,14
 666 -12 666 -12 589 -12 c 0,15,16
 463 -12 463 -12 405 79 c 1,17,18
 345 -12 345 -12 225 -12 c 0,19,20
 140 -12 140 -12 84.5 47.5 c 128,-1,21
 29 107 29 107 29 212 c 0,22,23
 29 279 29 279 51 330.5 c 128,-1,24
 73 382 73 382 109 410 c 0,25,26
 180 464 180 464 263 464 c 0,0,1
548 417 m 1,27,28
 513 400 513 400 488 362 c 128,-1,29
 463 324 463 324 455 275 c 1,30,-1
 689 275 l 1,31,32
 686 317 686 317 669.5 347.5 c 128,-1,33
 653 378 653 378 630 392 c 0,34,35
 587 417 587 417 548 417 c 1,27,28
243 31 m 0,36,37
 299 31 299 31 335 90.5 c 128,-1,38
 371 150 371 150 371 228 c 128,-1,39
 371 306 371 306 333.5 361 c 128,-1,40
 296 416 296 416 227 416 c 1,41,42
 173 395 173 395 145 340.5 c 128,-1,43
 117 286 117 286 117 224 c 0,44,45
 117 31 117 31 243 31 c 0,36,37
EndSplineSet
EndChar

StartChar: Scaron
Encoding: 352 352 197
Width: 556
GlyphClass: 2
Flags: W
LayerCount: 2
Fore
SplineSet
162 547 m 0,0,1
 162 503 162 503 196.5 465.5 c 128,-1,2
 231 428 231 428 280.5 399.5 c 128,-1,3
 330 371 330 371 379 341.5 c 128,-1,4
 428 312 428 312 462.5 269 c 128,-1,5
 497 226 497 226 497 174 c 0,6,7
 497 92 497 92 436.5 40 c 128,-1,8
 376 -12 376 -12 273 -12 c 128,-1,9
 170 -12 170 -12 69 27 c 1,10,-1
 69 74 l 1,11,12
 171 23 171 23 242.5 23 c 128,-1,13
 314 23 314 23 354 58 c 128,-1,14
 394 93 394 93 394 155 c 0,15,16
 394 197 394 197 361 231.5 c 128,-1,17
 328 266 328 266 281 291.5 c 128,-1,18
 234 317 234 317 187 344 c 128,-1,19
 140 371 140 371 107 412.5 c 128,-1,20
 74 454 74 454 74 513 c 128,-1,21
 74 572 74 572 126.5 623 c 128,-1,22
 179 674 179 674 283 674 c 0,23,24
 351 674 351 674 455 643 c 1,25,-1
 445 575 l 1,26,27
 310 633 310 633 214 633 c 1,28,29
 162 608 162 608 162 547 c 0,0,1
251 718 m 1,30,-1
 125 885 l 1,31,-1
 165 885 l 1,32,-1
 275 792 l 1,33,-1
 384 885 l 1,34,-1
 424 885 l 1,35,-1
 299 718 l 1,36,-1
 251 718 l 1,30,-1
EndSplineSet
EndChar

StartChar: scaron
Encoding: 353 353 198
Width: 372
GlyphClass: 2
Flags: W
LayerCount: 2
Fore
SplineSet
126.5 402.5 m 128,-1,1
 110 383 110 383 110 358.5 c 128,-1,2
 110 334 110 334 133.5 311.5 c 128,-1,3
 157 289 157 289 190.5 271.5 c 128,-1,4
 224 254 224 254 257 235 c 128,-1,5
 290 216 290 216 313.5 186 c 128,-1,6
 337 156 337 156 337 119 c 0,7,8
 337 63 337 63 292 25.5 c 128,-1,9
 247 -12 247 -12 169.5 -12 c 128,-1,10
 92 -12 92 -12 28 24 c 1,11,-1
 28 62 l 1,12,13
 96 28 96 28 151 28 c 128,-1,14
 206 28 206 28 231 50 c 128,-1,15
 256 72 256 72 256 100.5 c 128,-1,16
 256 129 256 129 233.5 151.5 c 128,-1,17
 211 174 211 174 178.5 191 c 128,-1,18
 146 208 146 208 114 227 c 128,-1,19
 82 246 82 246 59.5 276 c 128,-1,20
 37 306 37 306 37 348.5 c 128,-1,21
 37 391 37 391 71.5 427.5 c 128,-1,22
 106 464 106 464 178 464 c 128,-1,23
 250 464 250 464 316 438 c 1,24,-1
 306 372 l 1,25,26
 232 412 232 412 169 422 c 1,27,0
 143 422 143 422 126.5 402.5 c 128,-1,1
163 506 m 1,28,-1
 37 673 l 1,29,-1
 77 673 l 1,30,-1
 187 580 l 1,31,-1
 296 673 l 1,32,-1
 336 673 l 1,33,-1
 211 506 l 1,34,-1
 163 506 l 1,28,-1
EndSplineSet
EndChar

StartChar: Ydieresis
Encoding: 376 376 199
Width: 557
GlyphClass: 2
Flags: W
LayerCount: 2
Fore
SplineSet
343 0 m 1,0,-1
 246 0 l 1,1,-1
 246 246 l 1,2,-1
 20 662 l 1,3,-1
 129 662 l 1,4,-1
 314 282 l 1,5,-1
 487 662 l 1,6,-1
 537 662 l 1,7,-1
 343 251 l 1,8,-1
 343 0 l 1,0,-1
364 761 m 128,-1,10
 364 782 364 782 378.5 796.5 c 128,-1,11
 393 811 393 811 414 811 c 128,-1,12
 435 811 435 811 449.5 796.5 c 128,-1,13
 464 782 464 782 464 761 c 128,-1,14
 464 740 464 740 449.5 725.5 c 128,-1,15
 435 711 435 711 414 711 c 128,-1,16
 393 711 393 711 378.5 725.5 c 128,-1,9
 364 740 364 740 364 761 c 128,-1,10
167 757 m 2,17,-1
 167 769 l 1,18,19
 170 783 170 783 177 792 c 1,20,-1
 186 800 l 1,21,22
 199 810 199 810 205 810.5 c 128,-1,23
 211 811 211 811 218 811 c 0,24,25
 230 811 230 811 238 806 c 1,26,27
 248 804 248 804 256.5 792 c 128,-1,28
 265 780 265 780 265.5 774 c 128,-1,29
 266 768 266 768 267 765 c 1,30,-1
 267 757 l 2,31,32
 267 742 267 742 256 730 c 1,33,-1
 254 727 l 1,34,-1
 248 721 l 1,35,36
 244 719 244 719 242 717 c 1,37,-1
 235 714 l 1,38,-1
 225 711 l 1,39,-1
 209 711 l 1,40,41
 185 716 185 716 176 732 c 128,-1,42
 167 748 167 748 167 757 c 2,17,-1
EndSplineSet
EndChar

StartChar: Zcaron
Encoding: 381 381 200
Width: 571
GlyphClass: 2
Flags: W
LayerCount: 2
Fore
SplineSet
16 0 m 1,0,-1
 16 10 l 1,1,-1
 398 609 l 1,2,3
 339 626 339 626 289 626 c 1,4,-1
 83 595 l 1,5,-1
 73 662 l 1,6,-1
 541 662 l 1,7,-1
 541 652 l 1,8,-1
 147 40 l 1,9,-1
 506 67 l 1,10,-1
 516 0 l 1,11,-1
 16 0 l 1,0,-1
277 718 m 1,12,-1
 151 885 l 1,13,-1
 191 885 l 1,14,-1
 301 792 l 1,15,-1
 410 885 l 1,16,-1
 450 885 l 1,17,-1
 325 718 l 1,18,-1
 277 718 l 1,12,-1
EndSplineSet
EndChar

StartChar: zcaron
Encoding: 382 382 201
Width: 444
GlyphClass: 2
Flags: W
LayerCount: 2
Fore
SplineSet
45 0 m 1,0,-1
 45 30 l 1,1,-1
 312 419 l 1,2,-1
 66 410 l 1,3,-1
 56 452 l 1,4,-1
 403 452 l 1,5,-1
 403 424 l 1,6,-1
 137 36 l 1,7,-1
 406 47 l 1,8,-1
 416 0 l 1,9,-1
 45 0 l 1,0,-1
219 506 m 1,10,-1
 93 673 l 1,11,-1
 133 673 l 1,12,-1
 243 580 l 1,13,-1
 352 673 l 1,14,-1
 392 673 l 1,15,-1
 267 506 l 1,16,-1
 219 506 l 1,10,-1
EndSplineSet
EndChar

StartChar: florin
Encoding: 402 402 202
Width: 500
GlyphClass: 2
Flags: W
LayerCount: 2
Fore
SplineSet
102 398 m 1,0,-1
 210 398 l 1,1,-1
 216 453 l 1,2,3
 238 675 238 675 413 675 c 0,4,5
 450 675 450 675 489 663 c 1,6,-1
 479 598 l 1,7,8
 417 621 417 621 375 629 c 1,9,10
 340 615 340 615 325.5 578.5 c 128,-1,11
 311 542 311 542 300 453 c 2,12,-1
 293 398 l 1,13,-1
 425 398 l 1,14,-1
 425 360 l 1,15,-1
 288 360 l 1,16,-1
 242 6 l 2,17,18
 228 -99 228 -99 185.5 -144 c 128,-1,19
 143 -189 143 -189 71 -189 c 0,20,21
 38 -189 38 -189 -3 -174 c 1,22,-1
 9 -135 l 1,23,24
 43 -143 43 -143 74 -143 c 0,25,26
 153 -143 153 -143 165 -33 c 2,27,-1
 206 360 l 1,28,-1
 102 360 l 1,29,-1
 102 398 l 1,0,-1
EndSplineSet
EndChar

StartChar: circumflex
Encoding: 710 710 203
Width: 333
GlyphClass: 2
Flags: W
LayerCount: 2
Fore
SplineSet
190 674 m 1,0,-1
 316 507 l 1,1,-1
 276 507 l 1,2,-1
 166 600 l 1,3,-1
 57 507 l 1,4,-1
 17 507 l 1,5,-1
 142 674 l 1,6,-1
 190 674 l 1,0,-1
EndSplineSet
EndChar

StartChar: caron
Encoding: 711 711 204
Width: 333
GlyphClass: 2
Flags: W
LayerCount: 2
Fore
SplineSet
142 506 m 1,0,-1
 16 673 l 1,1,-1
 56 673 l 1,2,-1
 166 580 l 1,3,-1
 275 673 l 1,4,-1
 315 673 l 1,5,-1
 190 506 l 1,6,-1
 142 506 l 1,0,-1
EndSplineSet
EndChar

StartChar: breve
Encoding: 728 728 205
Width: 333
GlyphClass: 2
Flags: W
LayerCount: 2
Fore
SplineSet
164 507 m 0,0,1
 106 507 106 507 66 546 c 128,-1,2
 26 585 26 585 26 659 c 2,3,-1
 26 664 l 1,4,-1
 55 664 l 1,5,6
 71 567 71 567 166 567 c 0,7,8
 220 567 220 567 244 598 c 0,9,10
 257 615 257 615 262.5 627 c 128,-1,11
 268 639 268 639 278 664 c 1,12,-1
 307 664 l 1,13,14
 292 507 292 507 164 507 c 0,0,1
EndSplineSet
EndChar

StartChar: dotaccent
Encoding: 729 729 206
Width: 238
GlyphClass: 2
Flags: W
LayerCount: 2
Fore
SplineSet
79.5 668 m 128,-1,1
 94 683 94 683 115.5 683 c 128,-1,2
 137 683 137 683 152.5 668 c 128,-1,3
 168 653 168 653 168 632 c 128,-1,4
 168 611 168 611 152.5 595 c 128,-1,5
 137 579 137 579 116 579 c 128,-1,6
 95 579 95 579 80 594.5 c 128,-1,7
 65 610 65 610 65 631.5 c 128,-1,0
 65 653 65 653 79.5 668 c 128,-1,1
EndSplineSet
EndChar

StartChar: ring
Encoding: 730 730 207
Width: 333
GlyphClass: 2
Flags: W
LayerCount: 2
Fore
SplineSet
67 611 m 128,-1,1
 67 652 67 652 95.5 681.5 c 128,-1,2
 124 711 124 711 165.5 711 c 128,-1,3
 207 711 207 711 236.5 681.5 c 128,-1,4
 266 652 266 652 266 611 c 128,-1,5
 266 570 266 570 236.5 541 c 128,-1,6
 207 512 207 512 165.5 512 c 128,-1,7
 124 512 124 512 95.5 541 c 128,-1,0
 67 570 67 570 67 611 c 128,-1,1
213 657.5 m 128,-1,9
 194 677 194 677 164.5 677 c 128,-1,10
 135 677 135 677 118 655.5 c 128,-1,11
 101 634 101 634 101 611.5 c 128,-1,12
 101 589 101 589 117.5 567.5 c 128,-1,13
 134 546 134 546 163.5 546 c 128,-1,14
 193 546 193 546 212.5 565 c 128,-1,15
 232 584 232 584 232 611 c 128,-1,8
 232 638 232 638 213 657.5 c 128,-1,9
EndSplineSet
EndChar

StartChar: ogonek
Encoding: 731 731 208
Width: 333
GlyphClass: 2
Flags: W
LayerCount: 2
Fore
SplineSet
116 -75 m 0,0,1
 116 -95 116 -95 128.5 -105.5 c 128,-1,2
 141 -116 141 -116 160.5 -116 c 128,-1,3
 180 -116 180 -116 199.5 -103.5 c 128,-1,4
 219 -91 219 -91 227 -73 c 1,5,-1
 243 -80 l 1,6,7
 233 -115 233 -115 203.5 -140 c 128,-1,8
 174 -165 174 -165 141 -165 c 128,-1,9
 108 -165 108 -165 85 -145 c 128,-1,10
 62 -125 62 -125 62 -97 c 0,11,12
 62 -36 62 -36 118 0 c 1,13,-1
 162 0 l 1,14,15
 116 -36 116 -36 116 -75 c 0,0,1
EndSplineSet
EndChar

StartChar: tilde
Encoding: 732 732 209
Width: 333
GlyphClass: 2
Flags: W
LayerCount: 2
Fore
SplineSet
150.5 552.5 m 128,-1,1
 100 573 100 573 87 573 c 128,-1,2
 74 573 74 573 63 563 c 128,-1,3
 52 553 52 553 35 530 c 1,4,-1
 8 545 l 1,5,6
 35 610 35 610 110 634 c 1,7,8
 132 634 132 634 182.5 613.5 c 128,-1,9
 233 593 233 593 246 593 c 128,-1,10
 259 593 259 593 270 603 c 128,-1,11
 281 613 281 613 298 636 c 1,12,-1
 325 621 l 1,13,14
 298 556 298 556 223 532 c 1,15,0
 201 532 201 532 150.5 552.5 c 128,-1,1
EndSplineSet
EndChar

StartChar: hungarumlaut
Encoding: 733 733 210
Width: 333
GlyphClass: 2
Flags: W
LayerCount: 2
Fore
SplineSet
35 507 m 1,0,-1
 -5 507 l 1,1,-1
 167 695 l 1,2,-1
 223 645 l 1,3,-1
 35 507 l 1,0,-1
190 507 m 1,4,-1
 150 507 l 1,5,-1
 322 695 l 1,6,-1
 378 645 l 1,7,-1
 190 507 l 1,4,-1
EndSplineSet
EndChar

StartChar: pi
Encoding: 960 960 211
Width: 515
GlyphClass: 2
Flags: W
LayerCount: 2
Fore
SplineSet
174 0 m 1,0,-1
 89 0 l 1,1,-1
 89 398 l 1,2,-1
 39 398 l 1,3,-1
 39 452 l 1,4,-1
 475 452 l 1,5,-1
 475 398 l 1,6,-1
 425 398 l 1,7,-1
 425 138 l 2,8,9
 425 70 425 70 476 29 c 1,10,-1
 425 -9 l 1,11,12
 364 25 364 25 348 82 c 0,13,14
 340 112 340 112 340 152 c 2,15,-1
 340 398 l 1,16,-1
 174 398 l 1,17,-1
 174 0 l 1,0,-1
EndSplineSet
EndChar

StartChar: endash
Encoding: 8211 8211 212
Width: 500
GlyphClass: 2
Flags: W
LayerCount: 2
Fore
SplineSet
0 250 m 1,0,-1
 500 250 l 1,1,-1
 500 201 l 1,2,-1
 0 201 l 1,3,-1
 0 250 l 1,0,-1
EndSplineSet
EndChar

StartChar: emdash
Encoding: 8212 8212 213
Width: 1000
GlyphClass: 2
Flags: W
LayerCount: 2
Fore
SplineSet
0 250 m 1,0,-1
 1000 250 l 1,1,-1
 1000 201 l 1,2,-1
 0 201 l 1,3,-1
 0 250 l 1,0,-1
EndSplineSet
EndChar

StartChar: quoteleft
Encoding: 8216 8216 214
Width: 224
GlyphClass: 2
Flags: W
LayerCount: 2
Fore
SplineSet
50 513 m 0,0,1
 50 621 50 621 162 683 c 1,2,-1
 174 664 l 1,3,4
 107 611 107 611 107 545 c 1,5,6
 130 545 130 545 149.5 530 c 128,-1,7
 169 515 169 515 169 490 c 1,8,9
 155 469 155 469 124 452.5 c 128,-1,10
 93 436 93 436 64 433 c 1,11,12
 50 474 50 474 50 513 c 0,0,1
EndSplineSet
EndChar

StartChar: quoteright
Encoding: 8217 8217 215
Width: 224
GlyphClass: 2
Flags: W
LayerCount: 2
Fore
SplineSet
174 597 m 0,0,1
 174 489 174 489 62 427 c 1,2,-1
 50 446 l 1,3,4
 117 499 117 499 117 565 c 1,5,6
 94 565 94 565 74.5 580 c 128,-1,7
 55 595 55 595 55 620 c 1,8,9
 69 641 69 641 100 657.5 c 128,-1,10
 131 674 131 674 160 677 c 1,11,12
 174 636 174 636 174 597 c 0,0,1
EndSplineSet
EndChar

StartChar: quotesinglbase
Encoding: 8218 8218 216
Width: 224
GlyphClass: 2
Flags: W
LayerCount: 2
Fore
SplineSet
174 28 m 0,0,1
 174 -80 174 -80 62 -142 c 1,2,-1
 50 -123 l 1,3,4
 117 -70 117 -70 117 -4 c 1,5,6
 94 -4 94 -4 74.5 11 c 128,-1,7
 55 26 55 26 55 51 c 1,8,9
 69 72 69 72 100 88.5 c 128,-1,10
 131 105 131 105 160 108 c 1,11,12
 174 67 174 67 174 28 c 0,0,1
EndSplineSet
EndChar

StartChar: quotedblleft
Encoding: 8220 8220 217
Width: 394
GlyphClass: 2
Flags: W
LayerCount: 2
Fore
SplineSet
50 513 m 0,0,1
 50 621 50 621 162 683 c 1,2,-1
 174 664 l 1,3,4
 107 611 107 611 107 545 c 1,5,6
 130 545 130 545 149.5 530 c 128,-1,7
 169 515 169 515 169 490 c 1,8,9
 155 469 155 469 124 452.5 c 128,-1,10
 93 436 93 436 64 433 c 1,11,12
 50 474 50 474 50 513 c 0,0,1
220 513 m 0,13,14
 220 621 220 621 332 683 c 1,15,-1
 344 664 l 1,16,17
 277 611 277 611 277 545 c 1,18,19
 300 545 300 545 319.5 530 c 128,-1,20
 339 515 339 515 339 490 c 1,21,22
 325 469 325 469 294 452.5 c 128,-1,23
 263 436 263 436 234 433 c 1,24,25
 220 474 220 474 220 513 c 0,13,14
EndSplineSet
EndChar

StartChar: quotedblright
Encoding: 8221 8221 218
Width: 394
GlyphClass: 2
Flags: W
LayerCount: 2
Fore
SplineSet
174 597 m 0,0,1
 174 489 174 489 62 427 c 1,2,-1
 50 446 l 1,3,4
 117 499 117 499 117 565 c 1,5,6
 94 565 94 565 74.5 580 c 128,-1,7
 55 595 55 595 55 620 c 1,8,9
 69 641 69 641 100 657.5 c 128,-1,10
 131 674 131 674 160 677 c 1,11,12
 174 636 174 636 174 597 c 0,0,1
344 597 m 0,13,14
 344 489 344 489 232 427 c 1,15,-1
 220 446 l 1,16,17
 287 499 287 499 287 565 c 1,18,19
 264 565 264 565 244.5 580 c 128,-1,20
 225 595 225 595 225 620 c 1,21,22
 239 641 239 641 270 657.5 c 128,-1,23
 301 674 301 674 330 677 c 1,24,25
 344 636 344 636 344 597 c 0,13,14
EndSplineSet
EndChar

StartChar: quotedblbase
Encoding: 8222 8222 219
Width: 394
GlyphClass: 2
Flags: W
LayerCount: 2
Fore
SplineSet
174 28 m 0,0,1
 174 -80 174 -80 62 -142 c 1,2,-1
 50 -123 l 1,3,4
 117 -70 117 -70 117 -4 c 1,5,6
 94 -4 94 -4 74.5 11 c 128,-1,7
 55 26 55 26 55 51 c 1,8,9
 69 72 69 72 100 88.5 c 128,-1,10
 131 105 131 105 160 108 c 1,11,12
 174 67 174 67 174 28 c 0,0,1
344 28 m 0,13,14
 344 -80 344 -80 232 -142 c 1,15,-1
 220 -123 l 1,16,17
 287 -70 287 -70 287 -4 c 1,18,19
 264 -4 264 -4 244.5 11 c 128,-1,20
 225 26 225 26 225 51 c 1,21,22
 239 72 239 72 270 88.5 c 128,-1,23
 301 105 301 105 330 108 c 1,24,25
 344 67 344 67 344 28 c 0,13,14
EndSplineSet
EndChar

StartChar: dagger
Encoding: 8224 8224 220
Width: 500
GlyphClass: 2
Flags: W
LayerCount: 2
Fore
SplineSet
442 481 m 1,0,-1
 442 415 l 1,1,-1
 384 415 l 1,2,-1
 261 435 l 1,3,-1
 292 317 l 1,4,-1
 262 -149 l 1,5,-1
 241 -149 l 1,6,-1
 209 317 l 1,7,-1
 239 435 l 1,8,-1
 117 415 l 1,9,-1
 59 415 l 1,10,-1
 59 481 l 1,11,-1
 117 481 l 1,12,-1
 236 461 l 1,13,-1
 208 597 l 1,14,-1
 208 677 l 1,15,16
 230 682 230 682 252.5 682 c 128,-1,17
 275 682 275 682 294 677 c 1,18,-1
 294 597 l 1,19,-1
 265 461 l 1,20,-1
 384 481 l 1,21,-1
 442 481 l 1,0,-1
EndSplineSet
EndChar

StartChar: daggerdbl
Encoding: 8225 8225 221
Width: 500
GlyphClass: 2
Flags: W
LayerCount: 2
Fore
SplineSet
58 45 m 1,0,-1
 58 111 l 1,1,-1
 116 111 l 1,2,-1
 239 91 l 1,3,-1
 208 262 l 1,4,-1
 239 435 l 1,5,-1
 117 415 l 1,6,-1
 59 415 l 1,7,-1
 59 481 l 1,8,-1
 117 481 l 1,9,-1
 236 461 l 1,10,-1
 208 597 l 1,11,-1
 208 677 l 1,12,13
 230 682 230 682 252.5 682 c 128,-1,14
 275 682 275 682 294 677 c 1,15,-1
 294 597 l 1,16,-1
 265 461 l 1,17,-1
 384 481 l 1,18,-1
 442 481 l 1,19,-1
 442 415 l 1,20,-1
 384 415 l 1,21,-1
 261 435 l 1,22,-1
 292 262 l 1,23,-1
 261 91 l 1,24,-1
 383 111 l 1,25,-1
 441 111 l 1,26,-1
 441 45 l 1,27,-1
 383 45 l 1,28,-1
 264 65 l 1,29,-1
 292 -71 l 1,30,-1
 292 -151 l 1,31,32
 270 -156 270 -156 247.5 -156 c 128,-1,33
 225 -156 225 -156 206 -151 c 1,34,-1
 206 -71 l 1,35,-1
 235 65 l 1,36,-1
 116 45 l 1,37,-1
 58 45 l 1,0,-1
EndSplineSet
EndChar

StartChar: bullet
Encoding: 8226 8226 222
Width: 350
GlyphClass: 2
Flags: W
LayerCount: 2
Fore
SplineSet
310 331 m 128,-1,1
 310 275 310 275 270.5 235.5 c 128,-1,2
 231 196 231 196 175 196 c 128,-1,3
 119 196 119 196 79.5 235.5 c 128,-1,4
 40 275 40 275 40 331.5 c 128,-1,5
 40 388 40 388 79.5 427 c 128,-1,6
 119 466 119 466 175 466 c 128,-1,7
 231 466 231 466 270.5 426.5 c 128,-1,0
 310 387 310 387 310 331 c 128,-1,1
EndSplineSet
EndChar

StartChar: ellipsis
Encoding: 8230 8230 223
Width: 750
GlyphClass: 2
Flags: W
LayerCount: 2
Fore
SplineSet
70 44 m 128,-1,1
 70 67 70 67 86 83.5 c 128,-1,2
 102 100 102 100 125 100 c 128,-1,3
 148 100 148 100 164.5 83.5 c 128,-1,4
 181 67 181 67 181 44 c 128,-1,5
 181 21 181 21 164.5 5 c 128,-1,6
 148 -11 148 -11 125 -11 c 128,-1,7
 102 -11 102 -11 86 5 c 128,-1,0
 70 21 70 21 70 44 c 128,-1,1
320 44 m 128,-1,9
 320 67 320 67 336 83.5 c 128,-1,10
 352 100 352 100 375 100 c 128,-1,11
 398 100 398 100 414.5 83.5 c 128,-1,12
 431 67 431 67 431 44 c 128,-1,13
 431 21 431 21 414.5 5 c 128,-1,14
 398 -11 398 -11 375 -11 c 128,-1,15
 352 -11 352 -11 336 5 c 128,-1,8
 320 21 320 21 320 44 c 128,-1,9
570 44 m 128,-1,17
 570 67 570 67 586 83.5 c 128,-1,18
 602 100 602 100 625 100 c 128,-1,19
 648 100 648 100 664.5 83.5 c 128,-1,20
 681 67 681 67 681 44 c 128,-1,21
 681 21 681 21 664.5 5 c 128,-1,22
 648 -11 648 -11 625 -11 c 128,-1,23
 602 -11 602 -11 586 5 c 128,-1,16
 570 21 570 21 570 44 c 128,-1,17
EndSplineSet
EndChar

StartChar: perthousand
Encoding: 8240 8240 224
Width: 1149
GlyphClass: 2
Flags: W
LayerCount: 2
Fore
SplineSet
90 633 m 128,-1,1
 140 684 140 684 200 684 c 128,-1,2
 260 684 260 684 299 634 c 128,-1,3
 338 584 338 584 338 488 c 128,-1,4
 338 392 338 392 288.5 341.5 c 128,-1,5
 239 291 239 291 178 291 c 128,-1,6
 117 291 117 291 78.5 340 c 128,-1,7
 40 389 40 389 40 485.5 c 128,-1,0
 40 582 40 582 90 633 c 128,-1,1
242 592.5 m 128,-1,9
 219 638 219 638 184.5 638 c 128,-1,10
 150 638 150 638 130 597 c 128,-1,11
 110 556 110 556 110 489.5 c 128,-1,12
 110 423 110 423 132.5 378.5 c 128,-1,13
 155 334 155 334 187 334 c 0,14,15
 265 334 265 334 265 485 c 0,16,8
 265 547 265 547 242 592.5 c 128,-1,9
511 332 m 128,-1,18
 561 383 561 383 621 383 c 128,-1,19
 681 383 681 383 720 333 c 128,-1,20
 759 283 759 283 759 187 c 128,-1,21
 759 91 759 91 709.5 40.5 c 128,-1,22
 660 -10 660 -10 599 -10 c 128,-1,23
 538 -10 538 -10 499.5 39 c 128,-1,24
 461 88 461 88 461 184.5 c 128,-1,17
 461 281 461 281 511 332 c 128,-1,18
663 291.5 m 128,-1,26
 640 337 640 337 605.5 337 c 128,-1,27
 571 337 571 337 551 296 c 128,-1,28
 531 255 531 255 531 188.5 c 128,-1,29
 531 122 531 122 553.5 77.5 c 128,-1,30
 576 33 576 33 608 33 c 0,31,32
 686 33 686 33 686 184 c 0,33,25
 686 246 686 246 663 291.5 c 128,-1,26
861 332 m 128,-1,35
 911 383 911 383 971 383 c 128,-1,36
 1031 383 1031 383 1070 333 c 128,-1,37
 1109 283 1109 283 1109 187 c 128,-1,38
 1109 91 1109 91 1059.5 40.5 c 128,-1,39
 1010 -10 1010 -10 949 -10 c 128,-1,40
 888 -10 888 -10 849.5 39 c 128,-1,41
 811 88 811 88 811 184.5 c 128,-1,34
 811 281 811 281 861 332 c 128,-1,35
1013 291.5 m 128,-1,43
 990 337 990 337 955.5 337 c 128,-1,44
 921 337 921 337 901 296 c 128,-1,45
 881 255 881 255 881 188.5 c 128,-1,46
 881 122 881 122 903.5 77.5 c 128,-1,47
 926 33 926 33 958 33 c 0,48,49
 1036 33 1036 33 1036 184 c 0,50,42
 1036 246 1036 246 1013 291.5 c 128,-1,43
599 677 m 1,51,-1
 249 -14 l 1,52,-1
 200 -14 l 1,53,-1
 553 677 l 1,54,-1
 599 677 l 1,51,-1
EndSplineSet
EndChar

StartChar: guilsinglleft
Encoding: 8249 8249 225
Width: 333
GlyphClass: 2
Flags: W
LayerCount: 2
Fore
SplineSet
63 227 m 1,0,-1
 274 416 l 1,1,2
 284 416 284 416 284 405 c 1,3,-1
 156 225 l 1,4,-1
 285 44 l 1,5,6
 285 33 285 33 274 33 c 1,7,-1
 63 227 l 1,0,-1
EndSplineSet
EndChar

StartChar: guilsinglright
Encoding: 8250 8250 226
Width: 333
GlyphClass: 2
Flags: W
LayerCount: 2
Fore
SplineSet
270 221 m 1,0,-1
 59 32 l 1,1,2
 49 32 49 32 49 43 c 1,3,-1
 177 223 l 1,4,-1
 48 404 l 1,5,6
 48 415 48 415 59 415 c 1,7,-1
 270 221 l 1,0,-1
EndSplineSet
EndChar

StartChar: fraction
Encoding: 8260 8260 227
Width: 799
GlyphClass: 2
Flags: W
LayerCount: 2
Fore
SplineSet
599 677 m 1,0,-1
 249 -14 l 1,1,-1
 200 -14 l 1,2,-1
 553 677 l 1,3,-1
 599 677 l 1,0,-1
EndSplineSet
EndChar

StartChar: Euro
Encoding: 8364 8364 228
Width: 500
GlyphClass: 2
Flags: W
LayerCount: 2
Fore
SplineSet
70 326 m 2,0,-1
 71 360 l 1,1,-1
 18 360 l 1,2,-1
 18 398 l 1,3,-1
 75 398 l 1,4,5
 85 470 85 470 117 527 c 128,-1,6
 149 584 149 584 190 615 c 0,7,8
 274 677 274 677 348 677 c 128,-1,9
 422 677 422 677 470 647 c 1,10,-1
 460 581 l 1,11,12
 355 636 355 636 311 636 c 1,13,14
 256 617 256 617 215 554.5 c 128,-1,15
 174 492 174 492 165 398 c 1,16,-1
 381 398 l 1,17,-1
 381 360 l 1,18,-1
 163 360 l 1,19,-1
 163 352 l 2,20,21
 163 309 163 309 166 273 c 1,22,-1
 381 273 l 1,23,-1
 381 234 l 1,24,-1
 171 234 l 1,25,26
 189 124 189 124 237.5 72.5 c 128,-1,27
 286 21 286 21 353 21 c 0,28,29
 438 21 438 21 482 75 c 1,30,-1
 482 20 l 1,31,32
 419 -13 419 -13 351 -13 c 128,-1,33
 283 -13 283 -13 231 11 c 128,-1,34
 179 35 179 35 135.5 92.5 c 128,-1,35
 92 150 92 150 77 234 c 1,36,-1
 18 234 l 1,37,-1
 18 273 l 1,38,-1
 72 273 l 1,39,40
 70 307 70 307 70 326 c 2,0,-1
EndSplineSet
EndChar

StartChar: trademark
Encoding: 8482 8482 229
Width: 980
GlyphClass: 2
Flags: W
LayerCount: 2
Fore
SplineSet
249 280 m 1,0,-1
 174 280 l 1,1,-1
 174 672 l 1,2,3
 159 676 159 676 140 676 c 1,4,-1
 46 653 l 1,5,-1
 41 715 l 1,6,-1
 383 715 l 1,7,-1
 379 653 l 1,8,-1
 285 676 l 1,9,10
 265 676 265 676 249 672 c 1,11,-1
 249 280 l 1,0,-1
647 401 m 1,12,-1
 784 715 l 1,13,-1
 860 715 l 1,14,-1
 883 280 l 1,15,-1
 805 280 l 1,16,-1
 787 621 l 1,17,-1
 635 280 l 1,18,-1
 619 280 l 1,19,-1
 468 605 l 1,20,-1
 452 280 l 1,21,-1
 410 280 l 1,22,-1
 434 715 l 1,23,-1
 504 715 l 1,24,-1
 647 401 l 1,12,-1
EndSplineSet
EndChar

StartChar: Omega
Encoding: 8486 8486 230
Width: 725
GlyphClass: 2
Flags: W
LayerCount: 2
Fore
SplineSet
651 0 m 1,0,-1
 459 0 l 1,1,-1
 459 131 l 1,2,3
 506 167 506 167 530.5 233.5 c 128,-1,4
 555 300 555 300 555 371.5 c 128,-1,5
 555 443 555 443 536.5 500.5 c 128,-1,6
 518 558 518 558 473.5 595.5 c 128,-1,7
 429 633 429 633 363.5 633 c 128,-1,8
 298 633 298 633 252 590 c 0,9,10
 170 511 170 511 170 368 c 0,11,12
 170 188 170 188 267 126 c 1,13,-1
 267 0 l 1,14,-1
 75 0 l 1,15,-1
 75 64 l 1,16,-1
 210 51 l 1,17,-1
 210 103 l 1,18,19
 142 134 142 134 103 197.5 c 128,-1,20
 64 261 64 261 64 343 c 128,-1,21
 64 425 64 425 84.5 481 c 128,-1,22
 105 537 105 537 138 572 c 128,-1,23
 171 607 171 607 214 631 c 0,24,25
 292 674 292 674 389 674 c 0,26,27
 507 674 507 674 584 599 c 128,-1,28
 661 524 661 524 661 389 c 0,29,30
 661 205 661 205 516 123 c 1,31,-1
 516 51 l 1,32,-1
 651 64 l 1,33,-1
 651 0 l 1,0,-1
EndSplineSet
EndChar

StartChar: partialdiff
Encoding: 8706 8706 231
Width: 500
GlyphClass: 2
Flags: W
LayerCount: 2
Fore
SplineSet
227.5 455 m 128,-1,1
 263 464 263 464 295 464 c 128,-1,2
 327 464 327 464 360 454 c 1,3,4
 319 590 319 590 236 622 c 1,5,6
 183 622 183 622 82 590 c 1,7,-1
 62 654 l 1,8,9
 134 677 134 677 197 677 c 128,-1,10
 260 677 260 677 314.5 638 c 128,-1,11
 369 599 369 599 402 539 c 0,12,13
 471 414 471 414 471 284 c 0,14,15
 471 220 471 220 452 167.5 c 128,-1,16
 433 115 433 115 403 82.5 c 128,-1,17
 373 50 373 50 334 28 c 0,18,19
 264 -12 264 -12 189 -12 c 128,-1,20
 114 -12 114 -12 65.5 35.5 c 128,-1,21
 17 83 17 83 17 168 c 0,22,23
 17 232 17 232 36 284.5 c 128,-1,24
 55 337 55 337 85 369.5 c 128,-1,25
 115 402 115 402 153.5 424 c 128,-1,0
 192 446 192 446 227.5 455 c 128,-1,1
134.5 61.5 m 128,-1,27
 160 22 160 22 209 22 c 128,-1,28
 258 22 258 22 291.5 50.5 c 128,-1,29
 325 79 325 79 343 122 c 0,30,31
 379 208 379 208 379 283 c 0,32,33
 379 426 379 426 258 426 c 1,34,35
 184 399 184 399 146.5 326 c 128,-1,36
 109 253 109 253 109 177 c 128,-1,26
 109 101 109 101 134.5 61.5 c 128,-1,27
EndSplineSet
EndChar

StartChar: Delta
Encoding: 8710 8710 232
Width: 629
GlyphClass: 2
Flags: W
LayerCount: 2
Fore
SplineSet
589 0 m 1,0,-1
 40 0 l 1,1,-1
 307 678 l 1,2,-1
 322 678 l 1,3,-1
 589 0 l 1,0,-1
287 502 m 1,4,-1
 115 54 l 1,5,-1
 459 54 l 1,6,-1
 287 502 l 1,4,-1
EndSplineSet
EndChar

StartChar: product
Encoding: 8719 8719 233
Width: 627
GlyphClass: 2
Flags: W
LayerCount: 2
Fore
SplineSet
90 662 m 1,0,-1
 537 662 l 1,1,-1
 537 -100 l 1,2,-1
 440 -100 l 1,3,-1
 440 608 l 1,4,-1
 187 608 l 1,5,-1
 187 -100 l 1,6,-1
 90 -100 l 1,7,-1
 90 662 l 1,0,-1
EndSplineSet
EndChar

StartChar: summation
Encoding: 8721 8721 234
Width: 600
GlyphClass: 2
Flags: W
LayerCount: 2
Fore
SplineSet
520 -100 m 1,0,-1
 81 -100 l 1,1,-1
 314 267 l 1,2,-1
 91 662 l 1,3,-1
 510 662 l 1,4,-1
 510 608 l 1,5,-1
 227 608 l 1,6,-1
 402 300 l 1,7,-1
 181 -46 l 1,8,-1
 520 -46 l 1,9,-1
 520 -100 l 1,0,-1
EndSplineSet
EndChar

StartChar: minus
Encoding: 8722 8722 235
Width: 564
GlyphClass: 2
Flags: W
LayerCount: 2
Fore
SplineSet
505 224 m 1,0,-1
 59 224 l 1,1,-1
 59 282 l 1,2,-1
 505 282 l 1,3,-1
 505 224 l 1,0,-1
EndSplineSet
EndChar

StartChar: radical
Encoding: 8730 8730 236
Width: 550
GlyphClass: 2
Flags: W
LayerCount: 2
Fore
SplineSet
636 683 m 1,0,-1
 636 629 l 1,1,-1
 493 629 l 1,2,-1
 260 -100 l 1,3,-1
 228 -100 l 1,4,-1
 50 352 l 1,5,-1
 159 352 l 1,6,-1
 263 76 l 1,7,-1
 457 683 l 1,8,-1
 636 683 l 1,0,-1
EndSplineSet
EndChar

StartChar: infinity
Encoding: 8734 8734 237
Width: 869
GlyphClass: 2
Flags: W
LayerCount: 2
Fore
SplineSet
495 376 m 1,0,1
 554 451 554 451 641.5 451 c 128,-1,2
 729 451 729 451 774 392 c 128,-1,3
 819 333 819 333 819 253 c 128,-1,4
 819 173 819 173 774 114 c 128,-1,5
 729 55 729 55 648 55 c 0,6,7
 552 55 552 55 494 129 c 2,8,-1
 434 204 l 1,9,-1
 375 129 l 2,10,11
 317 55 317 55 221 55 c 0,12,13
 140 55 140 55 95 114 c 128,-1,14
 50 173 50 173 50 253 c 128,-1,15
 50 333 50 333 95 392 c 128,-1,16
 140 451 140 451 227.5 451 c 128,-1,17
 315 451 315 451 374 376 c 2,18,-1
 434 301 l 1,19,-1
 495 376 l 1,0,1
328 339 m 2,20,21
 283 393 283 393 225.5 393 c 128,-1,22
 168 393 168 393 138 351.5 c 128,-1,23
 108 310 108 310 108 253 c 128,-1,24
 108 196 108 196 138 154.5 c 128,-1,25
 168 113 168 113 228 113 c 128,-1,26
 288 113 288 113 329 165 c 2,27,-1
 400 253 l 1,28,-1
 328 339 l 2,20,21
540 165 m 2,29,30
 581 113 581 113 641 113 c 128,-1,31
 701 113 701 113 731 154.5 c 128,-1,32
 761 196 761 196 761 253 c 128,-1,33
 761 310 761 310 731 351.5 c 128,-1,34
 701 393 701 393 643.5 393 c 128,-1,35
 586 393 586 393 541 339 c 2,36,-1
 469 253 l 1,37,-1
 540 165 l 2,29,30
EndSplineSet
EndChar

StartChar: integral
Encoding: 8747 8747 238
Width: 339
GlyphClass: 2
Flags: W
LayerCount: 2
Fore
SplineSet
212 521 m 2,0,-1
 212 92 l 2,1,2
 212 -12 212 -12 166 -62.5 c 128,-1,3
 120 -113 120 -113 46 -113 c 0,4,5
 13 -113 13 -113 -30 -98 c 1,6,-1
 -22 -59 l 1,7,8
 12 -67 12 -67 44 -67 c 0,9,10
 90 -67 90 -67 108.5 -34 c 128,-1,11
 127 -1 127 -1 127 43 c 2,12,-1
 127 472 l 2,13,14
 127 576 127 576 173 626.5 c 128,-1,15
 219 677 219 677 293 677 c 0,16,17
 326 677 326 677 369 662 c 1,18,-1
 361 623 l 1,19,20
 327 631 327 631 295 631 c 0,21,22
 249 631 249 631 230.5 598 c 128,-1,23
 212 565 212 565 212 521 c 2,0,-1
EndSplineSet
EndChar

StartChar: approxequal
Encoding: 8776 8776 239
Width: 564
GlyphClass: 2
Flags: W
LayerCount: 2
Fore
SplineSet
505 312 m 1,0,1
 456 336 456 336 409 336 c 128,-1,2
 362 336 362 336 284 310 c 128,-1,3
 206 284 206 284 154 284 c 128,-1,4
 102 284 102 284 59 312 c 1,5,-1
 59 371 l 1,6,7
 102 344 102 344 149.5 344 c 128,-1,8
 197 344 197 344 275 369.5 c 128,-1,9
 353 395 353 395 402.5 395 c 128,-1,10
 452 395 452 395 505 371 c 1,11,-1
 505 312 l 1,0,1
505 135 m 1,12,13
 457 162 457 162 409 162 c 128,-1,14
 361 162 361 162 284 134.5 c 128,-1,15
 207 107 207 107 154.5 107 c 128,-1,16
 102 107 102 107 59 135 c 1,17,-1
 59 194 l 1,18,19
 103 166 103 166 150.5 166 c 128,-1,20
 198 166 198 166 274.5 193.5 c 128,-1,21
 351 221 351 221 402.5 221 c 128,-1,22
 454 221 454 221 505 194 c 1,23,-1
 505 135 l 1,12,13
EndSplineSet
EndChar

StartChar: notequal
Encoding: 8800 8800 240
Width: 564
GlyphClass: 2
Flags: W
LayerCount: 2
Fore
SplineSet
505 371 m 1,0,-1
 505 313 l 1,1,-1
 331 313 l 1,2,-1
 292 194 l 1,3,-1
 505 194 l 1,4,-1
 505 135 l 1,5,-1
 272 135 l 1,6,-1
 211 -52 l 1,7,-1
 151 -52 l 1,8,-1
 213 135 l 1,9,-1
 59 135 l 1,10,-1
 59 194 l 1,11,-1
 232 194 l 1,12,-1
 271 313 l 1,13,-1
 59 313 l 1,14,-1
 59 371 l 1,15,-1
 291 371 l 1,16,-1
 354 561 l 1,17,-1
 413 561 l 1,18,-1
 350 371 l 1,19,-1
 505 371 l 1,0,-1
EndSplineSet
EndChar

StartChar: lessequal
Encoding: 8804 8804 241
Width: 564
GlyphClass: 2
Flags: W
LayerCount: 2
Fore
SplineSet
507 158 m 1,0,-1
 507 98 l 1,1,-1
 57 302 l 1,2,-1
 57 356 l 1,3,-1
 507 560 l 1,4,-1
 507 500 l 1,5,-1
 130 329 l 1,6,-1
 507 158 l 1,0,-1
505 0 m 1,7,-1
 59 0 l 1,8,-1
 59 58 l 1,9,-1
 505 58 l 1,10,-1
 505 0 l 1,7,-1
EndSplineSet
EndChar

StartChar: greaterequal
Encoding: 8805 8805 242
Width: 564
GlyphClass: 2
Flags: W
LayerCount: 2
Fore
SplineSet
57 158 m 1,0,-1
 434 329 l 1,1,-1
 57 500 l 1,2,-1
 57 560 l 1,3,-1
 507 356 l 1,4,-1
 507 302 l 1,5,-1
 57 98 l 1,6,-1
 57 158 l 1,0,-1
505 0 m 1,7,-1
 59 0 l 1,8,-1
 59 58 l 1,9,-1
 505 58 l 1,10,-1
 505 0 l 1,7,-1
EndSplineSet
EndChar

StartChar: lozenge
Encoding: 9674 9674 243
Width: 589
GlyphClass: 2
Flags: W
LayerCount: 2
Fore
SplineSet
302 678 m 1,0,-1
 539 239 l 1,1,-1
 302 -200 l 1,2,-1
 287 -200 l 1,3,-1
 50 239 l 1,4,-1
 287 678 l 1,5,-1
 302 678 l 1,0,-1
294 593 m 1,6,-1
 107 239 l 1,7,-1
 294 -115 l 1,8,-1
 482 239 l 1,9,-1
 294 593 l 1,6,-1
EndSplineSet
EndChar

StartChar: apple
Encoding: 63743 63743 244
Width: 923
GlyphClass: 2
Flags: W
LayerCount: 2
Fore
SplineSet
589 -89 m 2,0,-1
 566 -88 l 2,1,2
 552 -88 552 -88 534.5 -100 c 128,-1,3
 517 -112 517 -112 508 -112 c 1,4,-1
 462 -102 l 1,5,6
 454 -102 454 -102 438.5 -108 c 128,-1,7
 423 -114 423 -114 414.5 -114 c 128,-1,8
 406 -114 406 -114 390 -101.5 c 128,-1,9
 374 -89 374 -89 361 -89 c 1,10,-1
 337 -91 l 1,11,12
 322 -91 322 -91 304 -74 c 1,13,-1
 286 -55 l 1,14,15
 274 -49 274 -49 261 -48 c 128,-1,16
 248 -47 248 -47 239 -41.5 c 128,-1,17
 230 -36 230 -36 223 -18.5 c 128,-1,18
 216 -1 216 -1 210.5 3.5 c 128,-1,19
 205 8 205 8 191 13.5 c 128,-1,20
 177 19 177 19 171 28 c 0,21,22
 166 37 166 37 164 51.5 c 128,-1,23
 162 66 162 66 158 72.5 c 128,-1,24
 154 79 154 79 144 86 c 0,25,26
 122 104 122 104 122 124 c 1,27,-1
 125 149 l 1,28,29
 125 158 125 158 112.5 175.5 c 128,-1,30
 100 193 100 193 100 202 c 128,-1,31
 100 211 100 211 106 225.5 c 128,-1,32
 112 240 112 240 112 248.5 c 128,-1,33
 112 257 112 257 106 270 c 128,-1,34
 100 283 100 283 100 292 c 128,-1,35
 100 301 100 301 112.5 321.5 c 128,-1,36
 125 342 125 342 125 351 c 2,37,-1
 124 376 l 2,38,39
 124 391 124 391 140.5 405.5 c 128,-1,40
 157 420 157 420 159.5 425 c 128,-1,41
 162 430 162 430 164 446 c 128,-1,42
 166 462 166 462 170 468 c 128,-1,43
 174 474 174 474 189.5 480 c 128,-1,44
 205 486 205 486 210 491 c 128,-1,45
 215 496 215 496 222 511.5 c 128,-1,46
 229 527 229 527 235.5 532.5 c 128,-1,47
 242 538 242 538 261 542 c 128,-1,48
 280 546 280 546 285.5 549 c 128,-1,49
 291 552 291 552 306 569 c 128,-1,50
 321 586 321 586 335 587 c 1,51,-1
 361 585 l 2,52,53
 374 585 374 585 389.5 596.5 c 128,-1,54
 405 608 405 608 416 608 c 1,55,-1
 460 596 l 1,56,-1
 505 608 l 1,57,58
 518 608 518 608 534 595.5 c 128,-1,59
 550 583 550 583 562 583 c 1,60,-1
 590 586 l 1,61,62
 606 586 606 586 619 569.5 c 128,-1,63
 632 553 632 553 638.5 549.5 c 128,-1,64
 645 546 645 546 660 543 c 128,-1,65
 675 540 675 540 682.5 535 c 128,-1,66
 690 530 690 530 695 516 c 128,-1,67
 700 502 700 502 705.5 497 c 128,-1,68
 711 492 711 492 731 481.5 c 128,-1,69
 751 471 751 471 755.5 463 c 128,-1,70
 760 455 760 455 760.5 439 c 128,-1,71
 761 423 761 423 763.5 418.5 c 128,-1,72
 766 414 766 414 783 399.5 c 128,-1,73
 800 385 800 385 800 369 c 2,74,-1
 799 344 l 2,75,76
 799 331 799 331 811 312.5 c 128,-1,77
 823 294 823 294 823 285 c 128,-1,78
 823 276 823 276 817.5 263 c 128,-1,79
 812 250 812 250 812 243 c 128,-1,80
 812 236 812 236 817.5 221.5 c 128,-1,81
 823 207 823 207 822.5 199 c 128,-1,82
 822 191 822 191 810 178.5 c 128,-1,83
 798 166 798 166 798 152 c 2,84,-1
 800 120 l 2,85,86
 800 104 800 104 784 91 c 128,-1,87
 768 78 768 78 765.5 73 c 128,-1,88
 763 68 763 68 758.5 49 c 128,-1,89
 754 30 754 30 748.5 23.5 c 128,-1,90
 743 17 743 17 730.5 11.5 c 128,-1,91
 718 6 718 6 713 1 c 128,-1,92
 708 -4 708 -4 699 -20.5 c 128,-1,93
 690 -37 690 -37 683 -42 c 128,-1,94
 676 -47 676 -47 658.5 -51.5 c 128,-1,95
 641 -56 641 -56 636 -59 c 128,-1,96
 631 -62 631 -62 617.5 -75.5 c 128,-1,97
 604 -89 604 -89 589 -89 c 2,0,-1
462 -6 m 1,98,-1
 495 -13 l 1,99,100
 501 -13 501 -13 512 -6 c 0,101,102
 527 4 527 4 539 4 c 2,103,-1
 554 3 l 2,104,105
 566 3 566 3 575 13 c 128,-1,106
 584 23 584 23 587.5 25 c 128,-1,107
 591 27 591 27 604 30.5 c 128,-1,108
 617 34 617 34 622.5 38 c 128,-1,109
 628 42 628 42 634.5 53.5 c 128,-1,110
 641 65 641 65 644.5 68.5 c 128,-1,111
 648 72 648 72 657 76 c 128,-1,112
 666 80 666 80 670 84.5 c 128,-1,113
 674 89 674 89 677 103 c 128,-1,114
 680 117 680 117 682.5 121 c 128,-1,115
 685 125 685 125 696 134 c 128,-1,116
 707 143 707 143 707 157 c 2,117,-1
 706 177 l 2,118,119
 706 188 706 188 714.5 197.5 c 128,-1,120
 723 207 723 207 724 213 c 1,121,-1
 716 245 l 1,122,-1
 724 273 l 1,123,124
 724 281 724 281 715 295 c 128,-1,125
 706 309 706 309 706 318 c 2,126,-1
 707 335 l 2,127,128
 707 347 707 347 695 357 c 128,-1,129
 683 367 683 367 681 371 c 128,-1,130
 679 375 679 375 678.5 386.5 c 128,-1,131
 678 398 678 398 675 403.5 c 128,-1,132
 672 409 672 409 657.5 416.5 c 128,-1,133
 643 424 643 424 639 428 c 128,-1,134
 635 432 635 432 631 442 c 128,-1,135
 627 452 627 452 622 456 c 128,-1,136
 617 460 617 460 606 462 c 128,-1,137
 595 464 595 464 590 466.5 c 128,-1,138
 585 469 585 469 576 481 c 128,-1,139
 567 493 567 493 555 493 c 1,140,-1
 535 491 l 2,141,142
 526 491 526 491 515 500 c 128,-1,143
 504 509 504 509 494 509 c 1,144,-1
 461 500 l 1,145,-1
 429 509 l 1,146,147
 421 509 421 509 409 500.5 c 128,-1,148
 397 492 397 492 387 492 c 2,149,-1
 370 493 l 2,150,151
 359 493 359 493 348.5 480.5 c 128,-1,152
 338 468 338 468 333.5 465.5 c 128,-1,153
 329 463 329 463 316 460.5 c 128,-1,154
 303 458 303 458 298 454 c 128,-1,155
 293 450 293 450 288 439 c 128,-1,156
 283 428 283 428 279 424 c 128,-1,157
 275 420 275 420 264.5 416 c 128,-1,158
 254 412 254 412 250 407 c 0,159,160
 248 403 248 403 246 391.5 c 128,-1,161
 244 380 244 380 242 376 c 128,-1,162
 240 372 240 372 228 361.5 c 128,-1,163
 216 351 216 351 216 340 c 2,164,-1
 217 324 l 2,165,166
 217 316 217 316 208.5 301 c 128,-1,167
 200 286 200 286 200 278 c 1,168,-1
 208 248 l 1,169,-1
 200 215 l 1,170,171
 200 207 200 207 208.5 194.5 c 128,-1,172
 217 182 217 182 217 174 c 2,173,-1
 215 158 l 1,174,175
 215 147 215 147 227.5 135.5 c 128,-1,176
 240 124 240 124 242 120 c 128,-1,177
 244 116 244 116 245.5 105.5 c 128,-1,178
 247 95 247 95 251 88.5 c 128,-1,179
 255 82 255 82 265 78 c 128,-1,180
 275 74 275 74 279 70.5 c 128,-1,181
 283 67 283 67 288.5 54 c 128,-1,182
 294 41 294 41 300 37 c 128,-1,183
 306 33 306 33 315.5 33 c 128,-1,184
 325 33 325 33 331 30 c 128,-1,185
 337 27 337 27 348.5 14.5 c 128,-1,186
 360 2 360 2 371 2 c 2,187,-1
 386 3 l 2,188,189
 396 3 396 3 408 -5.5 c 128,-1,190
 420 -14 420 -14 426 -15 c 1,191,-1
 462 -6 l 1,98,-1
462 417 m 128,-1,193
 532 417 532 417 582 367.5 c 128,-1,194
 632 318 632 318 632 247 c 128,-1,195
 632 176 632 176 582 126.5 c 128,-1,196
 532 77 532 77 462 77 c 128,-1,197
 392 77 392 77 342 126.5 c 128,-1,198
 292 176 292 176 292 247 c 128,-1,199
 292 318 292 318 342 367.5 c 128,-1,192
 392 417 392 417 462 417 c 128,-1,193
505 292 m 1,200,-1
 557 292 l 1,201,-1
 557 360 l 1,202,-1
 366 360 l 1,203,-1
 366 292 l 1,204,-1
 420 292 l 1,205,-1
 420 117 l 1,206,-1
 505 117 l 1,207,-1
 505 292 l 1,200,-1
EndSplineSet
EndChar

StartChar: fi
Encoding: 64257 64257 245
Width: 566
GlyphClass: 3
Flags: W
LayerCount: 2
Fore
SplineSet
308 452 m 1,0,-1
 308 416 l 1,1,-1
 187 416 l 1,2,-1
 187 0 l 1,3,-1
 103 0 l 1,4,-1
 103 416 l 1,5,-1
 21 432 l 1,6,-1
 21 452 l 1,7,-1
 104 452 l 1,8,9
 110 558 110 558 160.5 625 c 128,-1,10
 211 692 211 692 297 692 c 0,11,12
 325 692 325 692 373 680 c 1,13,-1
 363 615 l 1,14,15
 341 627 341 627 306.5 636 c 128,-1,16
 272 645 272 645 254 645 c 1,17,18
 220 628 220 628 204.5 569 c 128,-1,19
 189 510 189 510 187 452 c 1,20,-1
 308 452 l 1,0,-1
408 0 m 1,21,-1
 408 452 l 1,22,-1
 491 452 l 1,23,-1
 491 0 l 1,24,-1
 408 0 l 1,21,-1
412.5 628 m 128,-1,26
 427 643 427 643 448.5 643 c 128,-1,27
 470 643 470 643 485.5 628 c 128,-1,28
 501 613 501 613 501 592 c 128,-1,29
 501 571 501 571 485.5 555 c 128,-1,30
 470 539 470 539 449 539 c 128,-1,31
 428 539 428 539 413 554.5 c 128,-1,32
 398 570 398 570 398 591.5 c 128,-1,25
 398 613 398 613 412.5 628 c 128,-1,26
EndSplineSet
Ligature2: "'liga' Standard Ligatures in Latin lookup 0 subtable" f i
EndChar

StartChar: fl
Encoding: 64258 64258 246
Width: 532
GlyphClass: 3
Flags: W
LayerCount: 2
Fore
SplineSet
457 0 m 1,0,-1
 373 0 l 1,1,-1
 373 625 l 1,2,3
 317 645 317 645 254 645 c 1,4,5
 220 628 220 628 204.5 569 c 128,-1,6
 189 510 189 510 187 452 c 1,7,-1
 308 452 l 1,8,-1
 308 416 l 1,9,-1
 187 416 l 1,10,-1
 187 0 l 1,11,-1
 103 0 l 1,12,-1
 103 416 l 1,13,-1
 21 432 l 1,14,-1
 21 452 l 1,15,-1
 104 452 l 1,16,17
 110 558 110 558 160.5 625 c 128,-1,18
 211 692 211 692 297 692 c 0,19,20
 340 692 340 692 373 670 c 1,21,-1
 457 683 l 1,22,-1
 457 0 l 1,0,-1
EndSplineSet
Ligature2: "'liga' Standard Ligatures in Latin lookup 0 subtable" f l
EndChar
